<svg width="247" height="48" viewBox="0 0 247 48" fill="none" xmlns="http://www.w3.org/2000/svg">
<g clip-path="url(#clip0_137_1894)">
<path d="M35.1675 1.51562V42.8507H32.2863V23.7469H32.2757V5.44876L17.7214 24.1815L3.15645 5.42756V42.8507H0.264648V1.51562H3.15645L17.7002 20.3756L32.3393 1.51562H35.1675Z" fill="#9B9B9B" stroke="#9B9B9B" stroke-width="0.234791" stroke-miterlimit="10"/>
<path d="M39.5527 20.0367C39.5527 9.7851 47.6138 1.50537 58.5878 1.50537C69.5618 1.50537 77.697 9.7851 77.697 20.0367C77.697 30.2883 69.6359 38.515 58.5878 38.515C47.5396 38.515 39.5527 30.2141 39.5527 20.0367ZM74.4874 20.0367C74.4874 11.3965 67.7187 4.52678 58.5772 4.52678C49.4357 4.52678 42.7411 11.4071 42.7411 20.0367C42.7411 28.6663 49.5098 35.4724 58.5772 35.4724C67.6445 35.4724 74.4874 28.5921 74.4874 20.0367Z" fill="#9B9B9B" stroke="#9B9B9B" stroke-width="0.234791" stroke-miterlimit="10"/>
<path d="M162.492 1.12402V38.3245L132.981 1.14523H129.273V42.2894C127.006 43.18 124.581 43.8267 122.028 44.1977V2.14176H118.373V44.5476C117.886 44.5688 117.399 44.5794 116.901 44.5794C102.686 44.5794 90.8748 36.1406 88.8939 25.1787L100.959 25.2423C109.317 25.2423 115.015 21.5212 115.015 13.7079C115.015 5.89468 109.052 2.14176 100.715 2.14176H82.0723V42.8513H85.7267V25.1575H85.8009C87.7499 37.8156 100.948 47.6326 116.901 47.6326C132.854 47.6326 145.851 37.9641 147.948 25.4437L162.407 43.657H166.136V1.12402H162.492ZM85.7267 21.8817V5.50242H100.97C106.965 5.50242 111.255 8.14218 111.255 13.7079C111.255 19.2737 106.965 21.8817 100.97 21.8817H85.7267ZM132.938 40.572V6.55196L145.194 21.9771C145.162 29.6843 140.321 36.5011 132.938 40.572Z" fill="#9B9B9B" stroke="#9B9B9B" stroke-width="0.234791" stroke-miterlimit="10"/>
<path d="M169.504 18.7753C169.504 8.56607 177.417 0.265137 188.391 0.265137C194.45 0.265137 199.524 2.58685 203.051 6.26556L200.615 8.23742C197.66 5.17361 193.412 3.29715 188.391 3.29715C179.292 3.29715 172.703 10.1775 172.703 18.7753C172.703 27.373 179.44 34.1792 188.539 34.1792C192.872 34.1792 197.776 32.4511 201.473 28.1999V18.4148H204.683V29.2707C201.018 33.9883 195.192 37.2006 188.55 37.2006C177.576 37.2006 169.515 28.9208 169.515 18.7753H169.504Z" fill="#9B9B9B" stroke="#9B9B9B" stroke-width="0.234791" stroke-miterlimit="10"/>
<path d="M224.184 1.37793L246.555 43.6459H242.583L237.276 33.4367H210.9L205.456 43.6565H201.388L224.184 1.37793ZM235.634 30.3199L224.141 8.38549L212.542 30.3199H235.634Z" fill="#9B9B9B" stroke="#9B9B9B" stroke-width="0.234791" stroke-miterlimit="10"/>
<path d="M63.0159 19.9518L60.3465 20.6303C59.8275 20.7999 59.4249 21.2346 59.2978 21.7647L58.7894 24.6059L58.1114 21.8283C57.942 21.3088 57.5183 20.9272 56.9992 20.7999L54.2451 20.2805L56.8615 19.6232C57.4123 19.443 57.8254 18.9977 57.9631 18.4252L58.461 15.4038L59.1283 18.351C59.3084 18.9023 59.7533 19.3157 60.3147 19.443L63.0264 19.9412L63.0159 19.9518Z" fill="#9B9B9B"/>
</g>
<defs>
<clipPath id="clip0_137_1894">
<rect width="247" height="47.8973" fill="white"/>
</clipPath>
</defs>
</svg>
