<svg width="344" height="325" viewBox="0 0 344 325" fill="none" xmlns="http://www.w3.org/2000/svg">
<rect width="344" height="325" rx="55" fill="black"/>
<path d="M206.838 250.198H204.941L204.93 249.152H206.523C206.804 249.152 207.034 249.117 207.213 249.046C207.393 248.971 207.526 248.865 207.614 248.726C207.706 248.584 207.751 248.412 207.751 248.209C207.751 247.979 207.707 247.793 207.619 247.651C207.535 247.509 207.401 247.405 207.219 247.341C207.039 247.277 206.808 247.245 206.523 247.245H205.468V253.439H203.946V246.052H206.523C206.953 246.052 207.337 246.093 207.675 246.174C208.017 246.255 208.306 246.379 208.543 246.545C208.779 246.71 208.96 246.92 209.086 247.174C209.211 247.424 209.273 247.722 209.273 248.067C209.273 248.371 209.204 248.652 209.065 248.909C208.93 249.166 208.715 249.376 208.421 249.538C208.13 249.7 207.75 249.79 207.279 249.807L206.838 250.198ZM206.772 253.439H204.525L205.118 252.252H206.772C207.039 252.252 207.257 252.21 207.427 252.125C207.596 252.037 207.721 251.919 207.802 251.77C207.883 251.621 207.924 251.451 207.924 251.258C207.924 251.041 207.887 250.854 207.812 250.695C207.741 250.536 207.626 250.414 207.467 250.329C207.308 250.241 207.098 250.198 206.838 250.198H205.372L205.382 249.152H207.208L207.558 249.563C208.008 249.557 208.37 249.636 208.644 249.802C208.922 249.964 209.123 250.176 209.248 250.436C209.376 250.696 209.441 250.975 209.441 251.273C209.441 251.747 209.338 252.146 209.131 252.47C208.925 252.792 208.622 253.034 208.223 253.196C207.827 253.358 207.344 253.439 206.772 253.439ZM213.738 252.125V247.95H215.199V253.439H213.824L213.738 252.125ZM213.9 250.999L214.332 250.989C214.332 251.354 214.289 251.694 214.205 252.009C214.12 252.32 213.993 252.59 213.824 252.82C213.655 253.047 213.442 253.225 213.185 253.353C212.928 253.478 212.625 253.541 212.277 253.541C212.01 253.541 211.763 253.504 211.536 253.429C211.313 253.352 211.12 253.231 210.958 253.069C210.799 252.903 210.674 252.692 210.582 252.435C210.494 252.174 210.45 251.862 210.45 251.496V247.95H211.912V251.506C211.912 251.669 211.93 251.806 211.967 251.917C212.008 252.029 212.064 252.12 212.135 252.191C212.206 252.262 212.289 252.313 212.383 252.344C212.481 252.374 212.59 252.389 212.708 252.389C213.009 252.389 213.246 252.328 213.418 252.207C213.594 252.085 213.718 251.919 213.789 251.709C213.863 251.496 213.9 251.26 213.9 250.999ZM219.004 247.95V248.985H215.808V247.95H219.004ZM216.599 246.595H218.061V251.786C218.061 251.944 218.081 252.066 218.121 252.151C218.165 252.235 218.23 252.295 218.314 252.328C218.399 252.359 218.505 252.374 218.634 252.374C218.725 252.374 218.806 252.371 218.877 252.364C218.952 252.354 219.014 252.344 219.065 252.333L219.07 253.409C218.945 253.45 218.81 253.482 218.664 253.505C218.519 253.529 218.358 253.541 218.182 253.541C217.861 253.541 217.58 253.488 217.34 253.384C217.103 253.275 216.921 253.103 216.792 252.866C216.664 252.629 216.599 252.318 216.599 251.933V246.595ZM222.525 247.95V248.985H219.329V247.95H222.525ZM220.12 246.595H221.582V251.786C221.582 251.944 221.602 252.066 221.642 252.151C221.686 252.235 221.751 252.295 221.835 252.328C221.92 252.359 222.026 252.374 222.155 252.374C222.246 252.374 222.327 252.371 222.398 252.364C222.473 252.354 222.535 252.344 222.586 252.333L222.591 253.409C222.466 253.45 222.331 253.482 222.185 253.505C222.04 253.529 221.879 253.541 221.703 253.541C221.382 253.541 221.101 253.488 220.861 253.384C220.624 253.275 220.442 253.103 220.313 252.866C220.185 252.629 220.12 252.318 220.12 251.933V246.595ZM222.992 250.751V250.644C222.992 250.241 223.049 249.871 223.164 249.533C223.279 249.191 223.447 248.895 223.667 248.645C223.887 248.395 224.157 248.2 224.478 248.062C224.8 247.92 225.168 247.848 225.584 247.848C226.001 247.848 226.371 247.92 226.696 248.062C227.02 248.2 227.293 248.395 227.512 248.645C227.736 248.895 227.905 249.191 228.02 249.533C228.135 249.871 228.192 250.241 228.192 250.644V250.751C228.192 251.15 228.135 251.52 228.02 251.862C227.905 252.2 227.736 252.496 227.512 252.749C227.293 253 227.022 253.194 226.701 253.333C226.379 253.472 226.011 253.541 225.595 253.541C225.179 253.541 224.808 253.472 224.484 253.333C224.162 253.194 223.89 253 223.667 252.749C223.447 252.496 223.279 252.2 223.164 251.862C223.049 251.52 222.992 251.15 222.992 250.751ZM224.453 250.644V250.751C224.453 250.981 224.473 251.195 224.514 251.395C224.555 251.594 224.619 251.77 224.707 251.922C224.798 252.071 224.916 252.188 225.062 252.273C225.207 252.357 225.385 252.399 225.595 252.399C225.798 252.399 225.972 252.357 226.117 252.273C226.263 252.188 226.379 252.071 226.467 251.922C226.555 251.77 226.619 251.594 226.66 251.395C226.704 251.195 226.726 250.981 226.726 250.751V250.644C226.726 250.421 226.704 250.211 226.66 250.015C226.619 249.815 226.554 249.639 226.462 249.487C226.374 249.332 226.258 249.21 226.112 249.122C225.967 249.034 225.791 248.99 225.584 248.99C225.378 248.99 225.202 249.034 225.057 249.122C224.915 249.21 224.798 249.332 224.707 249.487C224.619 249.639 224.555 249.815 224.514 250.015C224.473 250.211 224.453 250.421 224.453 250.644ZM230.521 249.122V253.439H229.06V247.95H230.43L230.521 249.122ZM230.308 250.502H229.912C229.912 250.096 229.965 249.731 230.069 249.406C230.174 249.078 230.321 248.799 230.511 248.569C230.7 248.336 230.925 248.158 231.186 248.036C231.449 247.911 231.744 247.848 232.068 247.848C232.325 247.848 232.56 247.886 232.774 247.96C232.987 248.035 233.169 248.153 233.322 248.315C233.477 248.478 233.595 248.692 233.677 248.96C233.761 249.227 233.803 249.553 233.803 249.939V253.439H232.332V249.934C232.332 249.69 232.298 249.501 232.231 249.365C232.163 249.23 232.063 249.135 231.931 249.081C231.803 249.024 231.644 248.995 231.454 248.995C231.258 248.995 231.087 249.034 230.942 249.112C230.8 249.19 230.682 249.298 230.587 249.436C230.496 249.572 230.426 249.731 230.379 249.913C230.332 250.096 230.308 250.292 230.308 250.502Z" fill="white"/>
<path d="M244.525 246.438C243.032 246.438 241.822 247.665 241.822 249.178C241.822 250.517 242.993 251.788 243.794 252.501C244.212 252.874 244.838 252.874 245.257 252.501C246.057 251.788 247.229 250.517 247.229 249.178C247.229 247.665 246.019 246.438 244.525 246.438ZM244.982 249.168C244.982 249.42 244.778 249.625 244.525 249.625C244.273 249.625 244.069 249.42 244.069 249.168V249.114C244.069 248.862 244.273 248.657 244.525 248.657C244.778 248.657 244.982 248.862 244.982 249.114V249.168Z" fill="white"/>
<path d="M249.989 252.024C249.766 251.902 249.492 251.989 249.375 252.212C248.857 253.171 248.081 253.952 247.132 254.464C246.63 254.728 246.108 254.916 245.565 255.017C245.549 255.023 245.534 255.023 245.519 255.028C245.518 255.028 245.517 255.028 245.515 255.029C245.321 254.679 244.953 254.439 244.525 254.439C243.897 254.439 243.388 254.948 243.388 255.576C243.388 256.203 243.897 256.712 244.525 256.712C245.025 256.712 245.445 256.386 245.597 255.937C245.6 255.936 245.603 255.936 245.605 255.936C245.651 255.931 245.697 255.921 245.737 255.91C246.366 255.799 246.975 255.581 247.564 255.266C248.675 254.667 249.578 253.759 250.176 252.638C250.298 252.42 250.212 252.141 249.989 252.024Z" fill="white"/>
<path d="M243.53 244.191C243.532 244.191 243.533 244.191 243.534 244.191C243.728 244.54 244.096 244.78 244.524 244.78C245.152 244.78 245.661 244.271 245.661 243.643C245.661 243.016 245.152 242.507 244.524 242.507C244.024 242.507 243.604 242.833 243.452 243.282C243.449 243.283 243.447 243.283 243.444 243.283C243.398 243.288 243.352 243.298 243.312 243.308C242.987 243.364 242.662 243.456 242.348 243.572C242.023 243.689 241.739 243.816 241.496 243.958C240.374 244.557 239.461 245.46 238.868 246.571C238.746 246.794 238.832 247.073 239.05 247.19C239.121 247.23 239.197 247.245 239.268 247.245C239.431 247.245 239.588 247.159 239.669 247.007C240.182 246.053 240.963 245.277 241.932 244.759C242.145 244.638 242.383 244.531 242.662 244.43C242.931 244.328 243.195 244.257 243.484 244.201C243.5 244.196 243.515 244.196 243.53 244.191Z" fill="white"/>
<path d="M241.923 254.466C240.959 253.944 240.183 253.168 239.67 252.214C239.407 251.717 239.219 251.194 239.117 250.651C239.112 250.636 239.112 250.621 239.107 250.605C239.107 250.604 239.107 250.602 239.107 250.601C239.456 250.408 239.696 250.039 239.696 249.611C239.696 248.983 239.187 248.475 238.559 248.475C237.932 248.475 237.423 248.983 237.423 249.611C237.423 250.112 237.749 250.532 238.199 250.684C238.199 250.685 238.199 250.686 238.199 250.687C238.204 250.732 238.214 250.783 238.224 250.829C238.341 251.453 238.554 252.067 238.869 252.65C239.462 253.756 240.371 254.664 241.487 255.268C241.558 255.309 241.629 255.324 241.705 255.324C241.867 255.324 242.024 255.238 242.106 255.085C242.227 254.862 242.146 254.588 241.923 254.466Z" fill="white"/>
<path d="M250.857 248.539C250.857 248.537 250.857 248.536 250.857 248.534C250.847 248.488 250.842 248.443 250.831 248.397C250.766 248.062 250.679 247.737 250.568 247.438C250.03 245.941 248.964 244.704 247.554 243.958C247.331 243.836 247.057 243.922 246.94 244.145C246.818 244.369 246.905 244.643 247.128 244.759C248.33 245.404 249.249 246.464 249.71 247.748C249.807 248.006 249.878 248.28 249.933 248.57C249.939 248.585 249.939 248.6 249.944 248.615C249.944 248.617 249.944 248.618 249.944 248.619C249.595 248.813 249.355 249.181 249.355 249.61C249.355 250.237 249.864 250.746 250.492 250.746C251.119 250.746 251.628 250.237 251.628 249.61C251.628 249.111 251.304 248.692 250.857 248.539Z" fill="white"/>
<rect x="189.649" y="232.399" width="70.7849" height="35.0678" rx="0.649403" stroke="#E6327D" stroke-width="1.29881"/>
<line x1="123.056" y1="231.75" x2="123.056" y2="268.117" stroke="white" stroke-width="0.649403" stroke-dasharray="1.3 1.3"/>
<rect x="47.3994" y="232.399" width="70.7849" height="35.0678" rx="0.649403" fill="#E6327D" stroke="#E6327D" stroke-width="1.29881"/>
<path d="M64.5895 250.198H62.692L62.6819 249.152H64.275C64.5557 249.152 64.7857 249.117 64.9649 249.046C65.1442 248.971 65.2778 248.865 65.3657 248.726C65.4571 248.584 65.5027 248.412 65.5027 248.209C65.5027 247.979 65.4588 247.793 65.3708 247.651C65.2863 247.509 65.1527 247.405 64.97 247.341C64.7908 247.277 64.5591 247.245 64.275 247.245H63.2197V253.439H61.6976V246.052H64.275C64.7045 246.052 65.0884 246.093 65.4266 246.174C65.7682 246.255 66.0574 246.379 66.2942 246.545C66.531 246.71 66.7119 246.92 66.8371 247.174C66.9622 247.424 67.0248 247.722 67.0248 248.067C67.0248 248.371 66.9554 248.652 66.8168 248.909C66.6815 249.166 66.4667 249.376 66.1724 249.538C65.8816 249.7 65.501 249.79 65.0309 249.807L64.5895 250.198ZM64.5236 253.439H62.276L62.8696 252.252H64.5236C64.7908 252.252 65.0089 252.21 65.178 252.125C65.3471 252.037 65.4723 251.919 65.5535 251.77C65.6346 251.621 65.6752 251.451 65.6752 251.258C65.6752 251.041 65.638 250.854 65.5636 250.695C65.4926 250.536 65.3776 250.414 65.2186 250.329C65.0596 250.241 64.8499 250.198 64.5895 250.198H63.1233L63.1334 249.152H64.9599L65.3099 249.563C65.7598 249.557 66.1217 249.636 66.3957 249.802C66.673 249.964 66.8743 250.176 66.9994 250.436C67.1279 250.696 67.1922 250.975 67.1922 251.273C67.1922 251.747 67.089 252.146 66.8827 252.47C66.6764 252.792 66.3737 253.034 65.9746 253.196C65.5788 253.358 65.0952 253.439 64.5236 253.439ZM71.4894 252.125V247.95H72.9506V253.439H71.5757L71.4894 252.125ZM71.6518 250.999L72.083 250.989C72.083 251.354 72.0407 251.694 71.9562 252.009C71.8716 252.32 71.7448 252.59 71.5757 252.82C71.4065 253.047 71.1935 253.225 70.9364 253.353C70.6794 253.478 70.3766 253.541 70.0283 253.541C69.7611 253.541 69.5141 253.504 69.2875 253.429C69.0643 253.352 68.8715 253.231 68.7092 253.069C68.5502 252.903 68.425 252.692 68.3337 252.435C68.2458 252.174 68.2018 251.862 68.2018 251.496V247.95H69.663V251.506C69.663 251.669 69.6816 251.806 69.7188 251.917C69.7594 252.029 69.8152 252.12 69.8862 252.191C69.9572 252.262 70.0401 252.313 70.1348 252.344C70.2329 252.374 70.3411 252.389 70.4595 252.389C70.7605 252.389 70.9973 252.328 71.1698 252.207C71.3457 252.085 71.4691 251.919 71.5402 251.709C71.6146 251.496 71.6518 251.26 71.6518 250.999ZM76.7557 247.95V248.985H73.5594V247.95H76.7557ZM74.3508 246.595H75.812V251.786C75.812 251.944 75.8323 252.066 75.8729 252.151C75.9169 252.235 75.9811 252.295 76.0657 252.328C76.1502 252.359 76.2568 252.374 76.3853 252.374C76.4766 252.374 76.5578 252.371 76.6288 252.364C76.7032 252.354 76.7658 252.344 76.8166 252.333L76.8216 253.409C76.6965 253.45 76.5612 253.482 76.4157 253.505C76.2703 253.529 76.1096 253.541 75.9338 253.541C75.6124 253.541 75.3317 253.488 75.0916 253.384C74.8548 253.275 74.6722 253.103 74.5436 252.866C74.4151 252.629 74.3508 252.318 74.3508 251.933V246.595ZM80.2767 247.95V248.985H77.0804V247.95H80.2767ZM77.8718 246.595H79.333V251.786C79.333 251.944 79.3533 252.066 79.3939 252.151C79.4378 252.235 79.5021 252.295 79.5867 252.328C79.6712 252.359 79.7778 252.374 79.9063 252.374C79.9976 252.374 80.0788 252.371 80.1498 252.364C80.2242 252.354 80.2868 252.344 80.3375 252.333L80.3426 253.409C80.2175 253.45 80.0822 253.482 79.9367 253.505C79.7913 253.529 79.6306 253.541 79.4548 253.541C79.1334 253.541 78.8527 253.488 78.6126 253.384C78.3758 253.275 78.1931 253.103 78.0646 252.866C77.9361 252.629 77.8718 252.318 77.8718 251.933V246.595ZM80.7434 250.751V250.644C80.7434 250.241 80.8009 249.871 80.9159 249.533C81.0309 249.191 81.1983 248.895 81.4182 248.645C81.638 248.395 81.9086 248.2 82.2299 248.062C82.5513 247.92 82.9199 247.848 83.3359 247.848C83.752 247.848 84.1223 247.92 84.447 248.062C84.7717 248.2 85.044 248.395 85.2639 248.645C85.4871 248.895 85.6562 249.191 85.7712 249.533C85.8862 249.871 85.9437 250.241 85.9437 250.644V250.751C85.9437 251.15 85.8862 251.52 85.7712 251.862C85.6562 252.2 85.4871 252.496 85.2639 252.749C85.044 253 84.7734 253.194 84.4521 253.333C84.1308 253.472 83.7621 253.541 83.3461 253.541C82.9301 253.541 82.5597 253.472 82.235 253.333C81.9137 253.194 81.6414 253 81.4182 252.749C81.1983 252.496 81.0309 252.2 80.9159 251.862C80.8009 251.52 80.7434 251.15 80.7434 250.751ZM82.2046 250.644V250.751C82.2046 250.981 82.2249 251.195 82.2654 251.395C82.306 251.594 82.3703 251.77 82.4582 251.922C82.5496 252.071 82.6679 252.188 82.8134 252.273C82.9588 252.357 83.1364 252.399 83.3461 252.399C83.549 252.399 83.7232 252.357 83.8687 252.273C84.0141 252.188 84.1308 252.071 84.2187 251.922C84.3067 251.77 84.3709 251.594 84.4115 251.395C84.4555 251.195 84.4775 250.981 84.4775 250.751V250.644C84.4775 250.421 84.4555 250.211 84.4115 250.015C84.3709 249.815 84.305 249.639 84.2137 249.487C84.1257 249.332 84.009 249.21 83.8636 249.122C83.7181 249.034 83.5423 248.99 83.3359 248.99C83.1296 248.99 82.9537 249.034 82.8083 249.122C82.6663 249.21 82.5496 249.332 82.4582 249.487C82.3703 249.639 82.306 249.815 82.2654 250.015C82.2249 250.211 82.2046 250.421 82.2046 250.644ZM88.2724 249.122V253.439H86.8113V247.95H88.1811L88.2724 249.122ZM88.0593 250.502H87.6636C87.6636 250.096 87.716 249.731 87.8209 249.406C87.9257 249.078 88.0729 248.799 88.2623 248.569C88.4517 248.336 88.6766 248.158 88.9371 248.036C89.2009 247.911 89.4951 247.848 89.8198 247.848C90.0769 247.848 90.312 247.886 90.525 247.96C90.7381 248.035 90.9208 248.153 91.073 248.315C91.2286 248.478 91.3469 248.692 91.4281 248.96C91.5127 249.227 91.555 249.553 91.555 249.939V253.439H90.0837V249.934C90.0837 249.69 90.0498 249.501 89.9822 249.365C89.9145 249.23 89.8148 249.135 89.6828 249.081C89.5543 249.024 89.3954 248.995 89.2059 248.995C89.0098 248.995 88.839 249.034 88.6935 249.112C88.5515 249.19 88.4331 249.298 88.3384 249.436C88.2471 249.572 88.1777 249.731 88.1304 249.913C88.083 250.096 88.0593 250.292 88.0593 250.502Z" fill="white"/>
<path d="M128.889 250.084L128.037 249.876L128.388 246.626H131.872V247.532H129.276L129.098 249.117C129.199 249.057 129.338 249 129.515 248.944C129.693 248.884 129.896 248.855 130.123 248.855C130.428 248.855 130.701 248.905 130.94 249.006C131.183 249.103 131.389 249.247 131.557 249.436C131.726 249.623 131.855 249.851 131.944 250.12C132.032 250.386 132.077 250.687 132.077 251.021C132.077 251.32 132.032 251.6 131.944 251.86C131.858 252.121 131.727 252.35 131.553 252.548C131.378 252.747 131.158 252.902 130.891 253.014C130.628 253.124 130.316 253.179 129.955 253.179C129.685 253.179 129.426 253.14 129.178 253.063C128.932 252.983 128.712 252.866 128.516 252.713C128.321 252.556 128.164 252.363 128.046 252.135C127.927 251.905 127.859 251.64 127.842 251.341H128.889C128.916 251.551 128.974 251.73 129.062 251.878C129.154 252.023 129.276 252.134 129.426 252.211C129.577 252.288 129.752 252.326 129.95 252.326C130.131 252.326 130.286 252.295 130.416 252.233C130.547 252.168 130.655 252.076 130.74 251.958C130.829 251.836 130.894 251.694 130.936 251.532C130.98 251.369 131.002 251.188 131.002 250.99C131.002 250.801 130.977 250.628 130.927 250.471C130.88 250.314 130.807 250.178 130.709 250.062C130.615 249.947 130.495 249.858 130.35 249.796C130.205 249.731 130.038 249.698 129.848 249.698C129.594 249.698 129.398 249.735 129.262 249.809C129.129 249.883 129.005 249.975 128.889 250.084ZM136.165 246.586H136.298V247.461H136.223C135.841 247.461 135.511 247.52 135.233 247.638C134.958 247.757 134.731 247.92 134.554 248.127C134.376 248.334 134.243 248.577 134.154 248.855C134.068 249.13 134.026 249.423 134.026 249.734V250.75C134.026 251.008 134.054 251.236 134.11 251.434C134.166 251.629 134.245 251.794 134.345 251.927C134.449 252.057 134.567 252.156 134.7 252.224C134.833 252.292 134.977 252.326 135.131 252.326C135.291 252.326 135.436 252.294 135.566 252.229C135.696 252.161 135.807 252.067 135.899 251.949C135.991 251.831 136.06 251.69 136.108 251.527C136.155 251.364 136.179 251.187 136.179 250.995C136.179 250.811 136.155 250.639 136.108 250.48C136.063 250.317 135.997 250.175 135.908 250.053C135.819 249.929 135.708 249.833 135.575 249.765C135.445 249.694 135.294 249.658 135.122 249.658C134.909 249.658 134.715 249.709 134.54 249.809C134.369 249.91 134.23 250.042 134.123 250.204C134.02 250.364 133.963 250.534 133.955 250.715L133.546 250.582C133.57 250.306 133.63 250.059 133.728 249.84C133.829 249.621 133.96 249.435 134.123 249.281C134.286 249.127 134.474 249.01 134.687 248.93C134.903 248.847 135.14 248.806 135.397 248.806C135.711 248.806 135.983 248.865 136.214 248.984C136.445 249.102 136.636 249.263 136.787 249.467C136.941 249.669 137.055 249.899 137.129 250.16C137.206 250.417 137.244 250.687 137.244 250.968C137.244 251.279 137.197 251.569 137.102 251.838C137.007 252.104 136.868 252.338 136.685 252.539C136.504 252.741 136.284 252.897 136.023 253.01C135.766 253.122 135.473 253.179 135.144 253.179C134.798 253.179 134.489 253.112 134.216 252.979C133.947 252.846 133.718 252.662 133.528 252.428C133.342 252.195 133.2 251.925 133.102 251.62C133.005 251.316 132.956 250.993 132.956 250.653V250.209C132.956 249.717 133.018 249.254 133.142 248.819C133.266 248.381 133.457 247.995 133.715 247.661C133.975 247.326 134.308 247.064 134.714 246.875C135.119 246.682 135.603 246.586 136.165 246.586ZM141.501 249.21V254.937H140.431V248.287H141.417L141.501 249.21ZM144.631 250.644V250.737C144.631 251.086 144.59 251.41 144.507 251.709C144.427 252.005 144.307 252.264 144.147 252.486C143.99 252.705 143.796 252.875 143.566 252.997C143.335 253.118 143.068 253.179 142.766 253.179C142.468 253.179 142.206 253.124 141.981 253.014C141.759 252.902 141.571 252.744 141.417 252.539C141.263 252.335 141.139 252.095 141.044 251.82C140.952 251.542 140.887 251.237 140.849 250.906V250.546C140.887 250.194 140.952 249.874 141.044 249.587C141.139 249.3 141.263 249.053 141.417 248.846C141.571 248.639 141.759 248.479 141.981 248.366C142.203 248.254 142.462 248.198 142.758 248.198C143.059 248.198 143.327 248.257 143.561 248.375C143.795 248.491 143.992 248.656 144.152 248.873C144.311 249.086 144.431 249.343 144.511 249.645C144.591 249.944 144.631 250.277 144.631 250.644ZM143.561 250.737V250.644C143.561 250.422 143.54 250.216 143.499 250.027C143.458 249.834 143.392 249.666 143.304 249.521C143.215 249.376 143.101 249.263 142.962 249.183C142.826 249.1 142.661 249.059 142.469 249.059C142.28 249.059 142.117 249.092 141.981 249.157C141.845 249.219 141.731 249.306 141.639 249.419C141.547 249.531 141.476 249.663 141.426 249.814C141.376 249.962 141.34 250.123 141.319 250.298V251.159C141.355 251.372 141.415 251.567 141.501 251.745C141.587 251.922 141.708 252.064 141.865 252.171C142.025 252.274 142.229 252.326 142.478 252.326C142.67 252.326 142.835 252.285 142.971 252.202C143.107 252.119 143.218 252.005 143.304 251.86C143.392 251.712 143.458 251.542 143.499 251.35C143.54 251.157 143.561 250.953 143.561 250.737ZM146.287 248.287L147.201 249.88L148.134 248.287H149.31L147.854 250.644L149.368 253.09H148.191L147.215 251.43L146.238 253.09H145.057L146.566 250.644L145.115 248.287H146.287Z" fill="white"/>
<path d="M102.276 246.438C100.783 246.438 99.5723 247.665 99.5723 249.178C99.5723 250.517 100.744 251.788 101.544 252.501C101.963 252.874 102.588 252.874 103.007 252.501C103.808 251.788 104.979 250.517 104.979 249.178C104.98 247.665 103.769 246.438 102.276 246.438ZM102.733 249.168C102.733 249.42 102.528 249.625 102.276 249.625C102.024 249.625 101.819 249.42 101.819 249.168V249.114C101.819 248.862 102.024 248.657 102.276 248.657C102.528 248.657 102.733 248.862 102.733 249.114V249.168Z" fill="white"/>
<path d="M107.741 252.024C107.518 251.902 107.244 251.989 107.127 252.212C106.61 253.171 105.834 253.952 104.885 254.464C104.383 254.728 103.86 254.916 103.317 255.017C103.302 255.023 103.287 255.023 103.271 255.028C103.27 255.028 103.269 255.028 103.267 255.029C103.074 254.679 102.705 254.439 102.277 254.439C101.649 254.439 101.141 254.948 101.141 255.576C101.141 256.203 101.649 256.712 102.277 256.712C102.778 256.712 103.198 256.386 103.35 255.937C103.352 255.936 103.355 255.936 103.358 255.936C103.403 255.931 103.449 255.921 103.49 255.91C104.119 255.799 104.728 255.581 105.316 255.266C106.427 254.667 107.33 253.759 107.929 252.638C108.051 252.42 107.964 252.141 107.741 252.024Z" fill="white"/>
<path d="M101.282 244.191C101.283 244.191 101.284 244.191 101.286 244.191C101.479 244.54 101.848 244.78 102.276 244.78C102.904 244.78 103.412 244.271 103.412 243.643C103.412 243.016 102.904 242.507 102.276 242.507C101.775 242.507 101.355 242.833 101.204 243.282C101.201 243.283 101.198 243.283 101.195 243.283C101.15 243.288 101.104 243.298 101.063 243.308C100.739 243.364 100.414 243.456 100.099 243.572C99.7747 243.689 99.4906 243.816 99.2471 243.958C98.1258 244.557 97.2126 245.46 96.619 246.571C96.4973 246.794 96.5835 247.073 96.8017 247.19C96.8727 247.23 96.9488 247.245 97.0198 247.245C97.1822 247.245 97.3394 247.159 97.4206 247.007C97.933 246.053 98.7144 245.277 99.6834 244.759C99.8965 244.638 100.135 244.531 100.414 244.43C100.683 244.328 100.947 244.257 101.236 244.201C101.251 244.196 101.266 244.196 101.282 244.191Z" fill="white"/>
<path d="M99.675 254.466C98.711 253.944 97.9348 253.168 97.4223 252.214C97.1585 251.717 96.9708 251.194 96.8693 250.651C96.8643 250.636 96.8643 250.621 96.8592 250.605C96.8587 250.604 96.8587 250.602 96.8587 250.601C97.2082 250.408 97.4477 250.039 97.4477 249.611C97.4477 248.983 96.9388 248.475 96.3113 248.475C95.6837 248.475 95.1748 248.983 95.1748 249.611C95.1748 250.112 95.501 250.532 95.9505 250.684C95.9505 250.685 95.9505 250.686 95.951 250.687C95.9561 250.732 95.9663 250.783 95.9764 250.829C96.0931 251.453 96.3062 252.067 96.6207 252.65C97.2143 253.756 98.1225 254.664 99.2386 255.268C99.3097 255.309 99.3807 255.324 99.4568 255.324C99.6192 255.324 99.7764 255.238 99.8576 255.085C99.9794 254.862 99.8982 254.588 99.675 254.466Z" fill="white"/>
<path d="M108.607 248.539C108.607 248.537 108.607 248.536 108.607 248.534C108.597 248.488 108.592 248.443 108.581 248.397C108.516 248.062 108.429 247.737 108.318 247.438C107.78 245.941 106.714 244.704 105.304 243.958C105.081 243.836 104.807 243.922 104.69 244.145C104.568 244.369 104.655 244.643 104.878 244.759C106.08 245.404 106.999 246.464 107.46 247.748C107.557 248.006 107.628 248.28 107.683 248.57C107.689 248.585 107.689 248.6 107.694 248.615C107.694 248.617 107.694 248.618 107.694 248.619C107.345 248.813 107.105 249.181 107.105 249.61C107.105 250.237 107.614 250.746 108.242 250.746C108.869 250.746 109.378 250.237 109.378 249.61C109.378 249.111 109.054 248.692 108.607 248.539Z" fill="white"/>
<rect x="189.649" y="171.649" width="75.9802" height="29.8725" rx="0.649403" fill="#E6327D" stroke="#E6327D" stroke-width="1.29881"/>
<line x1="270.502" y1="171" x2="270.502" y2="200.873" stroke="white" stroke-width="0.649403" stroke-dasharray="1.3 1.3"/>
<path d="M279.014 187.438V188.291H274.353L274.317 187.647L277.105 183.279H277.962L277.034 184.868L275.432 187.438H279.014ZM278.206 183.279V189.742H277.136V183.279H278.206ZM283.955 187.98C283.955 188.382 283.862 188.721 283.675 188.996C283.489 189.272 283.234 189.48 282.912 189.622C282.592 189.761 282.231 189.831 281.829 189.831C281.426 189.831 281.064 189.761 280.741 189.622C280.418 189.48 280.164 189.272 279.977 188.996C279.791 188.721 279.698 188.382 279.698 187.98C279.698 187.713 279.75 187.472 279.853 187.256C279.957 187.037 280.103 186.849 280.293 186.692C280.485 186.533 280.71 186.41 280.967 186.324C281.228 186.238 281.512 186.195 281.82 186.195C282.228 186.195 282.594 186.271 282.916 186.422C283.239 186.573 283.492 186.781 283.675 187.048C283.862 187.314 283.955 187.625 283.955 187.98ZM282.881 187.927C282.881 187.71 282.836 187.521 282.748 187.358C282.659 187.196 282.535 187.07 282.375 186.981C282.215 186.892 282.03 186.848 281.82 186.848C281.607 186.848 281.422 186.892 281.265 186.981C281.108 187.07 280.985 187.196 280.896 187.358C280.811 187.521 280.768 187.71 280.768 187.927C280.768 188.146 280.811 188.335 280.896 188.495C280.982 188.652 281.105 188.771 281.265 188.854C281.425 188.937 281.613 188.979 281.829 188.979C282.045 188.979 282.231 188.937 282.388 188.854C282.545 188.771 282.666 188.652 282.752 188.495C282.838 188.335 282.881 188.146 282.881 187.927ZM283.809 184.979C283.809 185.301 283.723 185.589 283.551 185.84C283.382 186.092 283.149 186.29 282.85 186.435C282.551 186.577 282.21 186.648 281.829 186.648C281.444 186.648 281.101 186.577 280.799 186.435C280.5 186.29 280.265 186.092 280.093 185.84C279.924 185.589 279.84 185.301 279.84 184.979C279.84 184.594 279.924 184.27 280.093 184.007C280.265 183.74 280.5 183.538 280.799 183.398C281.098 183.259 281.439 183.19 281.824 183.19C282.209 183.19 282.551 183.259 282.85 183.398C283.149 183.538 283.382 183.74 283.551 184.007C283.723 184.27 283.809 184.594 283.809 184.979ZM282.739 185.014C282.739 184.822 282.7 184.653 282.623 184.508C282.549 184.36 282.444 184.245 282.308 184.162C282.172 184.079 282.011 184.038 281.824 184.038C281.638 184.038 281.476 184.078 281.34 184.158C281.204 184.237 281.099 184.35 281.025 184.495C280.951 184.64 280.914 184.813 280.914 185.014C280.914 185.213 280.951 185.386 281.025 185.534C281.099 185.679 281.204 185.793 281.34 185.876C281.479 185.958 281.642 186 281.829 186C282.015 186 282.176 185.958 282.313 185.876C282.449 185.793 282.554 185.679 282.628 185.534C282.702 185.386 282.739 185.213 282.739 185.014ZM288.297 185.862V191.589H287.227V184.939H288.212L288.297 185.862ZM291.426 187.296V187.389C291.426 187.739 291.385 188.063 291.302 188.362C291.222 188.658 291.102 188.916 290.943 189.138C290.786 189.357 290.592 189.528 290.361 189.649C290.13 189.77 289.864 189.831 289.562 189.831C289.263 189.831 289.001 189.776 288.776 189.667C288.554 189.554 288.366 189.396 288.212 189.192C288.058 188.988 287.934 188.748 287.839 188.473C287.748 188.194 287.683 187.89 287.644 187.558V187.198C287.683 186.846 287.748 186.527 287.839 186.24C287.934 185.953 288.058 185.705 288.212 185.498C288.366 185.291 288.554 185.131 288.776 185.019C288.998 184.906 289.257 184.85 289.553 184.85C289.855 184.85 290.123 184.909 290.357 185.028C290.59 185.143 290.787 185.309 290.947 185.525C291.107 185.738 291.227 185.995 291.307 186.297C291.386 186.596 291.426 186.929 291.426 187.296ZM290.357 187.389V187.296C290.357 187.074 290.336 186.868 290.294 186.679C290.253 186.487 290.188 186.318 290.099 186.173C290.01 186.028 289.896 185.916 289.757 185.836C289.621 185.753 289.457 185.711 289.264 185.711C289.075 185.711 288.912 185.744 288.776 185.809C288.64 185.871 288.526 185.958 288.434 186.071C288.343 186.183 288.272 186.315 288.221 186.466C288.171 186.614 288.135 186.775 288.115 186.95V187.811C288.15 188.024 288.211 188.22 288.297 188.397C288.383 188.575 288.504 188.717 288.661 188.823C288.821 188.927 289.025 188.979 289.273 188.979C289.466 188.979 289.63 188.937 289.766 188.854C289.902 188.771 290.013 188.658 290.099 188.513C290.188 188.365 290.253 188.194 290.294 188.002C290.336 187.81 290.357 187.605 290.357 187.389ZM293.082 184.939L293.997 186.533L294.929 184.939H296.105L294.649 187.296L296.163 189.742H294.987L294.01 188.082L293.033 189.742H291.853L293.362 187.296L291.91 184.939H293.082Z" fill="white"/>
<path d="M210.086 186.851H208.188L208.178 185.806H209.771C210.052 185.806 210.282 185.77 210.461 185.699C210.64 185.625 210.774 185.518 210.862 185.38C210.953 185.237 210.999 185.065 210.999 184.862C210.999 184.632 210.955 184.446 210.867 184.304C210.782 184.162 210.649 184.059 210.466 183.994C210.287 183.93 210.055 183.898 209.771 183.898H208.716V190.093H207.194V182.706H209.771C210.201 182.706 210.584 182.746 210.923 182.828C211.264 182.909 211.554 183.032 211.79 183.198C212.027 183.364 212.208 183.573 212.333 183.827C212.458 184.077 212.521 184.375 212.521 184.72C212.521 185.024 212.452 185.305 212.313 185.562C212.178 185.819 211.963 186.029 211.669 186.191C211.378 186.354 210.997 186.443 210.527 186.46L210.086 186.851ZM210.02 190.093H207.772L208.366 188.906H210.02C210.287 188.906 210.505 188.863 210.674 188.779C210.843 188.691 210.968 188.572 211.05 188.424C211.131 188.275 211.171 188.104 211.171 187.911C211.171 187.695 211.134 187.507 211.06 187.348C210.989 187.189 210.874 187.067 210.715 186.983C210.556 186.895 210.346 186.851 210.086 186.851H208.619L208.63 185.806H210.456L210.806 186.217C211.256 186.21 211.618 186.289 211.892 186.455C212.169 186.617 212.37 186.829 212.495 187.089C212.624 187.35 212.688 187.629 212.688 187.926C212.688 188.4 212.585 188.799 212.379 189.124C212.172 189.445 211.87 189.687 211.471 189.849C211.075 190.012 210.591 190.093 210.02 190.093ZM216.986 188.779V184.603H218.447V190.093H217.072L216.986 188.779ZM217.148 187.652L217.579 187.642C217.579 188.008 217.537 188.348 217.452 188.662C217.368 188.973 217.241 189.244 217.072 189.474C216.903 189.7 216.69 189.878 216.433 190.007C216.175 190.132 215.873 190.194 215.524 190.194C215.257 190.194 215.01 190.157 214.784 190.083C214.56 190.005 214.368 189.885 214.205 189.722C214.046 189.557 213.921 189.345 213.83 189.088C213.742 188.828 213.698 188.515 213.698 188.15V184.603H215.159V188.16C215.159 188.322 215.178 188.459 215.215 188.571C215.255 188.682 215.311 188.774 215.382 188.845C215.453 188.916 215.536 188.966 215.631 188.997C215.729 189.027 215.837 189.043 215.956 189.043C216.257 189.043 216.493 188.982 216.666 188.86C216.842 188.738 216.965 188.572 217.036 188.363C217.111 188.15 217.148 187.913 217.148 187.652ZM222.252 184.603V185.638H219.055V184.603H222.252ZM219.847 183.249H221.308V188.439C221.308 188.598 221.328 188.72 221.369 188.804C221.413 188.889 221.477 188.948 221.562 188.982C221.646 189.012 221.753 189.027 221.881 189.027C221.973 189.027 222.054 189.024 222.125 189.017C222.199 189.007 222.262 188.997 222.313 188.987L222.318 190.062C222.193 190.103 222.057 190.135 221.912 190.159C221.766 190.182 221.606 190.194 221.43 190.194C221.109 190.194 220.828 190.142 220.588 190.037C220.351 189.929 220.168 189.756 220.04 189.519C219.911 189.283 219.847 188.972 219.847 188.586V183.249ZM225.773 184.603V185.638H222.576V184.603H225.773ZM223.368 183.249H224.829V188.439C224.829 188.598 224.849 188.72 224.89 188.804C224.934 188.889 224.998 188.948 225.083 188.982C225.167 189.012 225.274 189.027 225.402 189.027C225.494 189.027 225.575 189.024 225.646 189.017C225.72 189.007 225.783 188.997 225.834 188.987L225.839 190.062C225.714 190.103 225.578 190.135 225.433 190.159C225.287 190.182 225.127 190.194 224.951 190.194C224.63 190.194 224.349 190.142 224.109 190.037C223.872 189.929 223.689 189.756 223.561 189.519C223.432 189.283 223.368 188.972 223.368 188.586V183.249ZM226.24 187.404V187.297C226.24 186.895 226.297 186.524 226.412 186.186C226.527 185.845 226.694 185.549 226.914 185.298C227.134 185.048 227.405 184.854 227.726 184.715C228.047 184.573 228.416 184.502 228.832 184.502C229.248 184.502 229.618 184.573 229.943 184.715C230.268 184.854 230.54 185.048 230.76 185.298C230.983 185.549 231.152 185.845 231.267 186.186C231.382 186.524 231.44 186.895 231.44 187.297V187.404C231.44 187.803 231.382 188.173 231.267 188.515C231.152 188.853 230.983 189.149 230.76 189.403C230.54 189.653 230.27 189.848 229.948 189.986C229.627 190.125 229.258 190.194 228.842 190.194C228.426 190.194 228.056 190.125 227.731 189.986C227.41 189.848 227.138 189.653 226.914 189.403C226.694 189.149 226.527 188.853 226.412 188.515C226.297 188.173 226.24 187.803 226.24 187.404ZM227.701 187.297V187.404C227.701 187.634 227.721 187.849 227.762 188.048C227.802 188.248 227.866 188.424 227.954 188.576C228.046 188.725 228.164 188.841 228.309 188.926C228.455 189.01 228.632 189.053 228.842 189.053C229.045 189.053 229.219 189.01 229.365 188.926C229.51 188.841 229.627 188.725 229.715 188.576C229.803 188.424 229.867 188.248 229.908 188.048C229.952 187.849 229.974 187.634 229.974 187.404V187.297C229.974 187.074 229.952 186.864 229.908 186.668C229.867 186.469 229.801 186.293 229.71 186.141C229.622 185.985 229.505 185.863 229.36 185.775C229.214 185.687 229.038 185.643 228.832 185.643C228.626 185.643 228.45 185.687 228.304 185.775C228.162 185.863 228.046 185.985 227.954 186.141C227.866 186.293 227.802 186.469 227.762 186.668C227.721 186.864 227.701 187.074 227.701 187.297ZM233.769 185.775V190.093H232.307V184.603H233.677L233.769 185.775ZM233.555 187.155H233.16C233.16 186.749 233.212 186.384 233.317 186.059C233.422 185.731 233.569 185.452 233.758 185.222C233.948 184.989 234.173 184.811 234.433 184.69C234.697 184.564 234.991 184.502 235.316 184.502C235.573 184.502 235.808 184.539 236.021 184.613C236.234 184.688 236.417 184.806 236.569 184.969C236.725 185.131 236.843 185.346 236.924 185.613C237.009 185.88 237.051 186.207 237.051 186.592V190.093H235.58V186.587C235.58 186.343 235.546 186.154 235.478 186.019C235.411 185.883 235.311 185.789 235.179 185.735C235.05 185.677 234.891 185.648 234.702 185.648C234.506 185.648 234.335 185.687 234.19 185.765C234.048 185.843 233.929 185.951 233.834 186.09C233.743 186.225 233.674 186.384 233.626 186.567C233.579 186.749 233.555 186.946 233.555 187.155Z" fill="white"/>
<path d="M247.447 183.796C246.133 183.796 245.068 184.875 245.068 186.206C245.068 187.385 246.099 188.504 246.803 189.131C247.172 189.459 247.722 189.459 248.09 189.131C248.795 188.504 249.826 187.385 249.826 186.206C249.826 184.875 248.761 183.796 247.447 183.796ZM247.849 186.198C247.849 186.42 247.669 186.6 247.447 186.6C247.225 186.6 247.045 186.42 247.045 186.198V186.15C247.045 185.928 247.225 185.748 247.447 185.748C247.669 185.748 247.849 185.928 247.849 186.15V186.198Z" fill="white"/>
<path d="M252.255 188.712C252.059 188.605 251.818 188.681 251.715 188.877C251.26 189.721 250.577 190.408 249.742 190.859C249.3 191.091 248.84 191.257 248.362 191.346C248.349 191.35 248.335 191.35 248.322 191.355C248.321 191.355 248.32 191.355 248.318 191.356C248.148 191.048 247.824 190.837 247.447 190.837C246.895 190.837 246.447 191.285 246.447 191.837C246.447 192.389 246.895 192.837 247.447 192.837C247.888 192.837 248.257 192.551 248.391 192.155C248.393 192.155 248.396 192.155 248.398 192.154C248.438 192.15 248.478 192.141 248.514 192.132C249.068 192.034 249.603 191.842 250.121 191.565C251.099 191.038 251.894 190.239 252.42 189.252C252.528 189.06 252.452 188.815 252.255 188.712Z" fill="white"/>
<path d="M246.573 181.818C246.575 181.818 246.576 181.818 246.577 181.818C246.747 182.125 247.072 182.336 247.448 182.336C248.001 182.336 248.448 181.888 248.448 181.336C248.448 180.784 248.001 180.336 247.448 180.336C247.008 180.336 246.638 180.623 246.505 181.018C246.502 181.019 246.5 181.019 246.497 181.019C246.457 181.023 246.417 181.032 246.381 181.041C246.096 181.09 245.81 181.171 245.533 181.274C245.247 181.376 244.997 181.488 244.783 181.613C243.796 182.14 242.993 182.934 242.47 183.912C242.363 184.109 242.439 184.354 242.631 184.457C242.693 184.493 242.76 184.506 242.823 184.506C242.966 184.506 243.104 184.43 243.176 184.296C243.627 183.457 244.314 182.774 245.167 182.318C245.354 182.211 245.564 182.117 245.81 182.028C246.046 181.939 246.279 181.876 246.533 181.827C246.546 181.823 246.56 181.823 246.573 181.818Z" fill="white"/>
<path d="M245.158 190.86C244.31 190.4 243.627 189.717 243.176 188.877C242.944 188.44 242.779 187.98 242.689 187.502C242.685 187.489 242.685 187.475 242.681 187.462C242.68 187.461 242.68 187.459 242.68 187.458C242.988 187.288 243.198 186.964 243.198 186.587C243.198 186.035 242.751 185.587 242.198 185.587C241.646 185.587 241.198 186.035 241.198 186.587C241.198 187.028 241.485 187.398 241.881 187.531C241.881 187.532 241.881 187.533 241.881 187.533C241.886 187.574 241.895 187.618 241.904 187.659C242.006 188.208 242.194 188.748 242.471 189.261C242.993 190.235 243.792 191.034 244.774 191.565C244.837 191.601 244.899 191.614 244.966 191.614C245.109 191.614 245.248 191.538 245.319 191.404C245.426 191.208 245.355 190.967 245.158 190.86Z" fill="white"/>
<path d="M253.02 185.643C253.019 185.642 253.019 185.641 253.019 185.639C253.01 185.599 253.006 185.559 252.997 185.519C252.939 185.224 252.863 184.938 252.765 184.675C252.292 183.358 251.354 182.269 250.113 181.612C249.916 181.505 249.675 181.581 249.573 181.777C249.466 181.974 249.541 182.215 249.738 182.318C250.796 182.885 251.604 183.818 252.01 184.947C252.095 185.175 252.158 185.416 252.207 185.671C252.211 185.684 252.211 185.697 252.216 185.711C252.216 185.712 252.216 185.713 252.216 185.714C251.909 185.885 251.698 186.209 251.698 186.586C251.698 187.138 252.146 187.586 252.698 187.586C253.25 187.586 253.698 187.138 253.698 186.586C253.698 186.147 253.413 185.778 253.02 185.643Z" fill="white"/>
<path d="M120.478 181.918H121.117C121.366 181.918 121.572 181.875 121.734 181.789C121.9 181.704 122.023 181.585 122.103 181.434C122.183 181.283 122.223 181.11 122.223 180.915C122.223 180.711 122.186 180.536 122.112 180.391C122.041 180.243 121.931 180.129 121.783 180.049C121.638 179.969 121.453 179.929 121.228 179.929C121.039 179.929 120.867 179.968 120.713 180.045C120.562 180.119 120.443 180.225 120.354 180.364C120.265 180.501 120.221 180.663 120.221 180.853H119.146C119.146 180.509 119.237 180.205 119.417 179.938C119.598 179.672 119.843 179.463 120.154 179.312C120.468 179.158 120.82 179.081 121.211 179.081C121.628 179.081 121.992 179.151 122.303 179.29C122.616 179.426 122.86 179.63 123.035 179.903C123.21 180.175 123.297 180.512 123.297 180.915C123.297 181.098 123.254 181.285 123.168 181.474C123.082 181.664 122.955 181.837 122.786 181.994C122.618 182.147 122.408 182.273 122.156 182.371C121.905 182.466 121.613 182.513 121.282 182.513H120.478V181.918ZM120.478 182.753V182.167H121.282C121.66 182.167 121.983 182.211 122.249 182.3C122.519 182.389 122.738 182.511 122.906 182.668C123.075 182.822 123.198 182.998 123.275 183.197C123.355 183.395 123.395 183.605 123.395 183.827C123.395 184.129 123.34 184.398 123.23 184.635C123.124 184.869 122.971 185.067 122.773 185.23C122.575 185.393 122.343 185.515 122.076 185.598C121.813 185.681 121.526 185.723 121.215 185.723C120.937 185.723 120.67 185.684 120.416 185.607C120.161 185.53 119.933 185.416 119.732 185.265C119.531 185.111 119.371 184.921 119.253 184.693C119.137 184.462 119.08 184.195 119.08 183.894H120.15C120.15 184.086 120.194 184.256 120.283 184.404C120.374 184.549 120.502 184.663 120.664 184.746C120.83 184.829 121.02 184.87 121.233 184.87C121.458 184.87 121.651 184.83 121.814 184.75C121.977 184.67 122.101 184.552 122.187 184.395C122.276 184.238 122.32 184.049 122.32 183.827C122.32 183.575 122.272 183.371 122.174 183.214C122.076 183.058 121.937 182.942 121.757 182.868C121.576 182.791 121.363 182.753 121.117 182.753H120.478ZM128.722 184.781V185.634H124.389V184.901L126.493 182.606C126.724 182.346 126.906 182.121 127.039 181.931C127.172 181.742 127.266 181.572 127.319 181.421C127.375 181.267 127.403 181.118 127.403 180.973C127.403 180.768 127.365 180.589 127.288 180.435C127.214 180.279 127.104 180.156 126.959 180.067C126.814 179.975 126.638 179.929 126.431 179.929C126.191 179.929 125.99 179.981 125.827 180.085C125.665 180.188 125.542 180.332 125.459 180.515C125.376 180.696 125.335 180.903 125.335 181.137H124.265C124.265 180.761 124.351 180.418 124.522 180.107C124.694 179.793 124.942 179.545 125.268 179.361C125.594 179.175 125.986 179.081 126.444 179.081C126.877 179.081 127.243 179.154 127.545 179.299C127.847 179.444 128.077 179.65 128.233 179.916C128.393 180.182 128.473 180.498 128.473 180.862C128.473 181.063 128.441 181.263 128.376 181.461C128.31 181.659 128.217 181.857 128.096 182.056C127.977 182.251 127.837 182.448 127.674 182.646C127.511 182.841 127.332 183.04 127.137 183.241L125.739 184.781H128.722ZM132.957 181.754V187.481H131.887V180.83H132.873L132.957 181.754ZM136.087 183.188V183.281C136.087 183.63 136.045 183.954 135.962 184.253C135.882 184.549 135.762 184.808 135.603 185.03C135.446 185.249 135.252 185.419 135.021 185.541C134.79 185.662 134.524 185.723 134.222 185.723C133.923 185.723 133.661 185.668 133.436 185.558C133.214 185.446 133.026 185.288 132.873 185.083C132.719 184.879 132.594 184.639 132.5 184.364C132.408 184.086 132.343 183.781 132.304 183.45V183.09C132.343 182.738 132.408 182.418 132.5 182.131C132.594 181.844 132.719 181.597 132.873 181.39C133.026 181.183 133.214 181.023 133.436 180.91C133.658 180.798 133.917 180.742 134.213 180.742C134.515 180.742 134.783 180.801 135.017 180.919C135.25 181.035 135.447 181.2 135.607 181.416C135.767 181.63 135.887 181.887 135.967 182.189C136.047 182.488 136.087 182.821 136.087 183.188ZM135.017 183.281V183.188C135.017 182.966 134.996 182.76 134.955 182.571C134.913 182.378 134.848 182.21 134.759 182.065C134.67 181.92 134.556 181.807 134.417 181.727C134.281 181.644 134.117 181.603 133.925 181.603C133.735 181.603 133.572 181.635 133.436 181.701C133.3 181.763 133.186 181.85 133.094 181.963C133.003 182.075 132.932 182.207 132.881 182.358C132.831 182.506 132.796 182.667 132.775 182.841V183.703C132.81 183.916 132.871 184.111 132.957 184.289C133.043 184.466 133.164 184.608 133.321 184.715C133.481 184.818 133.685 184.87 133.933 184.87C134.126 184.87 134.29 184.829 134.426 184.746C134.562 184.663 134.673 184.549 134.759 184.404C134.848 184.256 134.913 184.086 134.955 183.894C134.996 183.701 135.017 183.497 135.017 183.281ZM137.742 180.83L138.657 182.424L139.589 180.83H140.766L139.309 183.188L140.823 185.634H139.647L138.67 183.973L137.694 185.634H136.513L138.022 183.188L136.57 180.83H137.742Z" fill="white"/>
<rect x="46.6494" y="172.087" width="63.6415" height="19.4821" rx="0.649403" fill="#E6327D" stroke="#E6327D" stroke-width="1.29881"/>
<path d="M63.3941 182.797H61.7338L61.7249 181.883H63.1189C63.3645 181.883 63.5658 181.852 63.7226 181.789C63.8795 181.724 63.9964 181.631 64.0733 181.51C64.1532 181.385 64.1932 181.234 64.1932 181.057C64.1932 180.856 64.1547 180.693 64.0778 180.569C64.0038 180.444 63.8869 180.354 63.7271 180.298C63.5702 180.242 63.3675 180.213 63.1189 180.213H62.1955V185.634H60.8637V179.17H63.1189C63.4947 179.17 63.8306 179.206 64.1266 179.277C64.4255 179.348 64.6785 179.456 64.8857 179.601C65.0929 179.746 65.2512 179.929 65.3607 180.151C65.4702 180.37 65.525 180.631 65.525 180.933C65.525 181.199 65.4643 181.445 65.343 181.67C65.2246 181.894 65.0366 182.078 64.7792 182.22C64.5247 182.362 64.1917 182.44 63.7803 182.455L63.3941 182.797ZM63.3364 185.634H61.3698L61.8892 184.595H63.3364C63.5702 184.595 63.7611 184.558 63.9091 184.484C64.057 184.407 64.1666 184.303 64.2376 184.173C64.3086 184.043 64.3441 183.894 64.3441 183.725C64.3441 183.535 64.3116 183.371 64.2465 183.232C64.1843 183.093 64.0837 182.986 63.9446 182.913C63.8055 182.836 63.622 182.797 63.3941 182.797H62.1112L62.12 181.883H63.7182L64.0245 182.242C64.4181 182.236 64.7348 182.306 64.9745 182.451C65.2172 182.593 65.3933 182.778 65.5028 183.006C65.6152 183.234 65.6715 183.478 65.6715 183.738C65.6715 184.153 65.5812 184.502 65.4007 184.786C65.2201 185.067 64.9553 185.279 64.606 185.421C64.2598 185.563 63.8366 185.634 63.3364 185.634ZM69.4315 184.484V180.83H70.71V185.634H69.507L69.4315 184.484ZM69.5736 183.498L69.9509 183.49C69.9509 183.809 69.9139 184.107 69.8399 184.382C69.766 184.654 69.655 184.891 69.507 185.092C69.359 185.29 69.1726 185.446 68.9477 185.558C68.7227 185.668 68.4579 185.723 68.153 185.723C67.9192 185.723 67.7032 185.69 67.5049 185.625C67.3096 185.557 67.1409 185.452 66.9988 185.31C66.8597 185.165 66.7502 184.98 66.6703 184.755C66.5934 184.527 66.5549 184.253 66.5549 183.934V180.83H67.8334V183.942C67.8334 184.084 67.8497 184.204 67.8822 184.302C67.9177 184.4 67.9666 184.48 68.0287 184.542C68.0909 184.604 68.1634 184.648 68.2462 184.675C68.3321 184.702 68.4268 184.715 68.5304 184.715C68.7938 184.715 69.0009 184.662 69.1519 184.555C69.3058 184.449 69.4138 184.303 69.4759 184.12C69.541 183.934 69.5736 183.726 69.5736 183.498ZM74.0395 180.83V181.736H71.2428V180.83H74.0395ZM71.9353 179.645H73.2138V184.187C73.2138 184.326 73.2316 184.432 73.2671 184.506C73.3055 184.58 73.3618 184.632 73.4358 184.662C73.5098 184.688 73.603 184.702 73.7154 184.702C73.7953 184.702 73.8664 184.699 73.9285 184.693C73.9936 184.684 74.0484 184.675 74.0928 184.666L74.0972 185.607C73.9877 185.643 73.8693 185.671 73.7421 185.691C73.6148 185.712 73.4742 185.723 73.3203 185.723C73.0392 185.723 72.7935 185.677 72.5834 185.585C72.3763 185.49 72.2164 185.339 72.104 185.132C71.9915 184.925 71.9353 184.653 71.9353 184.315V179.645ZM77.1204 180.83V181.736H74.3236V180.83H77.1204ZM75.0161 179.645H76.2947V184.187C76.2947 184.326 76.3124 184.432 76.3479 184.506C76.3864 184.58 76.4426 184.632 76.5166 184.662C76.5906 184.688 76.6838 184.702 76.7963 184.702C76.8762 184.702 76.9472 184.699 77.0094 184.693C77.0745 184.684 77.1292 184.675 77.1736 184.666L77.1781 185.607C77.0686 185.643 76.9502 185.671 76.8229 185.691C76.6957 185.712 76.5551 185.723 76.4012 185.723C76.12 185.723 75.8744 185.677 75.6643 185.585C75.4571 185.49 75.2973 185.339 75.1848 185.132C75.0724 184.925 75.0161 184.653 75.0161 184.315V179.645ZM77.5288 183.281V183.188C77.5288 182.836 77.5791 182.511 77.6797 182.216C77.7803 181.917 77.9268 181.658 78.1192 181.439C78.3116 181.22 78.5483 181.049 78.8295 180.928C79.1106 180.804 79.4332 180.742 79.7973 180.742C80.1613 180.742 80.4853 180.804 80.7695 180.928C81.0536 181.049 81.2918 181.22 81.4842 181.439C81.6795 181.658 81.8275 181.917 81.9281 182.216C82.0287 182.511 82.079 182.836 82.079 183.188V183.281C82.079 183.63 82.0287 183.954 81.9281 184.253C81.8275 184.549 81.6795 184.808 81.4842 185.03C81.2918 185.249 81.055 185.419 80.7739 185.541C80.4927 185.662 80.1702 185.723 79.8061 185.723C79.4421 185.723 79.118 185.662 78.8339 185.541C78.5528 185.419 78.3145 185.249 78.1192 185.03C77.9268 184.808 77.7803 184.549 77.6797 184.253C77.5791 183.954 77.5288 183.63 77.5288 183.281ZM78.8073 183.188V183.281C78.8073 183.482 78.8251 183.67 78.8606 183.845C78.8961 184.019 78.9523 184.173 79.0293 184.306C79.1092 184.437 79.2127 184.539 79.34 184.613C79.4673 184.687 79.6226 184.724 79.8061 184.724C79.9837 184.724 80.1361 184.687 80.2634 184.613C80.3906 184.539 80.4927 184.437 80.5697 184.306C80.6466 184.173 80.7029 184.019 80.7384 183.845C80.7769 183.67 80.7961 183.482 80.7961 183.281V183.188C80.7961 182.992 80.7769 182.809 80.7384 182.637C80.7029 182.463 80.6452 182.309 80.5652 182.176C80.4883 182.039 80.3862 181.933 80.2589 181.856C80.1317 181.779 79.9778 181.741 79.7973 181.741C79.6167 181.741 79.4628 181.779 79.3356 181.856C79.2113 181.933 79.1092 182.039 79.0293 182.176C78.9523 182.309 78.8961 182.463 78.8606 182.637C78.8251 182.809 78.8073 182.992 78.8073 183.188ZM84.1167 181.856V185.634H82.8382V180.83H84.0368L84.1167 181.856ZM83.9302 183.063H83.584C83.584 182.708 83.6298 182.389 83.7216 182.105C83.8133 181.817 83.9421 181.573 84.1078 181.372C84.2735 181.168 84.4703 181.012 84.6982 180.906C84.9291 180.796 85.1865 180.742 85.4707 180.742C85.6956 180.742 85.9013 180.774 86.0877 180.839C86.2742 180.904 86.434 181.008 86.5672 181.15C86.7033 181.292 86.8069 181.48 86.8779 181.714C86.9519 181.948 86.9889 182.233 86.9889 182.571V185.634H85.7015V182.566C85.7015 182.353 85.6719 182.187 85.6127 182.069C85.5535 181.951 85.4662 181.868 85.3508 181.82C85.2383 181.77 85.0992 181.745 84.9335 181.745C84.7618 181.745 84.6124 181.779 84.4851 181.847C84.3608 181.915 84.2572 182.01 84.1744 182.131C84.0945 182.25 84.0338 182.389 83.9924 182.548C83.9509 182.708 83.9302 182.88 83.9302 183.063Z" fill="white"/>
<path d="M96.0033 179.292C94.8088 179.292 93.8403 180.273 93.8403 181.483C93.8403 182.555 94.7775 183.572 95.418 184.142C95.7528 184.44 96.2533 184.44 96.5881 184.142C97.2286 183.572 98.1658 182.555 98.1658 181.483C98.1662 180.273 97.1977 179.292 96.0033 179.292ZM96.3685 181.476C96.3685 181.677 96.205 181.841 96.0033 181.841C95.8015 181.841 95.638 181.677 95.638 181.476V181.432C95.638 181.23 95.8015 181.067 96.0033 181.067C96.205 181.067 96.3685 181.23 96.3685 181.432V181.476Z" fill="white"/>
<path d="M100.376 183.761C100.198 183.664 99.9784 183.733 99.8851 183.911C99.4711 184.678 98.8501 185.303 98.0911 185.713C97.6893 185.924 97.2712 186.075 96.8369 186.156C96.8247 186.16 96.8126 186.16 96.8004 186.164C96.7992 186.164 96.7984 186.164 96.7971 186.165C96.6421 185.885 96.3474 185.693 96.0049 185.693C95.5028 185.693 95.0957 186.1 95.0957 186.602C95.0957 187.104 95.5028 187.511 96.0049 187.511C96.4055 187.511 96.7415 187.251 96.8629 186.891C96.8649 186.891 96.8674 186.891 96.8694 186.89C96.9059 186.886 96.9424 186.878 96.9749 186.87C97.4782 186.781 97.9653 186.606 98.4361 186.355C99.3249 185.876 100.047 185.149 100.526 184.252C100.624 184.078 100.555 183.854 100.376 183.761Z" fill="white"/>
<path d="M95.209 177.493C95.2102 177.493 95.211 177.493 95.2123 177.493C95.3673 177.772 95.662 177.964 96.0045 177.964C96.5066 177.964 96.9137 177.557 96.9137 177.055C96.9137 176.553 96.5066 176.146 96.0045 176.146C95.6039 176.146 95.2679 176.406 95.1469 176.766C95.1445 176.766 95.1424 176.766 95.14 176.766C95.1035 176.771 95.067 176.779 95.0345 176.787C94.7747 176.831 94.515 176.904 94.2633 176.998C94.0036 177.091 93.7763 177.193 93.5814 177.306C92.6845 177.785 91.9539 178.508 91.479 179.397C91.3816 179.575 91.4506 179.798 91.6251 179.892C91.6819 179.924 91.7428 179.936 91.7996 179.936C91.9295 179.936 92.0553 179.867 92.1203 179.746C92.5302 178.983 93.1553 178.362 93.9305 177.948C94.101 177.85 94.2917 177.765 94.515 177.684C94.7301 177.603 94.9411 177.546 95.1725 177.501C95.1847 177.497 95.1968 177.497 95.209 177.493Z" fill="white"/>
<path d="M93.9214 185.714C93.1503 185.296 92.5293 184.675 92.1193 183.912C91.9083 183.514 91.7581 183.096 91.6769 182.662C91.6729 182.65 91.6729 182.638 91.6688 182.626C91.6684 182.624 91.6684 182.623 91.6684 182.622C91.948 182.467 92.1396 182.173 92.1396 181.83C92.1396 181.328 91.7325 180.921 91.2305 180.921C90.7284 180.921 90.3213 181.328 90.3213 181.83C90.3213 182.231 90.5823 182.567 90.9419 182.688C90.9419 182.689 90.9419 182.69 90.9423 182.691C90.9463 182.727 90.9545 182.768 90.9626 182.804C91.0559 183.303 91.2264 183.795 91.478 184.261C91.9529 185.146 92.6794 185.873 93.5724 186.356C93.6292 186.388 93.686 186.4 93.7469 186.4C93.8768 186.4 94.0026 186.331 94.0675 186.209C94.1649 186.031 94.1 185.812 93.9214 185.714Z" fill="white"/>
<path d="M101.07 180.973C101.07 180.971 101.07 180.97 101.07 180.969C101.062 180.932 101.058 180.896 101.049 180.859C100.997 180.592 100.928 180.332 100.838 180.092C100.408 178.895 99.5558 177.905 98.4275 177.308C98.2489 177.211 98.0298 177.28 97.9364 177.458C97.839 177.637 97.908 177.856 98.0866 177.949C99.0485 178.465 99.7831 179.313 100.152 180.34C100.23 180.547 100.286 180.766 100.331 180.997C100.335 181.01 100.335 181.022 100.339 181.034C100.34 181.035 100.34 181.036 100.34 181.037C100.06 181.192 99.8684 181.487 99.8684 181.829C99.8684 182.332 100.275 182.739 100.778 182.739C101.28 182.739 101.687 182.332 101.687 181.829C101.687 181.43 101.428 181.095 101.07 180.973Z" fill="white"/>
<line x1="115.162" y1="171" x2="115.162" y2="191.781" stroke="white" stroke-width="0.649403" stroke-dasharray="1.3 1.3"/>
<line x1="179.978" y1="37" x2="179.978" y2="132" stroke="white" stroke-width="0.87963" stroke-dasharray="1.76 1.76"/>
<line x1="154.469" y1="37" x2="154.469" y2="132" stroke="white" stroke-width="0.87963" stroke-dasharray="1.76 1.76"/>
<line x1="145.671" y1="37" x2="145.671" y2="132" stroke="white" stroke-width="0.87963" stroke-dasharray="1.76 1.76"/>
<line x1="222.639" y1="116.605" x2="29.9998" y2="116.605" stroke="white" stroke-width="0.87963" stroke-dasharray="1.76 1.76"/>
<line x1="222.639" y1="53.2728" x2="29.9998" y2="53.2728" stroke="white" stroke-width="0.87963" stroke-dasharray="1.76 1.76"/>
<line x1="82.3383" y1="37" x2="82.3382" y2="132" stroke="white" stroke-width="0.87963" stroke-dasharray="1.76 1.76"/>
<path d="M88.5349 85.4428H84.519L84.4976 83.2309H87.8692C88.4633 83.2309 88.9501 83.1557 89.3295 83.0054C89.7089 82.8479 89.9917 82.6224 90.1778 82.3289C90.3711 82.0283 90.4677 81.6632 90.4677 81.2337C90.4677 80.7469 90.3746 80.3532 90.1885 80.0525C90.0096 79.7519 89.7268 79.5335 89.3402 79.3975C88.9608 79.2615 88.4705 79.1935 87.8692 79.1935H85.6358V92.3042H82.4145V76.6702H87.8692C88.7783 76.6702 89.5908 76.7561 90.3066 76.9279C91.0296 77.0997 91.6417 77.3609 92.1428 77.7117C92.6439 78.0625 93.0268 78.5063 93.2917 79.0432C93.5566 79.5729 93.689 80.2028 93.689 80.933C93.689 81.5773 93.5423 82.1714 93.2488 82.7155C92.9624 83.2595 92.5079 83.7033 91.8851 84.0469C91.2694 84.3905 90.4641 84.5802 89.4691 84.616L88.5349 85.4428ZM88.3953 92.3042H83.6385L84.8949 89.7916H88.3953C88.9608 89.7916 89.4226 89.7021 89.7805 89.5231C90.1384 89.337 90.4033 89.0865 90.5751 88.7715C90.7469 88.4565 90.8328 88.095 90.8328 87.687C90.8328 87.2289 90.754 86.8316 90.5966 86.4951C90.4462 86.1587 90.2028 85.901 89.8664 85.722C89.5299 85.5359 89.0861 85.4428 88.5349 85.4428H85.4317L85.4532 83.2309H89.3188L90.0597 84.1006C91.0117 84.0863 91.7777 84.2545 92.3575 84.6053C92.9445 84.9489 93.3705 85.3963 93.6353 85.9475C93.9073 86.4987 94.0433 87.0893 94.0433 87.7192C94.0433 88.7214 93.825 89.5661 93.3883 90.2533C92.9517 90.9334 92.311 91.4452 91.4663 91.7888C90.6288 92.1324 89.6051 92.3042 88.3953 92.3042ZM103.138 89.5231V80.686H106.231V92.3042H103.321L103.138 89.5231ZM103.482 87.1394L104.394 87.1179C104.394 87.891 104.305 88.6104 104.126 89.2762C103.947 89.9348 103.679 90.5074 103.321 90.9942C102.963 91.4738 102.512 91.8496 101.968 92.1217C101.424 92.3865 100.783 92.519 100.046 92.519C99.4802 92.519 98.9576 92.4402 98.478 92.2827C98.0055 92.1181 97.5975 91.864 97.2539 91.5203C96.9175 91.1696 96.6526 90.7222 96.4593 90.1781C96.2732 89.6269 96.1801 88.9648 96.1801 88.1917V80.686H99.2726V88.2131C99.2726 88.5568 99.312 88.8467 99.3907 89.0829C99.4766 89.3191 99.5947 89.5124 99.745 89.6627C99.8954 89.8131 100.071 89.9204 100.271 89.9849C100.479 90.0493 100.708 90.0815 100.958 90.0815C101.596 90.0815 102.097 89.9527 102.462 89.6949C102.834 89.4372 103.095 89.0865 103.246 88.6427C103.403 88.1917 103.482 87.6906 103.482 87.1394ZM114.284 80.686V82.8765H107.519V80.686H114.284ZM109.194 77.8191H112.287V88.8037C112.287 89.1402 112.33 89.3979 112.415 89.5768C112.509 89.7558 112.645 89.8811 112.824 89.9527C113.002 90.0171 113.228 90.0493 113.5 90.0493C113.693 90.0493 113.865 90.0421 114.015 90.0278C114.173 90.0063 114.305 89.9849 114.413 89.9634L114.423 92.2398C114.159 92.3257 113.872 92.3937 113.564 92.4438C113.257 92.4939 112.917 92.519 112.544 92.519C111.864 92.519 111.27 92.408 110.762 92.1861C110.261 91.957 109.874 91.5919 109.602 91.0908C109.33 90.5898 109.194 89.9312 109.194 89.1151V77.8191ZM121.736 80.686V82.8765H114.971V80.686H121.736ZM116.646 77.8191H119.739V88.8037C119.739 89.1402 119.782 89.3979 119.867 89.5768C119.96 89.7558 120.097 89.8811 120.275 89.9527C120.454 90.0171 120.68 90.0493 120.952 90.0493C121.145 90.0493 121.317 90.0421 121.467 90.0278C121.625 90.0063 121.757 89.9849 121.865 89.9634L121.875 92.2398C121.611 92.3257 121.324 92.3937 121.016 92.4438C120.709 92.4939 120.369 92.519 119.996 92.519C119.316 92.519 118.722 92.408 118.214 92.1861C117.713 91.957 117.326 91.5919 117.054 91.0908C116.782 90.5898 116.646 89.9312 116.646 89.1151V77.8191ZM122.724 86.6132V86.3877C122.724 85.5359 122.845 84.752 123.089 84.0362C123.332 83.3132 123.686 82.6868 124.152 82.1571C124.617 81.6274 125.19 81.2158 125.87 80.9223C126.55 80.6216 127.33 80.4713 128.211 80.4713C129.091 80.4713 129.875 80.6216 130.562 80.9223C131.249 81.2158 131.826 81.6274 132.291 82.1571C132.763 82.6868 133.121 83.3132 133.365 84.0362C133.608 84.752 133.73 85.5359 133.73 86.3877V86.6132C133.73 87.4579 133.608 88.2418 133.365 88.9648C133.121 89.6806 132.763 90.307 132.291 90.8439C131.826 91.3736 131.253 91.7852 130.573 92.0787C129.893 92.3722 129.113 92.519 128.232 92.519C127.352 92.519 126.568 92.3722 125.881 92.0787C125.2 91.7852 124.624 91.3736 124.152 90.8439C123.686 90.307 123.332 89.6806 123.089 88.9648C122.845 88.2418 122.724 87.4579 122.724 86.6132ZM125.816 86.3877V86.6132C125.816 87.1 125.859 87.5546 125.945 87.9769C126.031 88.3993 126.167 88.7715 126.353 89.0936C126.546 89.4086 126.797 89.6556 127.105 89.8345C127.412 90.0135 127.788 90.103 128.232 90.103C128.662 90.103 129.03 90.0135 129.338 89.8345C129.646 89.6556 129.893 89.4086 130.079 89.0936C130.265 88.7715 130.401 88.3993 130.487 87.9769C130.58 87.5546 130.627 87.1 130.627 86.6132V86.3877C130.627 85.9153 130.58 85.4715 130.487 85.0563C130.401 84.6339 130.261 84.2617 130.068 83.9396C129.882 83.6103 129.635 83.3526 129.327 83.1664C129.02 82.9803 128.647 82.8873 128.211 82.8873C127.774 82.8873 127.402 82.9803 127.094 83.1664C126.793 83.3526 126.546 83.6103 126.353 83.9396C126.167 84.2617 126.031 84.6339 125.945 85.0563C125.859 85.4715 125.816 85.9153 125.816 86.3877ZM138.658 83.1664V92.3042H135.566V80.686H138.465L138.658 83.1664ZM138.207 86.0871H137.37C137.37 85.2281 137.481 84.455 137.703 83.7678C137.925 83.0734 138.236 82.4828 138.637 81.996C139.038 81.5021 139.514 81.1263 140.065 80.8686C140.623 80.6037 141.246 80.4713 141.933 80.4713C142.477 80.4713 142.975 80.55 143.426 80.7075C143.877 80.865 144.263 81.1156 144.586 81.4592C144.915 81.8028 145.165 82.2573 145.337 82.8228C145.516 83.3884 145.606 84.0791 145.606 84.8952V92.3042H142.492V84.8845C142.492 84.3691 142.42 83.9682 142.277 83.6819C142.134 83.3955 141.923 83.1951 141.643 83.0805C141.371 82.9588 141.035 82.898 140.634 82.898C140.219 82.898 139.857 82.9803 139.55 83.145C139.249 83.3096 138.998 83.5387 138.798 83.8322C138.605 84.1185 138.458 84.455 138.358 84.8415C138.257 85.2281 138.207 85.6433 138.207 86.0871Z" fill="white"/>
<path d="M167.224 79.002C164.635 79.002 162.537 81.128 162.537 83.7511C162.537 86.0733 164.568 88.2776 165.956 89.5135C166.681 90.1592 167.766 90.1592 168.492 89.5135C169.88 88.2776 171.911 86.0733 171.911 83.7511C171.912 81.128 169.813 79.002 167.224 79.002ZM168.016 83.7344C168.016 84.1715 167.661 84.526 167.224 84.526C166.787 84.526 166.433 84.1715 166.433 83.7344V83.6402C166.433 83.2031 166.787 82.8486 167.224 82.8486C167.661 82.8486 168.016 83.2031 168.016 83.6402V83.7344Z" fill="white"/>
<path d="M176.696 88.6864C176.309 88.4752 175.834 88.6248 175.632 89.0118C174.735 90.6743 173.389 92.029 171.744 92.9174C170.873 93.3748 169.967 93.7002 169.026 93.8762C169 93.885 168.973 93.885 168.947 93.8938C168.944 93.8938 168.942 93.8946 168.94 93.8955C168.604 93.2886 167.965 92.8734 167.223 92.8734C166.135 92.8734 165.252 93.7557 165.252 94.8438C165.252 95.9319 166.135 96.8141 167.223 96.8141C168.091 96.8141 168.819 96.2494 169.082 95.4701C169.087 95.4692 169.092 95.4692 169.096 95.4683C169.176 95.4595 169.255 95.4419 169.325 95.4243C170.416 95.2308 171.471 94.8526 172.492 94.3072C174.418 93.2692 175.984 91.6947 177.022 89.7507C177.233 89.3725 177.083 88.8887 176.696 88.6864Z" fill="white"/>
<path d="M165.499 75.104C165.502 75.1031 165.504 75.1031 165.506 75.1031C165.842 75.7091 166.481 76.1243 167.223 76.1243C168.312 76.1243 169.194 75.2421 169.194 74.154C169.194 73.0659 168.312 72.1836 167.223 72.1836C166.355 72.1836 165.627 72.7483 165.365 73.5277C165.36 73.5285 165.355 73.5285 165.35 73.5294C165.271 73.5382 165.192 73.5558 165.121 73.5734C164.558 73.6702 163.995 73.8285 163.45 74.0308C162.887 74.2331 162.394 74.453 161.972 74.6993C160.028 75.7373 158.445 77.303 157.416 79.2294C157.205 79.6165 157.354 80.1003 157.732 80.3026C157.855 80.3729 157.987 80.3993 158.111 80.3993C158.392 80.3993 158.665 80.2498 158.805 79.9859C159.694 78.3322 161.048 76.9864 162.729 76.0891C163.098 75.878 163.511 75.6933 163.995 75.5174C164.461 75.3415 164.919 75.2183 165.42 75.1216C165.447 75.1128 165.473 75.1128 165.499 75.104Z" fill="white"/>
<path d="M162.711 92.9182C161.039 92.0122 159.693 90.6664 158.805 89.0127C158.348 88.1506 158.022 87.2446 157.846 86.3034C157.837 86.277 157.837 86.2506 157.829 86.2242C157.828 86.2216 157.828 86.219 157.828 86.2172C158.434 85.8812 158.849 85.2426 158.849 84.5002C158.849 83.4121 157.967 82.5298 156.879 82.5298C155.79 82.5298 154.908 83.4121 154.908 84.5002C154.908 85.3683 155.474 86.0976 156.253 86.3597C156.253 86.3615 156.253 86.3632 156.254 86.365C156.263 86.4441 156.28 86.5321 156.298 86.6113C156.5 87.6932 156.87 88.7576 157.415 89.7691C158.444 91.6867 160.019 93.2613 161.954 94.308C162.077 94.3784 162.2 94.4048 162.332 94.4048C162.614 94.4048 162.886 94.2552 163.027 93.9914C163.238 93.6043 163.098 93.1293 162.711 92.9182Z" fill="white"/>
<path d="M178.201 82.6417C178.2 82.6391 178.2 82.6364 178.2 82.6338C178.183 82.5546 178.174 82.4755 178.156 82.3963C178.042 81.8157 177.892 81.2528 177.699 80.7338C176.766 78.1389 174.919 75.9926 172.474 74.6995C172.087 74.4884 171.612 74.638 171.41 75.025C171.198 75.412 171.348 75.887 171.735 76.0894C173.82 77.2065 175.412 79.0449 176.212 81.2704C176.379 81.719 176.503 82.194 176.599 82.6954C176.608 82.7218 176.608 82.7482 176.617 82.7745C176.618 82.7772 176.618 82.7798 176.618 82.7816C176.012 83.1176 175.597 83.7562 175.597 84.4986C175.597 85.5867 176.479 86.469 177.567 86.469C178.655 86.469 179.537 85.5867 179.537 84.4986C179.537 83.6339 178.976 82.9074 178.201 82.6417Z" fill="white"/>
<rect x="46.7117" y="53.7126" width="160.093" height="61.5741" rx="3.51852" stroke="#E6327D" stroke-width="1.75926"/>
</svg>
