<svg width="600" height="258" viewBox="0 0 600 258" fill="none" xmlns="http://www.w3.org/2000/svg">
<path d="M597.5 3.2998V255.5H2.5V3.2998H597.5Z" fill="black" stroke="white" stroke-width="5"/>
<path d="M406.378 181.534C402.578 184.534 392.178 174.634 391.178 173.334C390.278 172.034 383.978 159.034 388.078 156.334C393.778 152.534 407.878 160.334 408.278 160.834C408.678 161.534 411.778 177.334 406.378 181.534ZM417.778 154.034C403.078 144.034 392.978 141.934 385.778 148.734C378.978 155.134 382.978 167.034 388.578 175.234C394.678 183.134 404.778 190.634 412.878 186.134C421.678 181.334 422.778 171.134 417.778 154.034Z" fill="white"/>
<path d="M430.878 144.534C417.878 138.434 409.578 138.834 404.478 139.734C404.078 139.834 403.678 140.034 403.878 140.134C403.978 140.234 404.078 140.334 404.578 140.434C411.478 143.034 417.878 146.334 422.678 150.434C425.078 156.234 426.278 163.434 426.578 170.734C426.578 171.234 426.578 171.334 426.678 171.434C426.778 171.634 427.078 171.334 427.278 170.934C429.778 166.534 432.678 158.734 430.878 144.534Z" fill="white"/>
<path d="M441.478 136.834C436.278 133.534 427.178 133.134 421.178 134.934C420.678 135.034 420.378 135.234 420.478 135.334C420.578 135.434 420.678 135.534 421.078 135.634C428.778 137.434 432.378 139.134 435.778 141.034C436.478 144.834 436.978 148.834 436.378 156.734C436.378 157.034 436.378 157.234 436.478 157.334C436.578 157.434 436.778 157.334 437.078 156.834C440.578 151.634 442.978 142.834 441.478 136.834Z" fill="white"/>
<path d="M487.279 188.634C488.979 193.234 476.279 200.034 474.779 200.534C473.279 201.034 458.978 202.934 457.678 198.234C455.878 191.734 467.579 180.634 468.279 180.434C468.979 180.234 484.979 182.234 487.279 188.634ZM464.678 169.334C450.678 180.234 445.479 189.134 449.779 198.134C453.779 206.534 466.279 206.534 475.879 203.634C485.279 200.334 495.479 193.034 493.779 183.834C491.779 174.034 482.378 169.834 464.678 169.334Z" fill="white"/>
<path d="M459.678 153.834C449.878 164.334 447.678 172.234 446.978 177.434C446.978 177.834 446.978 178.234 447.178 178.134C447.278 178.134 447.378 178.034 447.678 177.634C452.278 171.934 457.478 166.734 462.778 163.534C469.078 163.034 476.278 164.134 483.378 166.034C483.878 166.134 483.978 166.234 484.078 166.134C484.278 166.134 484.078 165.734 483.778 165.434C480.178 161.734 473.678 156.534 459.678 153.834Z" fill="white"/>
<path d="M455.578 141.434C450.878 145.434 447.578 153.934 447.478 160.134C447.478 160.634 447.578 160.934 447.678 160.934C447.778 160.934 447.878 160.734 448.078 160.434C452.178 153.634 454.878 150.734 457.778 148.134C461.578 148.634 465.578 149.434 472.878 152.434C473.178 152.534 473.378 152.634 473.478 152.534C473.578 152.534 473.578 152.234 473.178 151.834C469.378 146.934 461.778 141.934 455.578 141.434Z" fill="white"/>
<path d="M518.978 113.834C523.878 113.634 526.478 127.734 526.478 129.334C526.478 130.934 523.878 145.034 518.978 144.834C512.178 144.534 505.378 129.934 505.278 129.334C505.378 128.734 512.178 114.134 518.978 113.834ZM493.678 129.434C499.678 146.134 506.578 153.834 516.378 152.534C525.578 151.334 529.478 139.434 529.678 129.434C529.478 119.434 525.678 107.534 516.378 106.334C506.478 105.034 499.578 112.734 493.678 129.434Z" fill="white"/>
<path d="M477.378 129.434C484.278 141.934 491.178 146.534 495.878 148.834C496.278 149.034 496.678 149.034 496.678 148.834C496.678 148.734 496.578 148.634 496.278 148.134C492.178 142.034 488.978 135.534 487.478 129.334C488.978 123.234 492.178 116.734 496.278 110.534C496.578 110.134 496.678 110.034 496.578 109.834C496.578 109.634 496.178 109.734 495.778 109.834C491.278 112.334 484.278 116.834 477.378 129.434Z" fill="white"/>
<path d="M464.378 129.433C466.678 135.133 473.778 140.833 479.678 142.933C480.178 143.133 480.478 143.133 480.478 143.033C480.478 142.933 480.378 142.733 480.178 142.433C474.978 136.433 473.078 132.933 471.478 129.433C473.078 125.933 475.078 122.433 480.278 116.433C480.478 116.133 480.578 116.033 480.578 115.933C480.578 115.833 480.278 115.833 479.778 115.933C473.778 118.033 466.678 123.733 464.378 129.433Z" fill="white"/>
<path d="M457.678 60.6337C458.978 55.9337 473.279 57.8337 474.779 58.3337C476.279 58.8337 488.978 65.6338 487.278 70.2338C484.878 76.6338 468.979 78.6338 468.279 78.4338C467.579 78.2338 455.878 67.1337 457.678 60.6337ZM464.678 89.5338C482.378 89.0338 491.778 84.8338 493.678 75.0338C495.378 65.8338 485.279 58.5338 475.779 55.2338C466.179 52.3338 453.678 52.3338 449.678 60.7338C445.478 69.7338 450.578 78.7338 464.678 89.5338Z" fill="white"/>
<path d="M459.678 105.033C473.778 102.333 480.278 97.1333 483.878 93.4333C484.178 93.1333 484.378 92.7333 484.178 92.7333C484.078 92.6333 483.978 92.7333 483.478 92.8333C476.378 94.8333 469.178 95.8333 462.878 95.3333C457.478 92.0333 452.278 86.9333 447.778 81.2333C447.478 80.8333 447.378 80.7333 447.278 80.7333C447.078 80.6333 446.978 81.0333 447.078 81.4333C447.678 86.5333 449.878 94.5333 459.678 105.033Z" fill="white"/>
<path d="M455.678 117.333C461.878 116.933 469.478 111.933 473.278 106.933C473.578 106.533 473.678 106.233 473.578 106.233C473.478 106.233 473.278 106.233 472.978 106.333C465.678 109.333 461.778 110.133 457.878 110.633C455.078 108.033 452.278 105.033 448.178 98.3334C447.978 98.0334 447.878 97.9334 447.778 97.8334C447.678 97.7334 447.578 98.0334 447.578 98.6334C447.678 104.833 450.878 113.433 455.678 117.333C455.578 117.333 455.578 117.333 455.678 117.333Z" fill="white"/>
<path d="M388.178 102.433C384.078 99.7334 390.378 86.7334 391.278 85.4334C392.178 84.1334 402.678 74.2334 406.478 77.2334C411.778 81.4334 408.778 97.2334 408.378 97.8334C407.878 98.4334 393.778 106.233 388.178 102.433ZM417.778 104.833C422.778 87.8334 421.678 77.5334 412.978 72.7334C404.778 68.2334 394.678 75.6334 388.678 83.6334C382.978 91.8334 379.078 103.733 385.878 110.133C393.078 116.933 403.178 114.733 417.778 104.833Z" fill="white"/>
<path d="M430.878 114.333C432.678 100.133 429.778 92.3335 427.278 87.7335C427.078 87.3335 426.778 87.1335 426.678 87.2335C426.578 87.3335 426.578 87.4335 426.578 87.9335C426.278 95.2335 425.078 102.433 422.678 108.233C417.878 112.333 411.378 115.733 404.578 118.233C404.078 118.433 403.978 118.433 403.878 118.533C403.778 118.633 404.078 118.833 404.478 118.933C409.678 120.033 417.978 120.433 430.878 114.333Z" fill="white"/>
<path d="M441.478 121.934C442.978 115.934 440.578 107.134 437.078 102.034C436.778 101.534 436.578 101.434 436.478 101.534C436.378 101.634 436.378 101.834 436.378 102.134C436.978 110.034 436.578 114.034 435.778 117.834C432.378 119.734 428.778 121.434 421.078 123.234C420.778 123.334 420.578 123.334 420.478 123.534C420.378 123.634 420.578 123.834 421.178 123.934C427.078 125.634 436.178 125.234 441.478 121.934Z" fill="white"/>
<path d="M273.578 171.634V96.1342H256.178V187.934H321.978V171.634H273.578ZM195.578 152.834C191.778 143.834 171.278 96.0342 171.278 96.0342H153.378L192.678 187.834H198.878L237.578 96.0342H219.678C219.678 96.0342 199.378 143.834 195.578 152.834Z" fill="white"/>
<path d="M127.778 150.534H104.478C106.478 145.834 112.878 130.534 115.778 123.834C118.778 130.534 125.678 145.734 127.778 150.534ZM121.778 96.0342H109.678L70.5784 187.834H88.7784C88.7784 187.834 96.6784 169.134 97.7784 166.534H135.078C136.178 169.134 144.678 187.834 144.678 187.834H162.778L121.778 96.0342Z" fill="white"/>
</svg>
