<svg width="350" height="340" viewBox="0 0 350 340" fill="none" xmlns="http://www.w3.org/2000/svg">
<rect width="350" height="340" rx="55" fill="white"/>
<rect x="28.0747" y="22.5" width="293.851" height="295" rx="21.5328" fill="white"/>
<path d="M131.897 22.8828V317.117" stroke="black" stroke-opacity="0.25" stroke-width="0.766234"/>
<path d="M174.807 22.8828V317.117" stroke="black" stroke-opacity="0.25" stroke-width="0.766234"/>
<path d="M217.717 22.8828V317.117" stroke="black" stroke-opacity="0.25" stroke-width="0.766234"/>
<path d="M28.8403 126.707H321.542" stroke="black" stroke-opacity="0.25" stroke-width="0.766234"/>
<path d="M28.458 169.615H321.159" stroke="black" stroke-opacity="0.25" stroke-width="0.766234"/>
<path d="M28.0747 212.525H320.776" stroke="black" stroke-opacity="0.25" stroke-width="0.766234"/>
<path d="M35.2478 311.309L315.531 28.8945" stroke="black" stroke-opacity="0.25" stroke-width="0.766234"/>
<path d="M34.7148 28.8945L314.998 311.842" stroke="black" stroke-opacity="0.25" stroke-width="0.766234"/>
<rect x="28.8411" y="22.8831" width="292.701" height="294.234" rx="20.9312" stroke="black" stroke-opacity="0.25" stroke-width="0.766234"/>
<path d="M175.192 108.699C208.621 108.699 235.724 135.97 235.724 169.615C235.724 203.26 208.621 230.53 175.192 230.53C141.763 230.53 114.659 203.26 114.659 169.615C114.659 135.97 141.763 108.699 175.192 108.699Z" stroke="black" stroke-opacity="0.25" stroke-width="0.766234"/>
<circle cx="174.426" cy="169.999" r="134.091" stroke="black" stroke-opacity="0.25" stroke-width="0.766234"/>
<rect x="59.4898" y="53.5335" width="230.636" height="232.169" rx="14.9416" stroke="black" stroke-opacity="0.25" stroke-width="0.766234"/>
<rect x="77.8795" y="35.9085" width="193.857" height="268.182" rx="14.9416" stroke="black" stroke-opacity="0.25" stroke-width="0.766234"/>
<rect x="41.1006" y="71.9222" width="268.182" height="194.623" rx="14.9416" stroke="black" stroke-opacity="0.25" stroke-width="0.766234"/>
<rect x="132.782" y="126.621" width="14.2339" height="85.4035" fill="black"/>
<rect x="132.782" y="126.621" width="14.2339" height="85.4035" fill="black"/>
<rect x="203.951" y="126.621" width="14.2339" height="71.1695" transform="rotate(90 203.951 126.621)" fill="black"/>
<rect x="203.951" y="126.621" width="14.2339" height="71.1695" transform="rotate(90 203.951 126.621)" fill="black"/>
<rect x="177.856" y="197.791" width="14.2339" height="87.7758" transform="rotate(90 177.856 197.791)" fill="black"/>
<rect x="177.856" y="197.791" width="14.2339" height="87.7758" transform="rotate(90 177.856 197.791)" fill="black"/>
<rect x="176.041" y="155.09" width="14.6652" height="14.7921" transform="rotate(90 176.041 155.09)" fill="black"/>
<rect x="176.041" y="155.09" width="14.6652" height="14.7921" transform="rotate(90 176.041 155.09)" fill="black"/>
<rect x="232.419" y="140.855" width="14.2339" height="14.2339" transform="rotate(90 232.419 140.855)" fill="black"/>
<rect x="232.419" y="140.855" width="14.2339" height="14.2339" transform="rotate(90 232.419 140.855)" fill="black"/>
<rect x="203.951" y="183.557" width="14.2339" height="56.9356" transform="rotate(-180 203.951 183.557)" fill="black"/>
<rect x="203.951" y="183.557" width="14.2339" height="56.9356" transform="rotate(-180 203.951 183.557)" fill="black"/>
<rect x="232.419" y="169.322" width="14.2339" height="56.9356" transform="rotate(90 232.419 169.322)" fill="black"/>
<rect x="232.419" y="169.322" width="14.2339" height="56.9356" transform="rotate(90 232.419 169.322)" fill="black"/>
<rect x="175.484" y="171.695" width="14.7921" height="40.3293" fill="black"/>
<rect x="175.484" y="171.695" width="14.7921" height="40.3293" fill="black"/>
<rect x="217.627" y="171.695" width="14.7921" height="40.3293" fill="black"/>
<rect x="217.627" y="171.695" width="14.7921" height="40.3293" fill="black"/>
</svg>
