<svg width="215" height="67" viewBox="0 0 215 67" fill="none" xmlns="http://www.w3.org/2000/svg">
<rect x="0.00146484" y="14.6802" width="7.96291" height="38.2157" fill="black"/>
<rect x="39.8145" y="14.6802" width="8.0454" height="39.8146" transform="rotate(90 39.8145 14.6802)" fill="black"/>
<rect x="27.8696" y="52.8965" width="7.96292" height="38.2157" transform="rotate(-180 27.8696 52.8965)" fill="black"/>
<rect x="47.7798" y="52.8965" width="7.96292" height="30.1703" transform="rotate(-180 47.7798 52.8965)" fill="black"/>
<rect x="51.7573" y="14.6802" width="7.96291" height="38.2157" fill="black"/>
<rect x="81.6167" y="14.6802" width="7.96291" height="38.2157" fill="black"/>
<rect x="51.7573" y="52.8955" width="8.0454" height="37.8239" transform="rotate(-90 51.7573 52.8955)" fill="black"/>
<rect x="51.7573" y="22.7256" width="8.0454" height="37.8239" transform="rotate(-90 51.7573 22.7256)" fill="black"/>
<rect x="177.176" y="24.7373" width="7.96291" height="28.1589" fill="black"/>
<rect x="207.035" y="14.6802" width="7.96291" height="38.2157" fill="black"/>
<rect x="177.176" y="52.8955" width="8.0454" height="37.8239" transform="rotate(-90 177.176 52.8955)" fill="black"/>
<rect x="185.139" y="22.7256" width="8.0454" height="29.8609" transform="rotate(-90 185.139 22.7256)" fill="black"/>
<rect x="135.371" y="14.6802" width="7.96291" height="38.2157" fill="black"/>
<rect x="165.23" y="14.6802" width="7.96291" height="38.2157" fill="black"/>
<rect x="135.371" y="52.8955" width="8.0454" height="37.8239" transform="rotate(-90 135.371 52.8955)" fill="black"/>
<rect x="135.371" y="22.7256" width="8.0454" height="37.8239" transform="rotate(-90 135.371 22.7256)" fill="black"/>
<rect x="51.7573" y="58.9297" width="7.96291" height="8.0454" fill="black"/>
<rect x="165.231" y="0.600586" width="7.96291" height="8.0454" fill="black"/>
<rect x="95.5562" y="14.6802" width="7.96291" height="38.2157" fill="black"/>
<rect x="107.5" y="22.7256" width="8.0454" height="21.898" transform="rotate(-90 107.5 22.7256)" fill="black"/>
</svg>
