<svg width="1258" height="620" viewBox="0 0 1258 620" fill="none" xmlns="http://www.w3.org/2000/svg">
<g clip-path="url(#clip0_178_187)">
<rect width="1258" height="620" rx="55" fill="white"/>
<rect x="599" y="-3" width="659" height="648" fill="#1E1856"/>
<g clip-path="url(#clip1_178_187)">
<path d="M305.538 163C335.636 163.036 364.647 174.111 386.945 194.079C409.243 214.047 423.237 241.483 426.213 271.065C429.189 300.648 420.935 330.268 403.053 354.18C385.17 378.091 358.932 394.59 329.431 400.475C299.929 406.361 269.266 401.213 243.389 386.031C217.512 370.849 198.267 346.715 189.386 318.311C180.505 289.906 182.622 259.256 195.325 232.306C208.029 205.355 230.415 184.026 258.139 172.456C273.134 166.187 289.256 162.971 305.538 163V163ZM305.538 388.246C331.796 388.21 357.105 378.543 376.555 361.119C396.005 343.695 408.211 319.757 410.803 293.948C413.396 268.139 406.191 242.299 390.586 221.439C374.982 200.58 352.09 186.189 326.351 181.058C300.612 175.926 273.861 180.42 251.286 193.668C228.712 206.916 211.924 227.973 204.178 252.755C196.433 277.536 198.282 304.276 209.367 327.788C220.452 351.299 239.983 369.906 264.172 379.999C277.258 385.469 291.328 388.274 305.538 388.246V388.246Z" fill="url(#paint0_linear_178_187)"/>
<path d="M305.538 163C335.636 163.036 364.647 174.111 386.945 194.079C409.243 214.047 423.237 241.483 426.213 271.065C429.189 300.648 420.935 330.268 403.053 354.18C385.17 378.091 358.932 394.59 329.431 400.475C299.929 406.361 269.266 401.213 243.389 386.031C217.512 370.849 198.267 346.715 189.386 318.311C180.505 289.906 182.622 259.256 195.325 232.306C208.029 205.355 230.415 184.026 258.139 172.456C273.134 166.187 289.256 162.971 305.538 163V163ZM305.538 388.246C331.796 388.21 357.105 378.543 376.555 361.119C396.005 343.695 408.211 319.757 410.803 293.948C413.396 268.139 406.191 242.299 390.586 221.439C374.982 200.58 352.09 186.189 326.351 181.058C300.612 175.926 273.861 180.42 251.286 193.668C228.712 206.916 211.924 227.973 204.178 252.755C196.433 277.536 198.282 304.276 209.367 327.788C220.452 351.299 239.983 369.906 264.172 379.999C277.258 385.469 291.328 388.274 305.538 388.246V388.246Z" fill="url(#paint1_linear_178_187)"/>
<path d="M305.54 371.647C305.36 371.647 305.179 371.647 304.997 371.63C303.383 371.519 301.844 370.911 300.598 369.891C299.351 368.872 298.459 367.493 298.047 365.947L282.153 306.379L221.359 290.674C219.791 290.269 218.391 289.389 217.356 288.157C216.322 286.925 215.705 285.403 215.591 283.807C215.478 282.21 215.875 280.618 216.726 279.256C217.577 277.894 218.839 276.83 220.334 276.213L278.331 252.289C279.27 251.902 280.276 251.701 281.294 251.697C282.311 251.694 283.319 251.889 284.26 252.27C285.201 252.652 286.057 253.213 286.778 253.921C287.5 254.629 288.073 255.47 288.466 256.397C288.858 257.324 289.061 258.319 289.065 259.323C289.068 260.328 288.871 261.324 288.485 262.253C288.099 263.183 287.531 264.028 286.814 264.741C286.097 265.454 285.245 266.02 284.306 266.407L247.472 281.603L290.452 292.709C291.78 293.052 292.993 293.737 293.965 294.695C294.937 295.653 295.634 296.849 295.984 298.161L307.221 340.257L322.54 304.156C322.933 303.23 323.507 302.389 324.229 301.681C324.951 300.974 325.808 300.414 326.749 300.033C327.69 299.653 328.698 299.459 329.716 299.463C330.733 299.467 331.739 299.669 332.677 300.058C333.615 300.446 334.467 301.013 335.183 301.727C335.899 302.44 336.466 303.286 336.851 304.216C337.237 305.145 337.433 306.141 337.429 307.146C337.424 308.15 337.22 309.144 336.827 310.071L312.679 366.955C312.089 368.344 311.097 369.531 309.827 370.366C308.557 371.201 307.065 371.647 305.54 371.647V371.647Z" fill="url(#paint2_linear_178_187)"/>
<path d="M305.54 371.647C305.36 371.647 305.179 371.647 304.997 371.63C303.383 371.519 301.844 370.911 300.598 369.891C299.351 368.872 298.459 367.493 298.047 365.947L282.153 306.379L221.359 290.674C219.791 290.269 218.391 289.389 217.356 288.157C216.322 286.925 215.705 285.403 215.591 283.807C215.478 282.21 215.875 280.618 216.726 279.256C217.577 277.894 218.839 276.83 220.334 276.213L278.331 252.289C279.27 251.902 280.276 251.701 281.294 251.697C282.311 251.694 283.319 251.889 284.26 252.27C285.201 252.652 286.057 253.213 286.778 253.921C287.5 254.629 288.073 255.47 288.466 256.397C288.858 257.324 289.061 258.319 289.065 259.323C289.068 260.328 288.871 261.324 288.485 262.253C288.099 263.183 287.531 264.028 286.814 264.741C286.097 265.454 285.245 266.02 284.306 266.407L247.472 281.603L290.452 292.709C291.78 293.052 292.993 293.737 293.965 294.695C294.937 295.653 295.634 296.849 295.984 298.161L307.221 340.257L322.54 304.156C322.933 303.23 323.507 302.389 324.229 301.681C324.951 300.974 325.808 300.414 326.749 300.033C327.69 299.653 328.698 299.459 329.716 299.463C330.733 299.467 331.739 299.669 332.677 300.058C333.615 300.446 334.467 301.013 335.183 301.727C335.899 302.44 336.466 303.286 336.851 304.216C337.237 305.145 337.433 306.141 337.429 307.146C337.424 308.15 337.22 309.144 336.827 310.071L312.679 366.955C312.089 368.344 311.097 369.531 309.827 370.366C308.557 371.201 307.065 371.647 305.54 371.647V371.647Z" fill="url(#paint3_linear_178_187)"/>
<path d="M339.786 290.927C338.51 290.927 337.252 290.615 336.127 290.019C335.002 289.423 334.043 288.562 333.336 287.512C332.629 286.461 332.196 285.255 332.076 283.999C331.955 282.743 332.151 281.478 332.645 280.315L350.057 239.281L308.522 256.418C307.583 256.805 306.577 257.006 305.559 257.009C304.542 257.013 303.534 256.818 302.593 256.437C301.652 256.055 300.796 255.494 300.075 254.786C299.353 254.078 298.78 253.236 298.387 252.309C297.995 251.382 297.791 250.388 297.788 249.383C297.785 248.379 297.982 247.383 298.368 246.453C298.754 245.524 299.322 244.679 300.039 243.966C300.756 243.253 301.608 242.687 302.547 242.299L361.515 217.976C362.933 217.391 364.495 217.236 366.002 217.53C367.51 217.824 368.894 218.555 369.98 219.628C371.066 220.702 371.804 222.071 372.1 223.56C372.397 225.049 372.238 226.591 371.644 227.991L346.932 286.23C346.343 287.621 345.35 288.81 344.078 289.646C342.807 290.481 341.314 290.927 339.786 290.927V290.927Z" fill="url(#paint4_linear_178_187)"/>
</g>
<g clip-path="url(#clip2_178_187)">
<path d="M889.717 164.494C919.445 164.53 948.1 175.606 970.124 195.573C992.148 215.541 1005.97 242.977 1008.91 272.56C1011.85 302.142 1003.7 331.762 986.034 355.674C968.371 379.585 942.456 396.084 913.316 401.97C884.176 407.855 853.889 402.707 828.33 387.525C802.77 372.343 783.761 348.209 774.989 319.805C766.217 291.4 768.308 260.75 780.856 233.8C793.404 206.85 815.515 185.521 842.899 173.95C857.71 167.681 873.633 164.465 889.717 164.494V164.494ZM889.717 389.74C915.652 389.704 940.651 380.037 959.862 362.613C979.074 345.189 991.129 321.251 993.69 295.442C996.25 269.633 989.134 243.793 973.721 222.934C958.308 202.074 935.697 187.683 910.274 182.552C884.85 177.42 858.427 181.914 836.13 195.162C813.833 208.41 797.251 229.467 789.6 254.249C781.95 279.03 783.776 305.771 794.725 329.282C805.674 352.793 824.966 371.4 848.857 381.493C861.783 386.963 875.681 389.768 889.717 389.74V389.74Z" fill="url(#paint5_linear_178_187)"/>
<path d="M889.717 164.494C919.445 164.53 948.1 175.606 970.124 195.573C992.148 215.541 1005.97 242.977 1008.91 272.56C1011.85 302.142 1003.7 331.762 986.034 355.674C968.371 379.585 942.456 396.084 913.316 401.97C884.176 407.855 853.889 402.707 828.33 387.525C802.77 372.343 783.761 348.209 774.989 319.805C766.217 291.4 768.308 260.75 780.856 233.8C793.404 206.85 815.515 185.521 842.899 173.95C857.71 167.681 873.633 164.465 889.717 164.494V164.494ZM889.717 389.74C915.652 389.704 940.651 380.037 959.862 362.613C979.074 345.189 991.129 321.251 993.69 295.442C996.25 269.633 989.134 243.793 973.721 222.934C958.308 202.074 935.697 187.683 910.274 182.552C884.85 177.42 858.427 181.914 836.13 195.162C813.833 208.41 797.251 229.467 789.6 254.249C781.95 279.03 783.776 305.771 794.725 329.282C805.674 352.793 824.966 371.4 848.857 381.493C861.783 386.963 875.681 389.768 889.717 389.74V389.74Z" fill="url(#paint6_linear_178_187)"/>
<path d="M889.719 373.144C889.542 373.144 889.362 373.144 889.183 373.126C887.589 373.015 886.069 372.407 884.837 371.388C883.606 370.368 882.725 368.989 882.318 367.443L866.619 307.875L806.571 292.17C805.022 291.765 803.639 290.885 802.618 289.653C801.596 288.421 800.986 286.9 800.874 285.303C800.762 283.706 801.154 282.115 801.995 280.752C802.835 279.39 804.081 278.326 805.558 277.709L862.844 253.785C863.771 253.398 864.765 253.197 865.77 253.193C866.775 253.19 867.77 253.385 868.7 253.766C869.629 254.148 870.475 254.709 871.188 255.417C871.9 256.125 872.467 256.967 872.854 257.894C873.242 258.821 873.443 259.815 873.446 260.82C873.449 261.824 873.255 262.82 872.873 263.749C872.492 264.679 871.931 265.524 871.223 266.237C870.514 266.95 869.673 267.516 868.746 267.903L832.363 283.099L874.816 294.205C876.128 294.548 877.326 295.233 878.286 296.191C879.246 297.149 879.935 298.345 880.28 299.657L891.38 341.753L906.51 305.652C906.898 304.726 907.466 303.885 908.179 303.177C908.892 302.47 909.738 301.91 910.668 301.529C911.598 301.149 912.593 300.955 913.598 300.959C914.603 300.964 915.597 301.166 916.523 301.554C917.45 301.942 918.291 302.509 918.998 303.223C919.706 303.936 920.266 304.782 920.646 305.712C921.027 306.642 921.221 307.637 921.216 308.642C921.212 309.647 921.01 310.641 920.622 311.567L896.77 368.451C896.188 369.84 895.208 371.027 893.953 371.862C892.699 372.697 891.226 373.143 889.719 373.144V373.144Z" fill="url(#paint7_linear_178_187)"/>
<path d="M889.719 373.144C889.542 373.144 889.362 373.144 889.183 373.126C887.589 373.015 886.069 372.407 884.837 371.388C883.606 370.368 882.725 368.989 882.318 367.443L866.619 307.875L806.571 292.17C805.022 291.765 803.639 290.885 802.618 289.653C801.596 288.421 800.986 286.9 800.874 285.303C800.762 283.706 801.154 282.115 801.995 280.752C802.835 279.39 804.081 278.326 805.558 277.709L862.844 253.785C863.771 253.398 864.765 253.197 865.77 253.193C866.775 253.19 867.77 253.385 868.7 253.766C869.629 254.148 870.475 254.709 871.188 255.417C871.9 256.125 872.467 256.967 872.854 257.894C873.242 258.821 873.443 259.815 873.446 260.82C873.449 261.824 873.255 262.82 872.873 263.749C872.492 264.679 871.931 265.524 871.223 266.237C870.514 266.95 869.673 267.516 868.746 267.903L832.363 283.099L874.816 294.205C876.128 294.548 877.326 295.233 878.286 296.191C879.246 297.149 879.935 298.345 880.28 299.657L891.38 341.753L906.51 305.652C906.898 304.726 907.466 303.885 908.179 303.177C908.892 302.47 909.738 301.91 910.668 301.529C911.598 301.149 912.593 300.955 913.598 300.959C914.603 300.964 915.597 301.166 916.523 301.554C917.45 301.942 918.291 302.509 918.998 303.223C919.706 303.936 920.266 304.782 920.646 305.712C921.027 306.642 921.221 307.637 921.216 308.642C921.212 309.647 921.01 310.641 920.622 311.567L896.77 368.451C896.188 369.84 895.208 371.027 893.953 371.862C892.699 372.697 891.226 373.143 889.719 373.144V373.144Z" fill="url(#paint8_linear_178_187)"/>
<path d="M923.545 292.421C922.283 292.421 921.042 292.109 919.93 291.513C918.818 290.918 917.871 290.056 917.173 289.006C916.475 287.955 916.048 286.749 915.928 285.493C915.809 284.238 916.003 282.972 916.491 281.809L933.689 240.775L892.663 257.912C891.736 258.299 890.742 258.5 889.737 258.504C888.733 258.507 887.737 258.312 886.808 257.931C885.878 257.549 885.033 256.988 884.32 256.28C883.607 255.572 883.041 254.73 882.653 253.803C882.266 252.876 882.065 251.882 882.062 250.877C882.058 249.873 882.253 248.877 882.634 247.948C883.016 247.018 883.577 246.173 884.285 245.46C884.993 244.747 885.835 244.181 886.762 243.794L945.007 219.47C946.407 218.885 947.95 218.73 949.439 219.024C950.928 219.318 952.295 220.049 953.368 221.123C954.44 222.196 955.169 223.565 955.462 225.054C955.755 226.543 955.598 228.085 955.011 229.485L930.602 287.724C930.02 289.115 929.04 290.304 927.784 291.14C926.528 291.975 925.053 292.421 923.545 292.421V292.421Z" fill="url(#paint9_linear_178_187)"/>
</g>
<path d="M46.515 554.105C46.325 554.105 46.175 554.05 46.065 553.94C45.955 553.82 45.9 553.66 45.9 553.46V544.49H42.525C42.345 544.49 42.205 544.44 42.105 544.34C42.005 544.24 41.955 544.11 41.955 543.95C41.955 543.78 42.005 543.65 42.105 543.56C42.205 543.47 42.345 543.425 42.525 543.425H50.52C50.7 543.425 50.84 543.47 50.94 543.56C51.04 543.65 51.09 543.78 51.09 543.95C51.09 544.12 51.04 544.255 50.94 544.355C50.84 544.445 50.7 544.49 50.52 544.49H47.145V553.46C47.145 553.66 47.09 553.82 46.98 553.94C46.88 554.05 46.725 554.105 46.515 554.105ZM53.1443 554.105C52.9443 554.105 52.7943 554.05 52.6943 553.94C52.5943 553.83 52.5443 553.675 52.5443 553.475V543.935C52.5443 543.735 52.5943 543.585 52.6943 543.485C52.7943 543.375 52.9443 543.32 53.1443 543.32C53.3343 543.32 53.4843 543.375 53.5943 543.485C53.7043 543.585 53.7593 543.735 53.7593 543.935V548.33H53.5643C53.7743 547.75 54.1143 547.315 54.5843 547.025C55.0643 546.725 55.6143 546.575 56.2343 546.575C56.8143 546.575 57.2943 546.68 57.6743 546.89C58.0643 547.1 58.3543 547.42 58.5443 547.85C58.7343 548.27 58.8293 548.805 58.8293 549.455V553.475C58.8293 553.675 58.7743 553.83 58.6643 553.94C58.5643 554.05 58.4193 554.105 58.2293 554.105C58.0293 554.105 57.8743 554.05 57.7643 553.94C57.6643 553.83 57.6143 553.675 57.6143 553.475V549.53C57.6143 548.85 57.4793 548.355 57.2093 548.045C56.9493 547.725 56.5293 547.565 55.9493 547.565C55.2793 547.565 54.7443 547.775 54.3443 548.195C53.9543 548.605 53.7593 549.155 53.7593 549.845V553.475C53.7593 553.895 53.5543 554.105 53.1443 554.105ZM64.3547 554.135C63.5847 554.135 62.9197 553.985 62.3597 553.685C61.8097 553.375 61.3797 552.94 61.0697 552.38C60.7697 551.82 60.6197 551.15 60.6197 550.37C60.6197 549.61 60.7697 548.95 61.0697 548.39C61.3697 547.82 61.7797 547.375 62.2997 547.055C62.8297 546.735 63.4397 546.575 64.1297 546.575C64.6197 546.575 65.0597 546.66 65.4497 546.83C65.8397 546.99 66.1697 547.225 66.4397 547.535C66.7197 547.845 66.9297 548.22 67.0697 548.66C67.2197 549.1 67.2947 549.595 67.2947 550.145C67.2947 550.305 67.2497 550.425 67.1597 550.505C67.0697 550.575 66.9397 550.61 66.7697 550.61H61.5497V549.815H66.4847L66.2447 550.01C66.2447 549.47 66.1647 549.015 66.0047 548.645C65.8447 548.265 65.6097 547.975 65.2997 547.775C64.9997 547.575 64.6197 547.475 64.1597 547.475C63.6497 547.475 63.2147 547.595 62.8547 547.835C62.5047 548.065 62.2397 548.39 62.0597 548.81C61.8797 549.22 61.7897 549.7 61.7897 550.25V550.34C61.7897 551.26 62.0097 551.96 62.4497 552.44C62.8997 552.92 63.5347 553.16 64.3547 553.16C64.6947 553.16 65.0297 553.115 65.3597 553.025C65.6997 552.935 66.0297 552.785 66.3497 552.575C66.4897 552.485 66.6147 552.445 66.7247 552.455C66.8447 552.455 66.9397 552.49 67.0097 552.56C67.0797 552.62 67.1247 552.7 67.1447 552.8C67.1747 552.89 67.1647 552.99 67.1147 553.1C67.0747 553.21 66.9897 553.305 66.8597 553.385C66.5297 553.625 66.1397 553.81 65.6897 553.94C65.2397 554.07 64.7947 554.135 64.3547 554.135ZM75.6953 554.135C75.0453 554.135 74.4753 553.98 73.9853 553.67C73.5053 553.36 73.1303 552.925 72.8603 552.365C72.6003 551.795 72.4703 551.125 72.4703 550.355C72.4703 549.575 72.6003 548.905 72.8603 548.345C73.1303 547.775 73.5053 547.34 73.9853 547.04C74.4753 546.73 75.0453 546.575 75.6953 546.575C76.3553 546.575 76.9203 546.74 77.3903 547.07C77.8603 547.4 78.1753 547.845 78.3353 548.405H78.1703V543.935C78.1703 543.735 78.2203 543.585 78.3203 543.485C78.4303 543.375 78.5853 543.32 78.7853 543.32C78.9753 543.32 79.1203 543.375 79.2203 543.485C79.3303 543.585 79.3853 543.735 79.3853 543.935V553.475C79.3853 553.675 79.3353 553.83 79.2353 553.94C79.1353 554.05 78.9853 554.105 78.7853 554.105C78.5953 554.105 78.4453 554.05 78.3353 553.94C78.2353 553.83 78.1853 553.675 78.1853 553.475V552.05L78.3503 552.26C78.1903 552.83 77.8703 553.285 77.3903 553.625C76.9203 553.965 76.3553 554.135 75.6953 554.135ZM75.9503 553.16C76.4003 553.16 76.7953 553.05 77.1353 552.83C77.4753 552.61 77.7353 552.29 77.9153 551.87C78.1053 551.45 78.2003 550.945 78.2003 550.355C78.2003 549.445 77.9953 548.75 77.5853 548.27C77.1853 547.79 76.6403 547.55 75.9503 547.55C75.4903 547.55 75.0903 547.66 74.7503 547.88C74.4203 548.09 74.1603 548.405 73.9703 548.825C73.7903 549.235 73.7003 549.745 73.7003 550.355C73.7003 551.255 73.9053 551.95 74.3153 552.44C74.7253 552.92 75.2703 553.16 75.9503 553.16ZM83.9604 554.135C83.4604 554.135 83.0104 554.04 82.6104 553.85C82.2204 553.65 81.9104 553.38 81.6804 553.04C81.4504 552.7 81.3354 552.32 81.3354 551.9C81.3354 551.36 81.4704 550.935 81.7404 550.625C82.0204 550.315 82.4754 550.095 83.1054 549.965C83.7454 549.835 84.6154 549.77 85.7154 549.77H86.3904V550.565H85.7304C84.9204 550.565 84.2804 550.605 83.8104 550.685C83.3504 550.755 83.0254 550.88 82.8354 551.06C82.6554 551.24 82.5654 551.495 82.5654 551.825C82.5654 552.235 82.7054 552.57 82.9854 552.83C83.2754 553.09 83.6654 553.22 84.1554 553.22C84.5554 553.22 84.9054 553.125 85.2054 552.935C85.5154 552.745 85.7554 552.485 85.9254 552.155C86.1054 551.825 86.1954 551.445 86.1954 551.015V549.305C86.1954 548.685 86.0704 548.24 85.8204 547.97C85.5704 547.69 85.1604 547.55 84.5904 547.55C84.2404 547.55 83.8904 547.595 83.5404 547.685C83.1904 547.775 82.8204 547.92 82.4304 548.12C82.2904 548.19 82.1704 548.215 82.0704 548.195C81.9704 548.165 81.8904 548.11 81.8304 548.03C81.7704 547.95 81.7354 547.86 81.7254 547.76C81.7154 547.65 81.7354 547.545 81.7854 547.445C81.8454 547.345 81.9354 547.265 82.0554 547.205C82.4954 546.985 82.9304 546.825 83.3604 546.725C83.7904 546.625 84.2004 546.575 84.5904 546.575C85.2204 546.575 85.7404 546.68 86.1504 546.89C86.5604 547.09 86.8654 547.4 87.0654 547.82C87.2654 548.23 87.3654 548.76 87.3654 549.41V553.475C87.3654 553.675 87.3154 553.83 87.2154 553.94C87.1254 554.05 86.9904 554.105 86.8104 554.105C86.6204 554.105 86.4754 554.05 86.3754 553.94C86.2754 553.83 86.2254 553.675 86.2254 553.475V552.305H86.3604C86.2804 552.685 86.1254 553.01 85.8954 553.28C85.6754 553.55 85.4004 553.76 85.0704 553.91C84.7404 554.06 84.3704 554.135 83.9604 554.135ZM90.2345 554.105C90.0345 554.105 89.8795 554.05 89.7695 553.94C89.6695 553.83 89.6195 553.675 89.6195 553.475V547.22C89.6195 547.02 89.6695 546.87 89.7695 546.77C89.8695 546.66 90.0145 546.605 90.2045 546.605C90.3945 546.605 90.5395 546.66 90.6395 546.77C90.7495 546.87 90.8045 547.02 90.8045 547.22V548.435H90.6545C90.8145 547.845 91.1195 547.39 91.5695 547.07C92.0195 546.75 92.5745 546.58 93.2345 546.56C93.3845 546.55 93.5045 546.585 93.5945 546.665C93.6845 546.735 93.7345 546.86 93.7445 547.04C93.7545 547.21 93.7145 547.345 93.6245 547.445C93.5345 547.545 93.3945 547.605 93.2045 547.625L92.9645 547.655C92.2845 547.715 91.7595 547.935 91.3895 548.315C91.0295 548.685 90.8495 549.195 90.8495 549.845V553.475C90.8495 553.675 90.7945 553.83 90.6845 553.94C90.5845 554.05 90.4345 554.105 90.2345 554.105ZM95.5955 554.105C95.3955 554.105 95.2455 554.05 95.1455 553.94C95.0455 553.83 94.9955 553.675 94.9955 553.475V543.935C94.9955 543.735 95.0455 543.585 95.1455 543.485C95.2455 543.375 95.3955 543.32 95.5955 543.32C95.7855 543.32 95.9355 543.375 96.0455 543.485C96.1555 543.585 96.2105 543.735 96.2105 543.935V549.95H96.2405L99.3155 547.01C99.4555 546.88 99.5755 546.78 99.6755 546.71C99.7855 546.64 99.9305 546.605 100.11 546.605C100.27 546.605 100.395 546.65 100.485 546.74C100.575 546.82 100.615 546.925 100.605 547.055C100.605 547.175 100.545 547.305 100.425 547.445L97.1555 550.55V549.89L100.71 553.235C100.85 553.375 100.92 553.51 100.92 553.64C100.92 553.77 100.87 553.88 100.77 553.97C100.68 554.06 100.56 554.105 100.41 554.105C100.23 554.105 100.085 554.07 99.9755 554C99.8655 553.92 99.7305 553.805 99.5705 553.655L96.2405 550.58H96.2105V553.475C96.2105 553.895 96.0055 554.105 95.5955 554.105ZM108.658 554.135C108.158 554.135 107.708 554.04 107.308 553.85C106.918 553.65 106.608 553.38 106.378 553.04C106.148 552.7 106.033 552.32 106.033 551.9C106.033 551.36 106.168 550.935 106.438 550.625C106.718 550.315 107.173 550.095 107.803 549.965C108.443 549.835 109.313 549.77 110.413 549.77H111.088V550.565H110.428C109.618 550.565 108.978 550.605 108.508 550.685C108.048 550.755 107.723 550.88 107.533 551.06C107.353 551.24 107.263 551.495 107.263 551.825C107.263 552.235 107.403 552.57 107.683 552.83C107.973 553.09 108.363 553.22 108.853 553.22C109.253 553.22 109.603 553.125 109.903 552.935C110.213 552.745 110.453 552.485 110.623 552.155C110.803 551.825 110.893 551.445 110.893 551.015V549.305C110.893 548.685 110.768 548.24 110.518 547.97C110.268 547.69 109.858 547.55 109.288 547.55C108.938 547.55 108.588 547.595 108.238 547.685C107.888 547.775 107.518 547.92 107.128 548.12C106.988 548.19 106.868 548.215 106.768 548.195C106.668 548.165 106.588 548.11 106.528 548.03C106.468 547.95 106.433 547.86 106.423 547.76C106.413 547.65 106.433 547.545 106.483 547.445C106.543 547.345 106.633 547.265 106.753 547.205C107.193 546.985 107.628 546.825 108.058 546.725C108.488 546.625 108.898 546.575 109.288 546.575C109.918 546.575 110.438 546.68 110.848 546.89C111.258 547.09 111.563 547.4 111.763 547.82C111.963 548.23 112.063 548.76 112.063 549.41V553.475C112.063 553.675 112.013 553.83 111.913 553.94C111.823 554.05 111.688 554.105 111.508 554.105C111.318 554.105 111.173 554.05 111.073 553.94C110.973 553.83 110.923 553.675 110.923 553.475V552.305H111.058C110.978 552.685 110.823 553.01 110.593 553.28C110.373 553.55 110.098 553.76 109.768 553.91C109.438 554.06 109.068 554.135 108.658 554.135ZM114.917 554.105C114.717 554.105 114.567 554.05 114.467 553.94C114.367 553.83 114.317 553.675 114.317 553.475V547.22C114.317 547.02 114.367 546.87 114.467 546.77C114.567 546.66 114.712 546.605 114.902 546.605C115.092 546.605 115.237 546.66 115.337 546.77C115.447 546.87 115.502 547.02 115.502 547.22V548.51L115.337 548.33C115.547 547.75 115.887 547.315 116.357 547.025C116.837 546.725 117.387 546.575 118.007 546.575C118.587 546.575 119.067 546.68 119.447 546.89C119.837 547.1 120.127 547.42 120.317 547.85C120.507 548.27 120.602 548.805 120.602 549.455V553.475C120.602 553.675 120.547 553.83 120.437 553.94C120.337 554.05 120.192 554.105 120.002 554.105C119.802 554.105 119.647 554.05 119.537 553.94C119.437 553.83 119.387 553.675 119.387 553.475V549.53C119.387 548.85 119.252 548.355 118.982 548.045C118.722 547.725 118.302 547.565 117.722 547.565C117.052 547.565 116.517 547.775 116.117 548.195C115.727 548.605 115.532 549.155 115.532 549.845V553.475C115.532 553.895 115.327 554.105 114.917 554.105ZM125.617 554.135C124.967 554.135 124.397 553.98 123.907 553.67C123.427 553.36 123.052 552.925 122.782 552.365C122.522 551.795 122.392 551.125 122.392 550.355C122.392 549.575 122.522 548.905 122.782 548.345C123.052 547.775 123.427 547.34 123.907 547.04C124.397 546.73 124.967 546.575 125.617 546.575C126.277 546.575 126.842 546.74 127.312 547.07C127.782 547.4 128.097 547.845 128.257 548.405H128.092V543.935C128.092 543.735 128.142 543.585 128.242 543.485C128.352 543.375 128.507 543.32 128.707 543.32C128.897 543.32 129.042 543.375 129.142 543.485C129.252 543.585 129.307 543.735 129.307 543.935V553.475C129.307 553.675 129.257 553.83 129.157 553.94C129.057 554.05 128.907 554.105 128.707 554.105C128.517 554.105 128.367 554.05 128.257 553.94C128.157 553.83 128.107 553.675 128.107 553.475V552.05L128.272 552.26C128.112 552.83 127.792 553.285 127.312 553.625C126.842 553.965 126.277 554.135 125.617 554.135ZM125.872 553.16C126.322 553.16 126.717 553.05 127.057 552.83C127.397 552.61 127.657 552.29 127.837 551.87C128.027 551.45 128.122 550.945 128.122 550.355C128.122 549.445 127.917 548.75 127.507 548.27C127.107 547.79 126.562 547.55 125.872 547.55C125.412 547.55 125.012 547.66 124.672 547.88C124.342 548.09 124.082 548.405 123.892 548.825C123.712 549.235 123.622 549.745 123.622 550.355C123.622 551.255 123.827 551.95 124.237 552.44C124.647 552.92 125.192 553.16 125.872 553.16ZM137.674 554.135C136.954 554.135 136.404 553.915 136.024 553.475C135.644 553.035 135.454 552.405 135.454 551.585V543.935C135.454 543.735 135.504 543.585 135.604 543.485C135.704 543.375 135.854 543.32 136.054 543.32C136.244 543.32 136.394 543.375 136.504 543.485C136.614 543.585 136.669 543.735 136.669 543.935V551.495C136.669 552.035 136.774 552.44 136.984 552.71C137.204 552.97 137.524 553.1 137.944 553.1C138.034 553.1 138.114 553.095 138.184 553.085C138.254 553.075 138.324 553.07 138.394 553.07C138.504 553.06 138.579 553.085 138.619 553.145C138.669 553.205 138.694 553.325 138.694 553.505C138.694 553.685 138.654 553.82 138.574 553.91C138.494 554 138.364 554.06 138.184 554.09C138.104 554.1 138.019 554.11 137.929 554.12C137.839 554.13 137.754 554.135 137.674 554.135ZM140.493 554.075C140.293 554.075 140.143 554.02 140.043 553.91C139.943 553.79 139.893 553.625 139.893 553.415V547.28C139.893 547.07 139.943 546.91 140.043 546.8C140.143 546.69 140.293 546.635 140.493 546.635C140.683 546.635 140.833 546.69 140.943 546.8C141.053 546.91 141.108 547.07 141.108 547.28V553.415C141.108 553.625 141.053 553.79 140.943 553.91C140.843 554.02 140.693 554.075 140.493 554.075ZM140.493 544.955C140.243 544.955 140.048 544.89 139.908 544.76C139.768 544.62 139.698 544.435 139.698 544.205C139.698 543.965 139.768 543.785 139.908 543.665C140.048 543.535 140.243 543.47 140.493 543.47C140.753 543.47 140.948 543.535 141.078 543.665C141.218 543.785 141.288 543.965 141.288 544.205C141.288 544.435 141.218 544.62 141.078 544.76C140.948 544.89 140.753 544.955 140.493 544.955ZM146.604 556.835C146.074 556.835 145.554 556.77 145.044 556.64C144.544 556.52 144.089 556.325 143.679 556.055C143.559 555.985 143.479 555.9 143.439 555.8C143.409 555.7 143.404 555.6 143.424 555.5C143.444 555.41 143.489 555.325 143.559 555.245C143.629 555.175 143.709 555.13 143.799 555.11C143.899 555.09 143.999 555.105 144.099 555.155C144.539 555.425 144.959 555.61 145.359 555.71C145.759 555.81 146.154 555.86 146.544 555.86C147.254 555.86 147.789 555.67 148.149 555.29C148.519 554.91 148.704 554.36 148.704 553.64V551.945H148.854C148.704 552.525 148.384 552.985 147.894 553.325C147.414 553.665 146.849 553.835 146.199 553.835C145.529 553.835 144.949 553.685 144.459 553.385C143.969 553.075 143.589 552.645 143.319 552.095C143.059 551.545 142.929 550.91 142.929 550.19C142.929 549.65 143.004 549.16 143.154 548.72C143.304 548.27 143.519 547.89 143.799 547.58C144.089 547.26 144.434 547.015 144.834 546.845C145.244 546.665 145.699 546.575 146.199 546.575C146.859 546.575 147.429 546.745 147.909 547.085C148.389 547.415 148.699 547.865 148.839 548.435L148.689 548.615V547.22C148.689 547.02 148.739 546.87 148.839 546.77C148.949 546.66 149.099 546.605 149.289 546.605C149.489 546.605 149.639 546.66 149.739 546.77C149.839 546.87 149.889 547.02 149.889 547.22V553.475C149.889 554.585 149.609 555.42 149.049 555.98C148.499 556.55 147.684 556.835 146.604 556.835ZM146.424 552.845C146.894 552.845 147.299 552.74 147.639 552.53C147.979 552.31 148.239 552 148.419 551.6C148.609 551.2 148.704 550.73 148.704 550.19C148.704 549.38 148.499 548.74 148.089 548.27C147.679 547.79 147.124 547.55 146.424 547.55C145.964 547.55 145.564 547.66 145.224 547.88C144.884 548.09 144.619 548.395 144.429 548.795C144.249 549.185 144.159 549.65 144.159 550.19C144.159 551 144.364 551.645 144.774 552.125C145.184 552.605 145.734 552.845 146.424 552.845ZM152.768 554.105C152.568 554.105 152.418 554.05 152.318 553.94C152.218 553.83 152.168 553.675 152.168 553.475V543.935C152.168 543.735 152.218 543.585 152.318 543.485C152.418 543.375 152.568 543.32 152.768 543.32C152.958 543.32 153.108 543.375 153.218 543.485C153.328 543.585 153.383 543.735 153.383 543.935V548.33H153.188C153.398 547.75 153.738 547.315 154.208 547.025C154.688 546.725 155.238 546.575 155.858 546.575C156.438 546.575 156.918 546.68 157.298 546.89C157.688 547.1 157.978 547.42 158.168 547.85C158.358 548.27 158.453 548.805 158.453 549.455V553.475C158.453 553.675 158.398 553.83 158.288 553.94C158.188 554.05 158.043 554.105 157.853 554.105C157.653 554.105 157.498 554.05 157.388 553.94C157.288 553.83 157.238 553.675 157.238 553.475V549.53C157.238 548.85 157.103 548.355 156.833 548.045C156.573 547.725 156.153 547.565 155.573 547.565C154.903 547.565 154.368 547.775 153.968 548.195C153.578 548.605 153.383 549.155 153.383 549.845V553.475C153.383 553.895 153.178 554.105 152.768 554.105ZM163.619 554.135C163.049 554.135 162.569 554.035 162.179 553.835C161.799 553.625 161.514 553.325 161.324 552.935C161.134 552.535 161.039 552.05 161.039 551.48V547.655H160.034C159.864 547.655 159.734 547.615 159.644 547.535C159.554 547.445 159.509 547.325 159.509 547.175C159.509 547.025 159.554 546.91 159.644 546.83C159.734 546.75 159.864 546.71 160.034 546.71H161.039V544.985C161.039 544.785 161.094 544.635 161.204 544.535C161.314 544.425 161.464 544.37 161.654 544.37C161.844 544.37 161.989 544.425 162.089 544.535C162.199 544.635 162.254 544.785 162.254 544.985V546.71H164.144C164.314 546.71 164.444 546.75 164.534 546.83C164.624 546.91 164.669 547.025 164.669 547.175C164.669 547.325 164.624 547.445 164.534 547.535C164.444 547.615 164.314 547.655 164.144 547.655H162.254V551.36C162.254 551.93 162.374 552.365 162.614 552.665C162.854 552.955 163.244 553.1 163.784 553.1C163.974 553.1 164.134 553.08 164.264 553.04C164.404 553 164.519 552.98 164.609 552.98C164.699 552.97 164.774 553 164.834 553.07C164.894 553.14 164.924 553.26 164.924 553.43C164.924 553.55 164.899 553.66 164.849 553.76C164.809 553.86 164.734 553.93 164.624 553.97C164.504 554.01 164.344 554.045 164.144 554.075C163.954 554.115 163.779 554.135 163.619 554.135ZM172.52 554.105C172.35 554.105 172.2 554.06 172.07 553.97C171.94 553.87 171.83 553.72 171.74 553.52L169.145 547.46C169.075 547.31 169.05 547.17 169.07 547.04C169.09 546.91 169.15 546.805 169.25 546.725C169.35 546.645 169.49 546.605 169.67 546.605C169.83 546.605 169.955 546.64 170.045 546.71C170.135 546.78 170.215 546.905 170.285 547.085L172.745 553.1H172.34L174.845 547.085C174.915 546.905 174.995 546.78 175.085 546.71C175.175 546.64 175.305 546.605 175.475 546.605C175.635 546.605 175.755 546.645 175.835 546.725C175.925 546.805 175.975 546.91 175.985 547.04C176.005 547.16 175.985 547.295 175.925 547.445L173.3 553.52C173.23 553.72 173.125 553.87 172.985 553.97C172.855 554.06 172.7 554.105 172.52 554.105ZM180.707 554.135C179.937 554.135 179.272 553.985 178.712 553.685C178.162 553.375 177.732 552.94 177.422 552.38C177.122 551.82 176.972 551.15 176.972 550.37C176.972 549.61 177.122 548.95 177.422 548.39C177.722 547.82 178.132 547.375 178.652 547.055C179.182 546.735 179.792 546.575 180.482 546.575C180.972 546.575 181.412 546.66 181.802 546.83C182.192 546.99 182.522 547.225 182.792 547.535C183.072 547.845 183.282 548.22 183.422 548.66C183.572 549.1 183.647 549.595 183.647 550.145C183.647 550.305 183.602 550.425 183.512 550.505C183.422 550.575 183.292 550.61 183.122 550.61H177.902V549.815H182.837L182.597 550.01C182.597 549.47 182.517 549.015 182.357 548.645C182.197 548.265 181.962 547.975 181.652 547.775C181.352 547.575 180.972 547.475 180.512 547.475C180.002 547.475 179.567 547.595 179.207 547.835C178.857 548.065 178.592 548.39 178.412 548.81C178.232 549.22 178.142 549.7 178.142 550.25V550.34C178.142 551.26 178.362 551.96 178.802 552.44C179.252 552.92 179.887 553.16 180.707 553.16C181.047 553.16 181.382 553.115 181.712 553.025C182.052 552.935 182.382 552.785 182.702 552.575C182.842 552.485 182.967 552.445 183.077 552.455C183.197 552.455 183.292 552.49 183.362 552.56C183.432 552.62 183.477 552.7 183.497 552.8C183.527 552.89 183.517 552.99 183.467 553.1C183.427 553.21 183.342 553.305 183.212 553.385C182.882 553.625 182.492 553.81 182.042 553.94C181.592 554.07 181.147 554.135 180.707 554.135ZM186.021 554.105C185.821 554.105 185.666 554.05 185.556 553.94C185.456 553.83 185.406 553.675 185.406 553.475V547.22C185.406 547.02 185.456 546.87 185.556 546.77C185.656 546.66 185.801 546.605 185.991 546.605C186.181 546.605 186.326 546.66 186.426 546.77C186.536 546.87 186.591 547.02 186.591 547.22V548.435H186.441C186.601 547.845 186.906 547.39 187.356 547.07C187.806 546.75 188.361 546.58 189.021 546.56C189.171 546.55 189.291 546.585 189.381 546.665C189.471 546.735 189.521 546.86 189.531 547.04C189.541 547.21 189.501 547.345 189.411 547.445C189.321 547.545 189.181 547.605 188.991 547.625L188.751 547.655C188.071 547.715 187.546 547.935 187.176 548.315C186.816 548.685 186.636 549.195 186.636 549.845V553.475C186.636 553.675 186.581 553.83 186.471 553.94C186.371 554.05 186.221 554.105 186.021 554.105ZM193.168 554.135C192.718 554.135 192.263 554.08 191.803 553.97C191.353 553.86 190.933 553.67 190.543 553.4C190.443 553.33 190.373 553.25 190.333 553.16C190.293 553.06 190.278 552.965 190.288 552.875C190.308 552.775 190.348 552.69 190.408 552.62C190.478 552.55 190.558 552.51 190.648 552.5C190.748 552.48 190.858 552.5 190.978 552.56C191.368 552.8 191.743 552.97 192.103 553.07C192.473 553.16 192.838 553.205 193.198 553.205C193.768 553.205 194.198 553.1 194.488 552.89C194.778 552.68 194.923 552.395 194.923 552.035C194.923 551.755 194.828 551.535 194.638 551.375C194.448 551.205 194.148 551.075 193.738 550.985L192.373 550.685C191.743 550.555 191.273 550.33 190.963 550.01C190.663 549.69 190.513 549.275 190.513 548.765C190.513 548.315 190.628 547.93 190.858 547.61C191.098 547.28 191.433 547.025 191.863 546.845C192.293 546.665 192.793 546.575 193.363 546.575C193.803 546.575 194.218 546.635 194.608 546.755C195.008 546.865 195.368 547.045 195.688 547.295C195.788 547.365 195.853 547.45 195.883 547.55C195.923 547.64 195.928 547.735 195.898 547.835C195.878 547.925 195.833 548.005 195.763 548.075C195.693 548.135 195.608 548.17 195.508 548.18C195.408 548.19 195.303 548.16 195.193 548.09C194.893 547.89 194.588 547.745 194.278 547.655C193.968 547.555 193.663 547.505 193.363 547.505C192.803 547.505 192.378 547.615 192.088 547.835C191.798 548.055 191.653 548.345 191.653 548.705C191.653 548.985 191.743 549.215 191.923 549.395C192.103 549.575 192.383 549.705 192.763 549.785L194.128 550.07C194.778 550.21 195.263 550.435 195.583 550.745C195.913 551.045 196.078 551.455 196.078 551.975C196.078 552.635 195.813 553.16 195.283 553.55C194.753 553.94 194.048 554.135 193.168 554.135ZM198.53 554.075C198.33 554.075 198.18 554.02 198.08 553.91C197.98 553.79 197.93 553.625 197.93 553.415V547.28C197.93 547.07 197.98 546.91 198.08 546.8C198.18 546.69 198.33 546.635 198.53 546.635C198.72 546.635 198.87 546.69 198.98 546.8C199.09 546.91 199.145 547.07 199.145 547.28V553.415C199.145 553.625 199.09 553.79 198.98 553.91C198.88 554.02 198.73 554.075 198.53 554.075ZM198.53 544.955C198.28 544.955 198.085 544.89 197.945 544.76C197.805 544.62 197.735 544.435 197.735 544.205C197.735 543.965 197.805 543.785 197.945 543.665C198.085 543.535 198.28 543.47 198.53 543.47C198.79 543.47 198.985 543.535 199.115 543.665C199.255 543.785 199.325 543.965 199.325 544.205C199.325 544.435 199.255 544.62 199.115 544.76C198.985 544.89 198.79 544.955 198.53 544.955ZM204.446 554.135C203.736 554.135 203.121 553.98 202.601 553.67C202.081 553.36 201.676 552.925 201.386 552.365C201.106 551.795 200.966 551.125 200.966 550.355C200.966 549.775 201.046 549.255 201.206 548.795C201.366 548.325 201.601 547.925 201.911 547.595C202.221 547.265 202.586 547.015 203.006 546.845C203.436 546.665 203.916 546.575 204.446 546.575C205.156 546.575 205.771 546.73 206.291 547.04C206.811 547.35 207.211 547.79 207.491 548.36C207.781 548.92 207.926 549.585 207.926 550.355C207.926 550.935 207.846 551.455 207.686 551.915C207.526 552.375 207.291 552.775 206.981 553.115C206.671 553.445 206.301 553.7 205.871 553.88C205.451 554.05 204.976 554.135 204.446 554.135ZM204.446 553.16C204.896 553.16 205.291 553.05 205.631 552.83C205.971 552.61 206.231 552.29 206.411 551.87C206.601 551.45 206.696 550.945 206.696 550.355C206.696 549.445 206.491 548.75 206.081 548.27C205.681 547.79 205.136 547.55 204.446 547.55C203.986 547.55 203.586 547.66 203.246 547.88C202.916 548.09 202.656 548.405 202.466 548.825C202.286 549.235 202.196 549.745 202.196 550.355C202.196 551.255 202.401 551.95 202.811 552.44C203.221 552.92 203.766 553.16 204.446 553.16ZM210.351 554.105C210.151 554.105 210.001 554.05 209.901 553.94C209.801 553.83 209.751 553.675 209.751 553.475V547.22C209.751 547.02 209.801 546.87 209.901 546.77C210.001 546.66 210.146 546.605 210.336 546.605C210.526 546.605 210.671 546.66 210.771 546.77C210.881 546.87 210.936 547.02 210.936 547.22V548.51L210.771 548.33C210.981 547.75 211.321 547.315 211.791 547.025C212.271 546.725 212.821 546.575 213.441 546.575C214.021 546.575 214.501 546.68 214.881 546.89C215.271 547.1 215.561 547.42 215.751 547.85C215.941 548.27 216.036 548.805 216.036 549.455V553.475C216.036 553.675 215.981 553.83 215.871 553.94C215.771 554.05 215.626 554.105 215.436 554.105C215.236 554.105 215.081 554.05 214.971 553.94C214.871 553.83 214.821 553.675 214.821 553.475V549.53C214.821 548.85 214.686 548.355 214.416 548.045C214.156 547.725 213.736 547.565 213.156 547.565C212.486 547.565 211.951 547.775 211.551 548.195C211.161 548.605 210.966 549.155 210.966 549.845V553.475C210.966 553.895 210.761 554.105 210.351 554.105ZM220.737 554.135C220.287 554.135 219.832 554.08 219.372 553.97C218.922 553.86 218.502 553.67 218.112 553.4C218.012 553.33 217.942 553.25 217.902 553.16C217.862 553.06 217.847 552.965 217.857 552.875C217.877 552.775 217.917 552.69 217.977 552.62C218.047 552.55 218.127 552.51 218.217 552.5C218.317 552.48 218.427 552.5 218.547 552.56C218.937 552.8 219.312 552.97 219.672 553.07C220.042 553.16 220.407 553.205 220.767 553.205C221.337 553.205 221.767 553.1 222.057 552.89C222.347 552.68 222.492 552.395 222.492 552.035C222.492 551.755 222.397 551.535 222.207 551.375C222.017 551.205 221.717 551.075 221.307 550.985L219.942 550.685C219.312 550.555 218.842 550.33 218.532 550.01C218.232 549.69 218.082 549.275 218.082 548.765C218.082 548.315 218.197 547.93 218.427 547.61C218.667 547.28 219.002 547.025 219.432 546.845C219.862 546.665 220.362 546.575 220.932 546.575C221.372 546.575 221.787 546.635 222.177 546.755C222.577 546.865 222.937 547.045 223.257 547.295C223.357 547.365 223.422 547.45 223.452 547.55C223.492 547.64 223.497 547.735 223.467 547.835C223.447 547.925 223.402 548.005 223.332 548.075C223.262 548.135 223.177 548.17 223.077 548.18C222.977 548.19 222.872 548.16 222.762 548.09C222.462 547.89 222.157 547.745 221.847 547.655C221.537 547.555 221.232 547.505 220.932 547.505C220.372 547.505 219.947 547.615 219.657 547.835C219.367 548.055 219.222 548.345 219.222 548.705C219.222 548.985 219.312 549.215 219.492 549.395C219.672 549.575 219.952 549.705 220.332 549.785L221.697 550.07C222.347 550.21 222.832 550.435 223.152 550.745C223.482 551.045 223.647 551.455 223.647 551.975C223.647 552.635 223.382 553.16 222.852 553.55C222.322 553.94 221.617 554.135 220.737 554.135ZM231.661 554.135C231.161 554.135 230.711 554.04 230.311 553.85C229.921 553.65 229.611 553.38 229.381 553.04C229.151 552.7 229.036 552.32 229.036 551.9C229.036 551.36 229.171 550.935 229.441 550.625C229.721 550.315 230.176 550.095 230.806 549.965C231.446 549.835 232.316 549.77 233.416 549.77H234.091V550.565H233.431C232.621 550.565 231.981 550.605 231.511 550.685C231.051 550.755 230.726 550.88 230.536 551.06C230.356 551.24 230.266 551.495 230.266 551.825C230.266 552.235 230.406 552.57 230.686 552.83C230.976 553.09 231.366 553.22 231.856 553.22C232.256 553.22 232.606 553.125 232.906 552.935C233.216 552.745 233.456 552.485 233.626 552.155C233.806 551.825 233.896 551.445 233.896 551.015V549.305C233.896 548.685 233.771 548.24 233.521 547.97C233.271 547.69 232.861 547.55 232.291 547.55C231.941 547.55 231.591 547.595 231.241 547.685C230.891 547.775 230.521 547.92 230.131 548.12C229.991 548.19 229.871 548.215 229.771 548.195C229.671 548.165 229.591 548.11 229.531 548.03C229.471 547.95 229.436 547.86 229.426 547.76C229.416 547.65 229.436 547.545 229.486 547.445C229.546 547.345 229.636 547.265 229.756 547.205C230.196 546.985 230.631 546.825 231.061 546.725C231.491 546.625 231.901 546.575 232.291 546.575C232.921 546.575 233.441 546.68 233.851 546.89C234.261 547.09 234.566 547.4 234.766 547.82C234.966 548.23 235.066 548.76 235.066 549.41V553.475C235.066 553.675 235.016 553.83 234.916 553.94C234.826 554.05 234.691 554.105 234.511 554.105C234.321 554.105 234.176 554.05 234.076 553.94C233.976 553.83 233.926 553.675 233.926 553.475V552.305H234.061C233.981 552.685 233.826 553.01 233.596 553.28C233.376 553.55 233.101 553.76 232.771 553.91C232.441 554.06 232.071 554.135 231.661 554.135ZM237.935 554.105C237.735 554.105 237.58 554.05 237.47 553.94C237.37 553.83 237.32 553.675 237.32 553.475V547.22C237.32 547.02 237.37 546.87 237.47 546.77C237.57 546.66 237.715 546.605 237.905 546.605C238.095 546.605 238.24 546.66 238.34 546.77C238.45 546.87 238.505 547.02 238.505 547.22V548.435H238.355C238.515 547.845 238.82 547.39 239.27 547.07C239.72 546.75 240.275 546.58 240.935 546.56C241.085 546.55 241.205 546.585 241.295 546.665C241.385 546.735 241.435 546.86 241.445 547.04C241.455 547.21 241.415 547.345 241.325 547.445C241.235 547.545 241.095 547.605 240.905 547.625L240.665 547.655C239.985 547.715 239.46 547.935 239.09 548.315C238.73 548.685 238.55 549.195 238.55 549.845V553.475C238.55 553.675 238.495 553.83 238.385 553.94C238.285 554.05 238.135 554.105 237.935 554.105ZM245.893 554.135C245.123 554.135 244.458 553.985 243.898 553.685C243.348 553.375 242.918 552.94 242.608 552.38C242.308 551.82 242.158 551.15 242.158 550.37C242.158 549.61 242.308 548.95 242.608 548.39C242.908 547.82 243.318 547.375 243.838 547.055C244.368 546.735 244.978 546.575 245.668 546.575C246.158 546.575 246.598 546.66 246.988 546.83C247.378 546.99 247.708 547.225 247.978 547.535C248.258 547.845 248.468 548.22 248.608 548.66C248.758 549.1 248.833 549.595 248.833 550.145C248.833 550.305 248.788 550.425 248.698 550.505C248.608 550.575 248.478 550.61 248.308 550.61H243.088V549.815H248.023L247.783 550.01C247.783 549.47 247.703 549.015 247.543 548.645C247.383 548.265 247.148 547.975 246.838 547.775C246.538 547.575 246.158 547.475 245.698 547.475C245.188 547.475 244.753 547.595 244.393 547.835C244.043 548.065 243.778 548.39 243.598 548.81C243.418 549.22 243.328 549.7 243.328 550.25V550.34C243.328 551.26 243.548 551.96 243.988 552.44C244.438 552.92 245.073 553.16 245.893 553.16C246.233 553.16 246.568 553.115 246.898 553.025C247.238 552.935 247.568 552.785 247.888 552.575C248.028 552.485 248.153 552.445 248.263 552.455C248.383 552.455 248.478 552.49 248.548 552.56C248.618 552.62 248.663 552.7 248.683 552.8C248.713 552.89 248.703 552.99 248.653 553.1C248.613 553.21 248.528 553.305 248.398 553.385C248.068 553.625 247.678 553.81 247.228 553.94C246.778 554.07 246.333 554.135 245.893 554.135ZM255.058 556.805C254.858 556.805 254.708 556.75 254.608 556.64C254.508 556.54 254.458 556.39 254.458 556.19V547.22C254.458 547.02 254.508 546.87 254.608 546.77C254.708 546.66 254.853 546.605 255.043 546.605C255.243 546.605 255.393 546.66 255.493 546.77C255.603 546.87 255.658 547.02 255.658 547.22V548.645L255.493 548.435C255.653 547.865 255.968 547.415 256.438 547.085C256.918 546.745 257.488 546.575 258.148 546.575C258.798 546.575 259.363 546.73 259.843 547.04C260.333 547.34 260.708 547.775 260.968 548.345C261.238 548.905 261.373 549.575 261.373 550.355C261.373 551.125 261.238 551.795 260.968 552.365C260.708 552.925 260.338 553.36 259.858 553.67C259.378 553.98 258.808 554.135 258.148 554.135C257.488 554.135 256.923 553.97 256.453 553.64C255.983 553.3 255.663 552.85 255.493 552.29H255.673V556.19C255.673 556.39 255.618 556.54 255.508 556.64C255.398 556.75 255.248 556.805 255.058 556.805ZM257.893 553.16C258.353 553.16 258.748 553.05 259.078 552.83C259.418 552.61 259.678 552.29 259.858 551.87C260.048 551.45 260.143 550.945 260.143 550.355C260.143 549.445 259.938 548.75 259.528 548.27C259.128 547.79 258.583 547.55 257.893 547.55C257.443 547.55 257.048 547.66 256.708 547.88C256.368 548.09 256.103 548.405 255.913 548.825C255.733 549.235 255.643 549.745 255.643 550.355C255.643 551.255 255.848 551.95 256.258 552.44C256.668 552.92 257.213 553.16 257.893 553.16ZM263.818 554.105C263.618 554.105 263.463 554.05 263.353 553.94C263.253 553.83 263.203 553.675 263.203 553.475V547.22C263.203 547.02 263.253 546.87 263.353 546.77C263.453 546.66 263.598 546.605 263.788 546.605C263.978 546.605 264.123 546.66 264.223 546.77C264.333 546.87 264.388 547.02 264.388 547.22V548.435H264.238C264.398 547.845 264.703 547.39 265.153 547.07C265.603 546.75 266.158 546.58 266.818 546.56C266.968 546.55 267.088 546.585 267.178 546.665C267.268 546.735 267.318 546.86 267.328 547.04C267.338 547.21 267.298 547.345 267.208 547.445C267.118 547.545 266.978 547.605 266.788 547.625L266.548 547.655C265.868 547.715 265.343 547.935 264.973 548.315C264.613 548.685 264.433 549.195 264.433 549.845V553.475C264.433 553.675 264.378 553.83 264.268 553.94C264.168 554.05 264.018 554.105 263.818 554.105ZM271.777 554.135C271.007 554.135 270.342 553.985 269.782 553.685C269.232 553.375 268.802 552.94 268.492 552.38C268.192 551.82 268.042 551.15 268.042 550.37C268.042 549.61 268.192 548.95 268.492 548.39C268.792 547.82 269.202 547.375 269.722 547.055C270.252 546.735 270.862 546.575 271.552 546.575C272.042 546.575 272.482 546.66 272.872 546.83C273.262 546.99 273.592 547.225 273.862 547.535C274.142 547.845 274.352 548.22 274.492 548.66C274.642 549.1 274.717 549.595 274.717 550.145C274.717 550.305 274.672 550.425 274.582 550.505C274.492 550.575 274.362 550.61 274.192 550.61H268.972V549.815H273.907L273.667 550.01C273.667 549.47 273.587 549.015 273.427 548.645C273.267 548.265 273.032 547.975 272.722 547.775C272.422 547.575 272.042 547.475 271.582 547.475C271.072 547.475 270.637 547.595 270.277 547.835C269.927 548.065 269.662 548.39 269.482 548.81C269.302 549.22 269.212 549.7 269.212 550.25V550.34C269.212 551.26 269.432 551.96 269.872 552.44C270.322 552.92 270.957 553.16 271.777 553.16C272.117 553.16 272.452 553.115 272.782 553.025C273.122 552.935 273.452 552.785 273.772 552.575C273.912 552.485 274.037 552.445 274.147 552.455C274.267 552.455 274.362 552.49 274.432 552.56C274.502 552.62 274.547 552.7 274.567 552.8C274.597 552.89 274.587 552.99 274.537 553.1C274.497 553.21 274.412 553.305 274.282 553.385C273.952 553.625 273.562 553.81 273.112 553.94C272.662 554.07 272.217 554.135 271.777 554.135ZM278.935 554.135C278.485 554.135 278.03 554.08 277.57 553.97C277.12 553.86 276.7 553.67 276.31 553.4C276.21 553.33 276.14 553.25 276.1 553.16C276.06 553.06 276.045 552.965 276.055 552.875C276.075 552.775 276.115 552.69 276.175 552.62C276.245 552.55 276.325 552.51 276.415 552.5C276.515 552.48 276.625 552.5 276.745 552.56C277.135 552.8 277.51 552.97 277.87 553.07C278.24 553.16 278.605 553.205 278.965 553.205C279.535 553.205 279.965 553.1 280.255 552.89C280.545 552.68 280.69 552.395 280.69 552.035C280.69 551.755 280.595 551.535 280.405 551.375C280.215 551.205 279.915 551.075 279.505 550.985L278.14 550.685C277.51 550.555 277.04 550.33 276.73 550.01C276.43 549.69 276.28 549.275 276.28 548.765C276.28 548.315 276.395 547.93 276.625 547.61C276.865 547.28 277.2 547.025 277.63 546.845C278.06 546.665 278.56 546.575 279.13 546.575C279.57 546.575 279.985 546.635 280.375 546.755C280.775 546.865 281.135 547.045 281.455 547.295C281.555 547.365 281.62 547.45 281.65 547.55C281.69 547.64 281.695 547.735 281.665 547.835C281.645 547.925 281.6 548.005 281.53 548.075C281.46 548.135 281.375 548.17 281.275 548.18C281.175 548.19 281.07 548.16 280.96 548.09C280.66 547.89 280.355 547.745 280.045 547.655C279.735 547.555 279.43 547.505 279.13 547.505C278.57 547.505 278.145 547.615 277.855 547.835C277.565 548.055 277.42 548.345 277.42 548.705C277.42 548.985 277.51 549.215 277.69 549.395C277.87 549.575 278.15 549.705 278.53 549.785L279.895 550.07C280.545 550.21 281.03 550.435 281.35 550.745C281.68 551.045 281.845 551.455 281.845 551.975C281.845 552.635 281.58 553.16 281.05 553.55C280.52 553.94 279.815 554.135 278.935 554.135ZM286.982 554.135C286.212 554.135 285.547 553.985 284.987 553.685C284.437 553.375 284.007 552.94 283.697 552.38C283.397 551.82 283.247 551.15 283.247 550.37C283.247 549.61 283.397 548.95 283.697 548.39C283.997 547.82 284.407 547.375 284.927 547.055C285.457 546.735 286.067 546.575 286.757 546.575C287.247 546.575 287.687 546.66 288.077 546.83C288.467 546.99 288.797 547.225 289.067 547.535C289.347 547.845 289.557 548.22 289.697 548.66C289.847 549.1 289.922 549.595 289.922 550.145C289.922 550.305 289.877 550.425 289.787 550.505C289.697 550.575 289.567 550.61 289.397 550.61H284.177V549.815H289.112L288.872 550.01C288.872 549.47 288.792 549.015 288.632 548.645C288.472 548.265 288.237 547.975 287.927 547.775C287.627 547.575 287.247 547.475 286.787 547.475C286.277 547.475 285.842 547.595 285.482 547.835C285.132 548.065 284.867 548.39 284.687 548.81C284.507 549.22 284.417 549.7 284.417 550.25V550.34C284.417 551.26 284.637 551.96 285.077 552.44C285.527 552.92 286.162 553.16 286.982 553.16C287.322 553.16 287.657 553.115 287.987 553.025C288.327 552.935 288.657 552.785 288.977 552.575C289.117 552.485 289.242 552.445 289.352 552.455C289.472 552.455 289.567 552.49 289.637 552.56C289.707 552.62 289.752 552.7 289.772 552.8C289.802 552.89 289.792 552.99 289.742 553.1C289.702 553.21 289.617 553.305 289.487 553.385C289.157 553.625 288.767 553.81 288.317 553.94C287.867 554.07 287.422 554.135 286.982 554.135ZM292.28 554.105C292.08 554.105 291.93 554.05 291.83 553.94C291.73 553.83 291.68 553.675 291.68 553.475V547.22C291.68 547.02 291.73 546.87 291.83 546.77C291.93 546.66 292.075 546.605 292.265 546.605C292.455 546.605 292.6 546.66 292.7 546.77C292.81 546.87 292.865 547.02 292.865 547.22V548.51L292.7 548.33C292.91 547.75 293.25 547.315 293.72 547.025C294.2 546.725 294.75 546.575 295.37 546.575C295.95 546.575 296.43 546.68 296.81 546.89C297.2 547.1 297.49 547.42 297.68 547.85C297.87 548.27 297.965 548.805 297.965 549.455V553.475C297.965 553.675 297.91 553.83 297.8 553.94C297.7 554.05 297.555 554.105 297.365 554.105C297.165 554.105 297.01 554.05 296.9 553.94C296.8 553.83 296.75 553.675 296.75 553.475V549.53C296.75 548.85 296.615 548.355 296.345 548.045C296.085 547.725 295.665 547.565 295.085 547.565C294.415 547.565 293.88 547.775 293.48 548.195C293.09 548.605 292.895 549.155 292.895 549.845V553.475C292.895 553.895 292.69 554.105 292.28 554.105ZM303.13 554.135C302.56 554.135 302.08 554.035 301.69 553.835C301.31 553.625 301.025 553.325 300.835 552.935C300.645 552.535 300.55 552.05 300.55 551.48V547.655H299.545C299.375 547.655 299.245 547.615 299.155 547.535C299.065 547.445 299.02 547.325 299.02 547.175C299.02 547.025 299.065 546.91 299.155 546.83C299.245 546.75 299.375 546.71 299.545 546.71H300.55V544.985C300.55 544.785 300.605 544.635 300.715 544.535C300.825 544.425 300.975 544.37 301.165 544.37C301.355 544.37 301.5 544.425 301.6 544.535C301.71 544.635 301.765 544.785 301.765 544.985V546.71H303.655C303.825 546.71 303.955 546.75 304.045 546.83C304.135 546.91 304.18 547.025 304.18 547.175C304.18 547.325 304.135 547.445 304.045 547.535C303.955 547.615 303.825 547.655 303.655 547.655H301.765V551.36C301.765 551.93 301.885 552.365 302.125 552.665C302.365 552.955 302.755 553.1 303.295 553.1C303.485 553.1 303.645 553.08 303.775 553.04C303.915 553 304.03 552.98 304.12 552.98C304.21 552.97 304.285 553 304.345 553.07C304.405 553.14 304.435 553.26 304.435 553.43C304.435 553.55 304.41 553.66 304.36 553.76C304.32 553.86 304.245 553.93 304.135 553.97C304.015 554.01 303.855 554.045 303.655 554.075C303.465 554.115 303.29 554.135 303.13 554.135ZM308.661 554.135C307.891 554.135 307.226 553.985 306.666 553.685C306.116 553.375 305.686 552.94 305.376 552.38C305.076 551.82 304.926 551.15 304.926 550.37C304.926 549.61 305.076 548.95 305.376 548.39C305.676 547.82 306.086 547.375 306.606 547.055C307.136 546.735 307.746 546.575 308.436 546.575C308.926 546.575 309.366 546.66 309.756 546.83C310.146 546.99 310.476 547.225 310.746 547.535C311.026 547.845 311.236 548.22 311.376 548.66C311.526 549.1 311.601 549.595 311.601 550.145C311.601 550.305 311.556 550.425 311.466 550.505C311.376 550.575 311.246 550.61 311.076 550.61H305.856V549.815H310.791L310.551 550.01C310.551 549.47 310.471 549.015 310.311 548.645C310.151 548.265 309.916 547.975 309.606 547.775C309.306 547.575 308.926 547.475 308.466 547.475C307.956 547.475 307.521 547.595 307.161 547.835C306.811 548.065 306.546 548.39 306.366 548.81C306.186 549.22 306.096 549.7 306.096 550.25V550.34C306.096 551.26 306.316 551.96 306.756 552.44C307.206 552.92 307.841 553.16 308.661 553.16C309.001 553.16 309.336 553.115 309.666 553.025C310.006 552.935 310.336 552.785 310.656 552.575C310.796 552.485 310.921 552.445 311.031 552.455C311.151 552.455 311.246 552.49 311.316 552.56C311.386 552.62 311.431 552.7 311.451 552.8C311.481 552.89 311.471 552.99 311.421 553.1C311.381 553.21 311.296 553.305 311.166 553.385C310.836 553.625 310.446 553.81 309.996 553.94C309.546 554.07 309.101 554.135 308.661 554.135ZM316.135 554.135C315.485 554.135 314.915 553.98 314.425 553.67C313.945 553.36 313.57 552.925 313.3 552.365C313.04 551.795 312.91 551.125 312.91 550.355C312.91 549.575 313.04 548.905 313.3 548.345C313.57 547.775 313.945 547.34 314.425 547.04C314.915 546.73 315.485 546.575 316.135 546.575C316.795 546.575 317.36 546.74 317.83 547.07C318.3 547.4 318.615 547.845 318.775 548.405H318.61V543.935C318.61 543.735 318.66 543.585 318.76 543.485C318.87 543.375 319.025 543.32 319.225 543.32C319.415 543.32 319.56 543.375 319.66 543.485C319.77 543.585 319.825 543.735 319.825 543.935V553.475C319.825 553.675 319.775 553.83 319.675 553.94C319.575 554.05 319.425 554.105 319.225 554.105C319.035 554.105 318.885 554.05 318.775 553.94C318.675 553.83 318.625 553.675 318.625 553.475V552.05L318.79 552.26C318.63 552.83 318.31 553.285 317.83 553.625C317.36 553.965 316.795 554.135 316.135 554.135ZM316.39 553.16C316.84 553.16 317.235 553.05 317.575 552.83C317.915 552.61 318.175 552.29 318.355 551.87C318.545 551.45 318.64 550.945 318.64 550.355C318.64 549.445 318.435 548.75 318.025 548.27C317.625 547.79 317.08 547.55 316.39 547.55C315.93 547.55 315.53 547.66 315.19 547.88C314.86 548.09 314.6 548.405 314.41 548.825C314.23 549.235 314.14 549.745 314.14 550.355C314.14 551.255 314.345 551.95 314.755 552.44C315.165 552.92 315.71 553.16 316.39 553.16ZM322.825 555.425C322.725 555.555 322.62 555.63 322.51 555.65C322.4 555.67 322.305 555.65 322.225 555.59C322.145 555.53 322.1 555.445 322.09 555.335C322.09 555.225 322.14 555.105 322.24 554.975C322.4 554.765 322.51 554.55 322.57 554.33C322.63 554.12 322.66 553.925 322.66 553.745L322.72 554.06C322.46 554.06 322.25 553.985 322.09 553.835C321.94 553.675 321.865 553.475 321.865 553.235C321.865 552.995 321.935 552.8 322.075 552.65C322.225 552.49 322.42 552.41 322.66 552.41C322.92 552.41 323.125 552.5 323.275 552.68C323.425 552.85 323.5 553.1 323.5 553.43C323.5 553.64 323.48 553.855 323.44 554.075C323.4 554.305 323.33 554.535 323.23 554.765C323.13 554.995 322.995 555.215 322.825 555.425ZM331.845 554.135C331.395 554.135 330.94 554.08 330.48 553.97C330.03 553.86 329.61 553.67 329.22 553.4C329.12 553.33 329.05 553.25 329.01 553.16C328.97 553.06 328.955 552.965 328.965 552.875C328.985 552.775 329.025 552.69 329.085 552.62C329.155 552.55 329.235 552.51 329.325 552.5C329.425 552.48 329.535 552.5 329.655 552.56C330.045 552.8 330.42 552.97 330.78 553.07C331.15 553.16 331.515 553.205 331.875 553.205C332.445 553.205 332.875 553.1 333.165 552.89C333.455 552.68 333.6 552.395 333.6 552.035C333.6 551.755 333.505 551.535 333.315 551.375C333.125 551.205 332.825 551.075 332.415 550.985L331.05 550.685C330.42 550.555 329.95 550.33 329.64 550.01C329.34 549.69 329.19 549.275 329.19 548.765C329.19 548.315 329.305 547.93 329.535 547.61C329.775 547.28 330.11 547.025 330.54 546.845C330.97 546.665 331.47 546.575 332.04 546.575C332.48 546.575 332.895 546.635 333.285 546.755C333.685 546.865 334.045 547.045 334.365 547.295C334.465 547.365 334.53 547.45 334.56 547.55C334.6 547.64 334.605 547.735 334.575 547.835C334.555 547.925 334.51 548.005 334.44 548.075C334.37 548.135 334.285 548.17 334.185 548.18C334.085 548.19 333.98 548.16 333.87 548.09C333.57 547.89 333.265 547.745 332.955 547.655C332.645 547.555 332.34 547.505 332.04 547.505C331.48 547.505 331.055 547.615 330.765 547.835C330.475 548.055 330.33 548.345 330.33 548.705C330.33 548.985 330.42 549.215 330.6 549.395C330.78 549.575 331.06 549.705 331.44 549.785L332.805 550.07C333.455 550.21 333.94 550.435 334.26 550.745C334.59 551.045 334.755 551.455 334.755 551.975C334.755 552.635 334.49 553.16 333.96 553.55C333.43 553.94 332.725 554.135 331.845 554.135ZM337.207 554.105C337.007 554.105 336.857 554.05 336.757 553.94C336.657 553.83 336.607 553.675 336.607 553.475V543.935C336.607 543.735 336.657 543.585 336.757 543.485C336.857 543.375 337.007 543.32 337.207 543.32C337.397 543.32 337.547 543.375 337.657 543.485C337.767 543.585 337.822 543.735 337.822 543.935V548.33H337.627C337.837 547.75 338.177 547.315 338.647 547.025C339.127 546.725 339.677 546.575 340.297 546.575C340.877 546.575 341.357 546.68 341.737 546.89C342.127 547.1 342.417 547.42 342.607 547.85C342.797 548.27 342.892 548.805 342.892 549.455V553.475C342.892 553.675 342.837 553.83 342.727 553.94C342.627 554.05 342.482 554.105 342.292 554.105C342.092 554.105 341.937 554.05 341.827 553.94C341.727 553.83 341.677 553.675 341.677 553.475V549.53C341.677 548.85 341.542 548.355 341.272 548.045C341.012 547.725 340.592 547.565 340.012 547.565C339.342 547.565 338.807 547.775 338.407 548.195C338.017 548.605 337.822 549.155 337.822 549.845V553.475C337.822 553.895 337.617 554.105 337.207 554.105ZM348.162 554.135C347.452 554.135 346.837 553.98 346.317 553.67C345.797 553.36 345.392 552.925 345.102 552.365C344.822 551.795 344.682 551.125 344.682 550.355C344.682 549.775 344.762 549.255 344.922 548.795C345.082 548.325 345.317 547.925 345.627 547.595C345.937 547.265 346.302 547.015 346.722 546.845C347.152 546.665 347.632 546.575 348.162 546.575C348.872 546.575 349.487 546.73 350.007 547.04C350.527 547.35 350.927 547.79 351.207 548.36C351.497 548.92 351.642 549.585 351.642 550.355C351.642 550.935 351.562 551.455 351.402 551.915C351.242 552.375 351.007 552.775 350.697 553.115C350.387 553.445 350.017 553.7 349.587 553.88C349.167 554.05 348.692 554.135 348.162 554.135ZM348.162 553.16C348.612 553.16 349.007 553.05 349.347 552.83C349.687 552.61 349.947 552.29 350.127 551.87C350.317 551.45 350.412 550.945 350.412 550.355C350.412 549.445 350.207 548.75 349.797 548.27C349.397 547.79 348.852 547.55 348.162 547.55C347.702 547.55 347.302 547.66 346.962 547.88C346.632 548.09 346.372 548.405 346.182 548.825C346.002 549.235 345.912 549.745 345.912 550.355C345.912 551.255 346.117 551.95 346.527 552.44C346.937 552.92 347.482 553.16 348.162 553.16ZM355.885 554.105C355.715 554.105 355.565 554.06 355.435 553.97C355.305 553.88 355.2 553.735 355.12 553.535L352.885 547.46C352.825 547.29 352.805 547.14 352.825 547.01C352.855 546.88 352.92 546.78 353.02 546.71C353.12 546.64 353.245 546.605 353.395 546.605C353.545 546.605 353.665 546.64 353.755 546.71C353.855 546.78 353.935 546.91 353.995 547.1L356.095 553.1H355.735L357.895 547.1C357.965 546.92 358.05 546.795 358.15 546.725C358.26 546.645 358.4 546.605 358.57 546.605C358.73 546.605 358.865 546.645 358.975 546.725C359.085 546.805 359.17 546.93 359.23 547.1L361.345 553.1H361L363.13 547.07C363.2 546.89 363.285 546.77 363.385 546.71C363.485 546.64 363.605 546.605 363.745 546.605C363.905 546.605 364.025 546.645 364.105 546.725C364.195 546.805 364.245 546.91 364.255 547.04C364.265 547.17 364.24 547.31 364.18 547.46L361.945 553.535C361.875 553.725 361.77 553.87 361.63 553.97C361.5 554.06 361.35 554.105 361.18 554.105C361.01 554.105 360.86 554.06 360.73 553.97C360.6 553.87 360.5 553.725 360.43 553.535L358.21 547.445H358.855L356.65 553.535C356.58 553.725 356.48 553.87 356.35 553.97C356.22 554.06 356.065 554.105 355.885 554.105ZM366.577 554.075C366.377 554.075 366.227 554.02 366.127 553.91C366.027 553.79 365.977 553.625 365.977 553.415V547.28C365.977 547.07 366.027 546.91 366.127 546.8C366.227 546.69 366.377 546.635 366.577 546.635C366.767 546.635 366.917 546.69 367.027 546.8C367.137 546.91 367.192 547.07 367.192 547.28V553.415C367.192 553.625 367.137 553.79 367.027 553.91C366.927 554.02 366.777 554.075 366.577 554.075ZM366.577 544.955C366.327 544.955 366.132 544.89 365.992 544.76C365.852 544.62 365.782 544.435 365.782 544.205C365.782 543.965 365.852 543.785 365.992 543.665C366.132 543.535 366.327 543.47 366.577 543.47C366.837 543.47 367.032 543.535 367.162 543.665C367.302 543.785 367.372 543.965 367.372 544.205C367.372 544.435 367.302 544.62 367.162 544.76C367.032 544.89 366.837 544.955 366.577 544.955ZM370.063 554.105C369.863 554.105 369.713 554.05 369.613 553.94C369.513 553.83 369.463 553.675 369.463 553.475V547.22C369.463 547.02 369.513 546.87 369.613 546.77C369.713 546.66 369.858 546.605 370.048 546.605C370.238 546.605 370.383 546.66 370.483 546.77C370.593 546.87 370.648 547.02 370.648 547.22V548.51L370.483 548.33C370.693 547.75 371.033 547.315 371.503 547.025C371.983 546.725 372.533 546.575 373.153 546.575C373.733 546.575 374.213 546.68 374.593 546.89C374.983 547.1 375.273 547.42 375.463 547.85C375.653 548.27 375.748 548.805 375.748 549.455V553.475C375.748 553.675 375.693 553.83 375.583 553.94C375.483 554.05 375.338 554.105 375.148 554.105C374.948 554.105 374.793 554.05 374.683 553.94C374.583 553.83 374.533 553.675 374.533 553.475V549.53C374.533 548.85 374.398 548.355 374.128 548.045C373.868 547.725 373.448 547.565 372.868 547.565C372.198 547.565 371.663 547.775 371.263 548.195C370.873 548.605 370.678 549.155 370.678 549.845V553.475C370.678 553.895 370.473 554.105 370.063 554.105ZM381.214 556.835C380.684 556.835 380.164 556.77 379.654 556.64C379.154 556.52 378.699 556.325 378.289 556.055C378.169 555.985 378.089 555.9 378.049 555.8C378.019 555.7 378.014 555.6 378.034 555.5C378.054 555.41 378.099 555.325 378.169 555.245C378.239 555.175 378.319 555.13 378.409 555.11C378.509 555.09 378.609 555.105 378.709 555.155C379.149 555.425 379.569 555.61 379.969 555.71C380.369 555.81 380.764 555.86 381.154 555.86C381.864 555.86 382.399 555.67 382.759 555.29C383.129 554.91 383.314 554.36 383.314 553.64V551.945H383.464C383.314 552.525 382.994 552.985 382.504 553.325C382.024 553.665 381.459 553.835 380.809 553.835C380.139 553.835 379.559 553.685 379.069 553.385C378.579 553.075 378.199 552.645 377.929 552.095C377.669 551.545 377.539 550.91 377.539 550.19C377.539 549.65 377.614 549.16 377.764 548.72C377.914 548.27 378.129 547.89 378.409 547.58C378.699 547.26 379.044 547.015 379.444 546.845C379.854 546.665 380.309 546.575 380.809 546.575C381.469 546.575 382.039 546.745 382.519 547.085C382.999 547.415 383.309 547.865 383.449 548.435L383.299 548.615V547.22C383.299 547.02 383.349 546.87 383.449 546.77C383.559 546.66 383.709 546.605 383.899 546.605C384.099 546.605 384.249 546.66 384.349 546.77C384.449 546.87 384.499 547.02 384.499 547.22V553.475C384.499 554.585 384.219 555.42 383.659 555.98C383.109 556.55 382.294 556.835 381.214 556.835ZM381.034 552.845C381.504 552.845 381.909 552.74 382.249 552.53C382.589 552.31 382.849 552 383.029 551.6C383.219 551.2 383.314 550.73 383.314 550.19C383.314 549.38 383.109 548.74 382.699 548.27C382.289 547.79 381.734 547.55 381.034 547.55C380.574 547.55 380.174 547.66 379.834 547.88C379.494 548.09 379.229 548.395 379.039 548.795C378.859 549.185 378.769 549.65 378.769 550.19C378.769 551 378.974 551.645 379.384 552.125C379.794 552.605 380.344 552.845 381.034 552.845ZM393.57 554.135C393 554.135 392.52 554.035 392.13 553.835C391.75 553.625 391.465 553.325 391.275 552.935C391.085 552.535 390.99 552.05 390.99 551.48V547.655H389.985C389.815 547.655 389.685 547.615 389.595 547.535C389.505 547.445 389.46 547.325 389.46 547.175C389.46 547.025 389.505 546.91 389.595 546.83C389.685 546.75 389.815 546.71 389.985 546.71H390.99V544.985C390.99 544.785 391.045 544.635 391.155 544.535C391.265 544.425 391.415 544.37 391.605 544.37C391.795 544.37 391.94 544.425 392.04 544.535C392.15 544.635 392.205 544.785 392.205 544.985V546.71H394.095C394.265 546.71 394.395 546.75 394.485 546.83C394.575 546.91 394.62 547.025 394.62 547.175C394.62 547.325 394.575 547.445 394.485 547.535C394.395 547.615 394.265 547.655 394.095 547.655H392.205V551.36C392.205 551.93 392.325 552.365 392.565 552.665C392.805 552.955 393.195 553.1 393.735 553.1C393.925 553.1 394.085 553.08 394.215 553.04C394.355 553 394.47 552.98 394.56 552.98C394.65 552.97 394.725 553 394.785 553.07C394.845 553.14 394.875 553.26 394.875 553.43C394.875 553.55 394.85 553.66 394.8 553.76C394.76 553.86 394.685 553.93 394.575 553.97C394.455 554.01 394.295 554.045 394.095 554.075C393.905 554.115 393.73 554.135 393.57 554.135ZM396.577 554.105C396.377 554.105 396.227 554.05 396.127 553.94C396.027 553.83 395.977 553.675 395.977 553.475V543.935C395.977 543.735 396.027 543.585 396.127 543.485C396.227 543.375 396.377 543.32 396.577 543.32C396.767 543.32 396.917 543.375 397.027 543.485C397.137 543.585 397.192 543.735 397.192 543.935V548.33H396.997C397.207 547.75 397.547 547.315 398.017 547.025C398.497 546.725 399.047 546.575 399.667 546.575C400.247 546.575 400.727 546.68 401.107 546.89C401.497 547.1 401.787 547.42 401.977 547.85C402.167 548.27 402.262 548.805 402.262 549.455V553.475C402.262 553.675 402.207 553.83 402.097 553.94C401.997 554.05 401.852 554.105 401.662 554.105C401.462 554.105 401.307 554.05 401.197 553.94C401.097 553.83 401.047 553.675 401.047 553.475V549.53C401.047 548.85 400.912 548.355 400.642 548.045C400.382 547.725 399.962 547.565 399.382 547.565C398.712 547.565 398.177 547.775 397.777 548.195C397.387 548.605 397.192 549.155 397.192 549.845V553.475C397.192 553.895 396.987 554.105 396.577 554.105ZM407.787 554.135C407.017 554.135 406.352 553.985 405.792 553.685C405.242 553.375 404.812 552.94 404.502 552.38C404.202 551.82 404.052 551.15 404.052 550.37C404.052 549.61 404.202 548.95 404.502 548.39C404.802 547.82 405.212 547.375 405.732 547.055C406.262 546.735 406.872 546.575 407.562 546.575C408.052 546.575 408.492 546.66 408.882 546.83C409.272 546.99 409.602 547.225 409.872 547.535C410.152 547.845 410.362 548.22 410.502 548.66C410.652 549.1 410.727 549.595 410.727 550.145C410.727 550.305 410.682 550.425 410.592 550.505C410.502 550.575 410.372 550.61 410.202 550.61H404.982V549.815H409.917L409.677 550.01C409.677 549.47 409.597 549.015 409.437 548.645C409.277 548.265 409.042 547.975 408.732 547.775C408.432 547.575 408.052 547.475 407.592 547.475C407.082 547.475 406.647 547.595 406.287 547.835C405.937 548.065 405.672 548.39 405.492 548.81C405.312 549.22 405.222 549.7 405.222 550.25V550.34C405.222 551.26 405.442 551.96 405.882 552.44C406.332 552.92 406.967 553.16 407.787 553.16C408.127 553.16 408.462 553.115 408.792 553.025C409.132 552.935 409.462 552.785 409.782 552.575C409.922 552.485 410.047 552.445 410.157 552.455C410.277 552.455 410.372 552.49 410.442 552.56C410.512 552.62 410.557 552.7 410.577 552.8C410.607 552.89 410.597 552.99 410.547 553.1C410.507 553.21 410.422 553.305 410.292 553.385C409.962 553.625 409.572 553.81 409.122 553.94C408.672 554.07 408.227 554.135 407.787 554.135ZM413.086 554.075C412.886 554.075 412.736 554.02 412.636 553.91C412.536 553.79 412.486 553.625 412.486 553.415V547.28C412.486 547.07 412.536 546.91 412.636 546.8C412.736 546.69 412.886 546.635 413.086 546.635C413.276 546.635 413.426 546.69 413.536 546.8C413.646 546.91 413.701 547.07 413.701 547.28V553.415C413.701 553.625 413.646 553.79 413.536 553.91C413.436 554.02 413.286 554.075 413.086 554.075ZM413.086 544.955C412.836 544.955 412.641 544.89 412.501 544.76C412.361 544.62 412.291 544.435 412.291 544.205C412.291 543.965 412.361 543.785 412.501 543.665C412.641 543.535 412.836 543.47 413.086 543.47C413.346 543.47 413.541 543.535 413.671 543.665C413.811 543.785 413.881 543.965 413.881 544.205C413.881 544.435 413.811 544.62 413.671 544.76C413.541 544.89 413.346 544.955 413.086 544.955ZM416.587 554.105C416.387 554.105 416.232 554.05 416.122 553.94C416.022 553.83 415.972 553.675 415.972 553.475V547.22C415.972 547.02 416.022 546.87 416.122 546.77C416.222 546.66 416.367 546.605 416.557 546.605C416.747 546.605 416.892 546.66 416.992 546.77C417.102 546.87 417.157 547.02 417.157 547.22V548.435H417.007C417.167 547.845 417.472 547.39 417.922 547.07C418.372 546.75 418.927 546.58 419.587 546.56C419.737 546.55 419.857 546.585 419.947 546.665C420.037 546.735 420.087 546.86 420.097 547.04C420.107 547.21 420.067 547.345 419.977 547.445C419.887 547.545 419.747 547.605 419.557 547.625L419.317 547.655C418.637 547.715 418.112 547.935 417.742 548.315C417.382 548.685 417.202 549.195 417.202 549.845V553.475C417.202 553.675 417.147 553.83 417.037 553.94C416.937 554.05 416.787 554.105 416.587 554.105ZM427.51 554.135C427.01 554.135 426.56 554.04 426.16 553.85C425.77 553.65 425.46 553.38 425.23 553.04C425 552.7 424.885 552.32 424.885 551.9C424.885 551.36 425.02 550.935 425.29 550.625C425.57 550.315 426.025 550.095 426.655 549.965C427.295 549.835 428.165 549.77 429.265 549.77H429.94V550.565H429.28C428.47 550.565 427.83 550.605 427.36 550.685C426.9 550.755 426.575 550.88 426.385 551.06C426.205 551.24 426.115 551.495 426.115 551.825C426.115 552.235 426.255 552.57 426.535 552.83C426.825 553.09 427.215 553.22 427.705 553.22C428.105 553.22 428.455 553.125 428.755 552.935C429.065 552.745 429.305 552.485 429.475 552.155C429.655 551.825 429.745 551.445 429.745 551.015V549.305C429.745 548.685 429.62 548.24 429.37 547.97C429.12 547.69 428.71 547.55 428.14 547.55C427.79 547.55 427.44 547.595 427.09 547.685C426.74 547.775 426.37 547.92 425.98 548.12C425.84 548.19 425.72 548.215 425.62 548.195C425.52 548.165 425.44 548.11 425.38 548.03C425.32 547.95 425.285 547.86 425.275 547.76C425.265 547.65 425.285 547.545 425.335 547.445C425.395 547.345 425.485 547.265 425.605 547.205C426.045 546.985 426.48 546.825 426.91 546.725C427.34 546.625 427.75 546.575 428.14 546.575C428.77 546.575 429.29 546.68 429.7 546.89C430.11 547.09 430.415 547.4 430.615 547.82C430.815 548.23 430.915 548.76 430.915 549.41V553.475C430.915 553.675 430.865 553.83 430.765 553.94C430.675 554.05 430.54 554.105 430.36 554.105C430.17 554.105 430.025 554.05 429.925 553.94C429.825 553.83 429.775 553.675 429.775 553.475V552.305H429.91C429.83 552.685 429.675 553.01 429.445 553.28C429.225 553.55 428.95 553.76 428.62 553.91C428.29 554.06 427.92 554.135 427.51 554.135ZM435.944 554.135C435.294 554.135 434.724 553.98 434.234 553.67C433.754 553.36 433.379 552.925 433.109 552.365C432.849 551.795 432.719 551.125 432.719 550.355C432.719 549.575 432.849 548.905 433.109 548.345C433.379 547.775 433.754 547.34 434.234 547.04C434.724 546.73 435.294 546.575 435.944 546.575C436.604 546.575 437.169 546.74 437.639 547.07C438.109 547.4 438.424 547.845 438.584 548.405H438.419V543.935C438.419 543.735 438.469 543.585 438.569 543.485C438.679 543.375 438.834 543.32 439.034 543.32C439.224 543.32 439.369 543.375 439.469 543.485C439.579 543.585 439.634 543.735 439.634 543.935V553.475C439.634 553.675 439.584 553.83 439.484 553.94C439.384 554.05 439.234 554.105 439.034 554.105C438.844 554.105 438.694 554.05 438.584 553.94C438.484 553.83 438.434 553.675 438.434 553.475V552.05L438.599 552.26C438.439 552.83 438.119 553.285 437.639 553.625C437.169 553.965 436.604 554.135 435.944 554.135ZM436.199 553.16C436.649 553.16 437.044 553.05 437.384 552.83C437.724 552.61 437.984 552.29 438.164 551.87C438.354 551.45 438.449 550.945 438.449 550.355C438.449 549.445 438.244 548.75 437.834 548.27C437.434 547.79 436.889 547.55 436.199 547.55C435.739 547.55 435.339 547.66 434.999 547.88C434.669 548.09 434.409 548.405 434.219 548.825C434.039 549.235 433.949 549.745 433.949 550.355C433.949 551.255 434.154 551.95 434.564 552.44C434.974 552.92 435.519 553.16 436.199 553.16ZM444.209 554.135C443.709 554.135 443.259 554.04 442.859 553.85C442.469 553.65 442.159 553.38 441.929 553.04C441.699 552.7 441.584 552.32 441.584 551.9C441.584 551.36 441.719 550.935 441.989 550.625C442.269 550.315 442.724 550.095 443.354 549.965C443.994 549.835 444.864 549.77 445.964 549.77H446.639V550.565H445.979C445.169 550.565 444.529 550.605 444.059 550.685C443.599 550.755 443.274 550.88 443.084 551.06C442.904 551.24 442.814 551.495 442.814 551.825C442.814 552.235 442.954 552.57 443.234 552.83C443.524 553.09 443.914 553.22 444.404 553.22C444.804 553.22 445.154 553.125 445.454 552.935C445.764 552.745 446.004 552.485 446.174 552.155C446.354 551.825 446.444 551.445 446.444 551.015V549.305C446.444 548.685 446.319 548.24 446.069 547.97C445.819 547.69 445.409 547.55 444.839 547.55C444.489 547.55 444.139 547.595 443.789 547.685C443.439 547.775 443.069 547.92 442.679 548.12C442.539 548.19 442.419 548.215 442.319 548.195C442.219 548.165 442.139 548.11 442.079 548.03C442.019 547.95 441.984 547.86 441.974 547.76C441.964 547.65 441.984 547.545 442.034 547.445C442.094 547.345 442.184 547.265 442.304 547.205C442.744 546.985 443.179 546.825 443.609 546.725C444.039 546.625 444.449 546.575 444.839 546.575C445.469 546.575 445.989 546.68 446.399 546.89C446.809 547.09 447.114 547.4 447.314 547.82C447.514 548.23 447.614 548.76 447.614 549.41V553.475C447.614 553.675 447.564 553.83 447.464 553.94C447.374 554.05 447.239 554.105 447.059 554.105C446.869 554.105 446.724 554.05 446.624 553.94C446.524 553.83 446.474 553.675 446.474 553.475V552.305H446.609C446.529 552.685 446.374 553.01 446.144 553.28C445.924 553.55 445.649 553.76 445.319 553.91C444.989 554.06 444.619 554.135 444.209 554.135ZM450.469 556.805C450.269 556.805 450.119 556.75 450.019 556.64C449.919 556.54 449.869 556.39 449.869 556.19V547.22C449.869 547.02 449.919 546.87 450.019 546.77C450.119 546.66 450.264 546.605 450.454 546.605C450.654 546.605 450.804 546.66 450.904 546.77C451.014 546.87 451.069 547.02 451.069 547.22V548.645L450.904 548.435C451.064 547.865 451.379 547.415 451.849 547.085C452.329 546.745 452.899 546.575 453.559 546.575C454.209 546.575 454.774 546.73 455.254 547.04C455.744 547.34 456.119 547.775 456.379 548.345C456.649 548.905 456.784 549.575 456.784 550.355C456.784 551.125 456.649 551.795 456.379 552.365C456.119 552.925 455.749 553.36 455.269 553.67C454.789 553.98 454.219 554.135 453.559 554.135C452.899 554.135 452.334 553.97 451.864 553.64C451.394 553.3 451.074 552.85 450.904 552.29H451.084V556.19C451.084 556.39 451.029 556.54 450.919 556.64C450.809 556.75 450.659 556.805 450.469 556.805ZM453.304 553.16C453.764 553.16 454.159 553.05 454.489 552.83C454.829 552.61 455.089 552.29 455.269 551.87C455.459 551.45 455.554 550.945 455.554 550.355C455.554 549.445 455.349 548.75 454.939 548.27C454.539 547.79 453.994 547.55 453.304 547.55C452.854 547.55 452.459 547.66 452.119 547.88C451.779 548.09 451.514 548.405 451.324 548.825C451.144 549.235 451.054 549.745 451.054 550.355C451.054 551.255 451.259 551.95 451.669 552.44C452.079 552.92 452.624 553.16 453.304 553.16ZM461.465 554.135C460.895 554.135 460.415 554.035 460.025 553.835C459.645 553.625 459.36 553.325 459.17 552.935C458.98 552.535 458.885 552.05 458.885 551.48V547.655H457.88C457.71 547.655 457.58 547.615 457.49 547.535C457.4 547.445 457.355 547.325 457.355 547.175C457.355 547.025 457.4 546.91 457.49 546.83C457.58 546.75 457.71 546.71 457.88 546.71H458.885V544.985C458.885 544.785 458.94 544.635 459.05 544.535C459.16 544.425 459.31 544.37 459.5 544.37C459.69 544.37 459.835 544.425 459.935 544.535C460.045 544.635 460.1 544.785 460.1 544.985V546.71H461.99C462.16 546.71 462.29 546.75 462.38 546.83C462.47 546.91 462.515 547.025 462.515 547.175C462.515 547.325 462.47 547.445 462.38 547.535C462.29 547.615 462.16 547.655 461.99 547.655H460.1V551.36C460.1 551.93 460.22 552.365 460.46 552.665C460.7 552.955 461.09 553.1 461.63 553.1C461.82 553.1 461.98 553.08 462.11 553.04C462.25 553 462.365 552.98 462.455 552.98C462.545 552.97 462.62 553 462.68 553.07C462.74 553.14 462.77 553.26 462.77 553.43C462.77 553.55 462.745 553.66 462.695 553.76C462.655 553.86 462.58 553.93 462.47 553.97C462.35 554.01 462.19 554.045 461.99 554.075C461.8 554.115 461.625 554.135 461.465 554.135ZM466.08 554.135C465.58 554.135 465.13 554.04 464.73 553.85C464.34 553.65 464.03 553.38 463.8 553.04C463.57 552.7 463.455 552.32 463.455 551.9C463.455 551.36 463.59 550.935 463.86 550.625C464.14 550.315 464.595 550.095 465.225 549.965C465.865 549.835 466.735 549.77 467.835 549.77H468.51V550.565H467.85C467.04 550.565 466.4 550.605 465.93 550.685C465.47 550.755 465.145 550.88 464.955 551.06C464.775 551.24 464.685 551.495 464.685 551.825C464.685 552.235 464.825 552.57 465.105 552.83C465.395 553.09 465.785 553.22 466.275 553.22C466.675 553.22 467.025 553.125 467.325 552.935C467.635 552.745 467.875 552.485 468.045 552.155C468.225 551.825 468.315 551.445 468.315 551.015V549.305C468.315 548.685 468.19 548.24 467.94 547.97C467.69 547.69 467.28 547.55 466.71 547.55C466.36 547.55 466.01 547.595 465.66 547.685C465.31 547.775 464.94 547.92 464.55 548.12C464.41 548.19 464.29 548.215 464.19 548.195C464.09 548.165 464.01 548.11 463.95 548.03C463.89 547.95 463.855 547.86 463.845 547.76C463.835 547.65 463.855 547.545 463.905 547.445C463.965 547.345 464.055 547.265 464.175 547.205C464.615 546.985 465.05 546.825 465.48 546.725C465.91 546.625 466.32 546.575 466.71 546.575C467.34 546.575 467.86 546.68 468.27 546.89C468.68 547.09 468.985 547.4 469.185 547.82C469.385 548.23 469.485 548.76 469.485 549.41V553.475C469.485 553.675 469.435 553.83 469.335 553.94C469.245 554.05 469.11 554.105 468.93 554.105C468.74 554.105 468.595 554.05 468.495 553.94C468.395 553.83 468.345 553.675 468.345 553.475V552.305H468.48C468.4 552.685 468.245 553.01 468.015 553.28C467.795 553.55 467.52 553.76 467.19 553.91C466.86 554.06 466.49 554.135 466.08 554.135ZM475.429 554.135C474.769 554.135 474.199 553.965 473.719 553.625C473.249 553.285 472.934 552.83 472.774 552.26L472.939 552.095V553.475C472.939 553.675 472.884 553.83 472.774 553.94C472.674 554.05 472.529 554.105 472.339 554.105C472.139 554.105 471.989 554.05 471.889 553.94C471.789 553.83 471.739 553.675 471.739 553.475V543.935C471.739 543.735 471.789 543.585 471.889 543.485C471.989 543.375 472.139 543.32 472.339 543.32C472.529 543.32 472.679 543.375 472.789 543.485C472.899 543.585 472.954 543.735 472.954 543.935V548.405H472.774C472.944 547.845 473.264 547.4 473.734 547.07C474.204 546.74 474.769 546.575 475.429 546.575C476.089 546.575 476.659 546.73 477.139 547.04C477.619 547.34 477.989 547.775 478.249 548.345C478.519 548.905 478.654 549.575 478.654 550.355C478.654 551.125 478.519 551.795 478.249 552.365C477.989 552.925 477.614 553.36 477.124 553.67C476.644 553.98 476.079 554.135 475.429 554.135ZM475.174 553.16C475.634 553.16 476.029 553.05 476.359 552.83C476.699 552.61 476.959 552.29 477.139 551.87C477.329 551.45 477.424 550.945 477.424 550.355C477.424 549.445 477.219 548.75 476.809 548.27C476.409 547.79 475.864 547.55 475.174 547.55C474.724 547.55 474.329 547.66 473.989 547.88C473.649 548.09 473.384 548.405 473.194 548.825C473.014 549.235 472.924 549.745 472.924 550.355C472.924 551.255 473.129 551.95 473.539 552.44C473.949 552.92 474.494 553.16 475.174 553.16ZM481.084 554.075C480.884 554.075 480.734 554.02 480.634 553.91C480.534 553.79 480.484 553.625 480.484 553.415V547.28C480.484 547.07 480.534 546.91 480.634 546.8C480.734 546.69 480.884 546.635 481.084 546.635C481.274 546.635 481.424 546.69 481.534 546.8C481.644 546.91 481.699 547.07 481.699 547.28V553.415C481.699 553.625 481.644 553.79 481.534 553.91C481.434 554.02 481.284 554.075 481.084 554.075ZM481.084 544.955C480.834 544.955 480.639 544.89 480.499 544.76C480.359 544.62 480.289 544.435 480.289 544.205C480.289 543.965 480.359 543.785 480.499 543.665C480.639 543.535 480.834 543.47 481.084 543.47C481.344 543.47 481.539 543.535 481.669 543.665C481.809 543.785 481.879 543.965 481.879 544.205C481.879 544.435 481.809 544.62 481.669 544.76C481.539 544.89 481.344 544.955 481.084 544.955ZM486.19 554.135C485.47 554.135 484.92 553.915 484.54 553.475C484.16 553.035 483.97 552.405 483.97 551.585V543.935C483.97 543.735 484.02 543.585 484.12 543.485C484.22 543.375 484.37 543.32 484.57 543.32C484.76 543.32 484.91 543.375 485.02 543.485C485.13 543.585 485.185 543.735 485.185 543.935V551.495C485.185 552.035 485.29 552.44 485.5 552.71C485.72 552.97 486.04 553.1 486.46 553.1C486.55 553.1 486.63 553.095 486.7 553.085C486.77 553.075 486.84 553.07 486.91 553.07C487.02 553.06 487.095 553.085 487.135 553.145C487.185 553.205 487.21 553.325 487.21 553.505C487.21 553.685 487.17 553.82 487.09 553.91C487.01 554 486.88 554.06 486.7 554.09C486.62 554.1 486.535 554.11 486.445 554.12C486.355 554.13 486.27 554.135 486.19 554.135ZM489.009 554.075C488.809 554.075 488.659 554.02 488.559 553.91C488.459 553.79 488.409 553.625 488.409 553.415V547.28C488.409 547.07 488.459 546.91 488.559 546.8C488.659 546.69 488.809 546.635 489.009 546.635C489.199 546.635 489.349 546.69 489.459 546.8C489.569 546.91 489.624 547.07 489.624 547.28V553.415C489.624 553.625 489.569 553.79 489.459 553.91C489.359 554.02 489.209 554.075 489.009 554.075ZM489.009 544.955C488.759 544.955 488.564 544.89 488.424 544.76C488.284 544.62 488.214 544.435 488.214 544.205C488.214 543.965 488.284 543.785 488.424 543.665C488.564 543.535 488.759 543.47 489.009 543.47C489.269 543.47 489.464 543.535 489.594 543.665C489.734 543.785 489.804 543.965 489.804 544.205C489.804 544.435 489.734 544.62 489.594 544.76C489.464 544.89 489.269 544.955 489.009 544.955ZM494.82 554.135C494.25 554.135 493.77 554.035 493.38 553.835C493 553.625 492.715 553.325 492.525 552.935C492.335 552.535 492.24 552.05 492.24 551.48V547.655H491.235C491.065 547.655 490.935 547.615 490.845 547.535C490.755 547.445 490.71 547.325 490.71 547.175C490.71 547.025 490.755 546.91 490.845 546.83C490.935 546.75 491.065 546.71 491.235 546.71H492.24V544.985C492.24 544.785 492.295 544.635 492.405 544.535C492.515 544.425 492.665 544.37 492.855 544.37C493.045 544.37 493.19 544.425 493.29 544.535C493.4 544.635 493.455 544.785 493.455 544.985V546.71H495.345C495.515 546.71 495.645 546.75 495.735 546.83C495.825 546.91 495.87 547.025 495.87 547.175C495.87 547.325 495.825 547.445 495.735 547.535C495.645 547.615 495.515 547.655 495.345 547.655H493.455V551.36C493.455 551.93 493.575 552.365 493.815 552.665C494.055 552.955 494.445 553.1 494.985 553.1C495.175 553.1 495.335 553.08 495.465 553.04C495.605 553 495.72 552.98 495.81 552.98C495.9 552.97 495.975 553 496.035 553.07C496.095 553.14 496.125 553.26 496.125 553.43C496.125 553.55 496.1 553.66 496.05 553.76C496.01 553.86 495.935 553.93 495.825 553.97C495.705 554.01 495.545 554.045 495.345 554.075C495.155 554.115 494.98 554.135 494.82 554.135ZM498.847 556.805C498.697 556.805 498.577 556.765 498.487 556.685C498.397 556.605 498.342 556.495 498.322 556.355C498.312 556.225 498.337 556.09 498.397 555.95L499.432 553.625V554.15L496.552 547.46C496.492 547.31 496.472 547.17 496.492 547.04C496.512 546.91 496.572 546.805 496.672 546.725C496.772 546.645 496.912 546.605 497.092 546.605C497.252 546.605 497.377 546.64 497.467 546.71C497.557 546.78 497.637 546.905 497.707 547.085L500.167 553.115H499.762L502.252 547.085C502.332 546.905 502.417 546.78 502.507 546.71C502.597 546.64 502.727 546.605 502.897 546.605C503.057 546.605 503.177 546.645 503.257 546.725C503.347 546.805 503.397 546.91 503.407 547.04C503.427 547.16 503.407 547.295 503.347 547.445L499.507 556.325C499.427 556.505 499.337 556.63 499.237 556.7C499.147 556.77 499.017 556.805 498.847 556.805ZM504.785 554.06C504.535 554.06 504.335 553.985 504.185 553.835C504.035 553.675 503.96 553.475 503.96 553.235C503.96 552.995 504.035 552.8 504.185 552.65C504.335 552.49 504.535 552.41 504.785 552.41C505.035 552.41 505.23 552.49 505.37 552.65C505.52 552.8 505.595 552.995 505.595 553.235C505.595 553.475 505.52 553.675 505.37 553.835C505.23 553.985 505.035 554.06 504.785 554.06Z" fill="black"/>
</g>
<defs>
<linearGradient id="paint0_linear_178_187" x1="305.394" y1="163" x2="305.394" y2="402.849" gradientUnits="userSpaceOnUse">
<stop stop-color="#836FFF"/>
<stop offset="0.463542" stop-color="#8792F8"/>
<stop offset="1" stop-color="#8CBFEF"/>
</linearGradient>
<linearGradient id="paint1_linear_178_187" x1="305.394" y1="163" x2="305.394" y2="402.849" gradientUnits="userSpaceOnUse">
<stop stop-color="#836FFF"/>
<stop offset="0.463542" stop-color="#8792F8"/>
<stop offset="1" stop-color="#8CBFEF"/>
</linearGradient>
<linearGradient id="paint2_linear_178_187" x1="276.501" y1="251.697" x2="276.501" y2="371.647" gradientUnits="userSpaceOnUse">
<stop stop-color="#836FFF"/>
<stop offset="0.463542" stop-color="#8792F8"/>
<stop offset="1" stop-color="#8CBFEF"/>
</linearGradient>
<linearGradient id="paint3_linear_178_187" x1="276.501" y1="251.697" x2="276.501" y2="371.647" gradientUnits="userSpaceOnUse">
<stop stop-color="#836FFF"/>
<stop offset="0.463542" stop-color="#8792F8"/>
<stop offset="1" stop-color="#8CBFEF"/>
</linearGradient>
<linearGradient id="paint4_linear_178_187" x1="335.017" y1="217.385" x2="335.017" y2="290.927" gradientUnits="userSpaceOnUse">
<stop stop-color="#FF7E07"/>
<stop offset="1" stop-color="#FFD28F"/>
</linearGradient>
<linearGradient id="paint5_linear_178_187" x1="889.574" y1="164.494" x2="889.574" y2="404.343" gradientUnits="userSpaceOnUse">
<stop stop-color="#836FFF"/>
<stop offset="0.463542" stop-color="#8792F8"/>
<stop offset="1" stop-color="#8CBFEF"/>
</linearGradient>
<linearGradient id="paint6_linear_178_187" x1="889.574" y1="164.494" x2="889.574" y2="404.343" gradientUnits="userSpaceOnUse">
<stop stop-color="#836FFF"/>
<stop offset="0.463542" stop-color="#8792F8"/>
<stop offset="1" stop-color="#8CBFEF"/>
</linearGradient>
<linearGradient id="paint7_linear_178_187" x1="861.036" y1="253.193" x2="861.036" y2="373.144" gradientUnits="userSpaceOnUse">
<stop stop-color="#836FFF"/>
<stop offset="0.463542" stop-color="#8792F8"/>
<stop offset="1" stop-color="#8CBFEF"/>
</linearGradient>
<linearGradient id="paint8_linear_178_187" x1="861.036" y1="253.193" x2="861.036" y2="373.144" gradientUnits="userSpaceOnUse">
<stop stop-color="#836FFF"/>
<stop offset="0.463542" stop-color="#8792F8"/>
<stop offset="1" stop-color="#8CBFEF"/>
</linearGradient>
<linearGradient id="paint9_linear_178_187" x1="918.834" y1="218.879" x2="918.834" y2="292.421" gradientUnits="userSpaceOnUse">
<stop stop-color="#FF7E07"/>
<stop offset="1" stop-color="#FFD28F"/>
</linearGradient>
<clipPath id="clip0_178_187">
<rect width="1258" height="620" rx="55" fill="white"/>
</clipPath>
<clipPath id="clip1_178_187">
<rect width="243.532" height="240.544" fill="white" transform="translate(183.77 163)"/>
</clipPath>
<clipPath id="clip2_178_187">
<rect width="240.544" height="240.544" fill="white" transform="translate(769.441 164.494)"/>
</clipPath>
</defs>
</svg>
