<svg width="332" height="44" viewBox="0 0 332 44" fill="none" xmlns="http://www.w3.org/2000/svg">
<g clip-path="url(#clip0_213_682)">
<path d="M21.4948 3.6168e-05C26.8076 0.00635693 31.9287 1.98576 35.8647 5.55426C39.8007 9.12276 42.271 14.026 42.7964 19.3128C43.3217 24.5996 41.8648 29.8931 38.7081 34.1664C35.5513 38.4398 30.9199 41.3883 25.7122 42.4401C20.5046 43.4919 15.0918 42.572 10.5241 39.8587C5.95626 37.1455 2.55904 32.8324 0.991375 27.7562C-0.576284 22.6799 -0.202623 17.2022 2.03987 12.3859C4.28237 7.56949 8.23384 3.7577 13.1278 1.68992C15.7747 0.569513 18.6205 -0.0052525 21.4948 3.6168e-05ZM21.4948 40.2545C26.1299 40.2481 30.5974 38.5205 34.0307 35.4066C37.4641 32.2927 39.6186 28.0147 40.0762 23.4022C40.5338 18.7898 39.262 14.1717 36.5075 10.4439C33.753 6.7161 29.712 4.14422 25.1686 3.22717C20.6251 2.31012 15.903 3.11325 11.9181 5.4808C7.93331 7.84834 4.96985 11.6115 3.60259 16.0404C2.23534 20.4692 2.56175 25.248 4.51851 29.4498C6.47527 33.6516 9.9229 36.9769 14.1926 38.7806C16.5027 39.7583 18.9863 40.2596 21.4948 40.2545Z" fill="url(#paint0_linear_213_682)"/>
<path d="M21.4948 3.6168e-05C26.8076 0.00635693 31.9287 1.98576 35.8647 5.55426C39.8007 9.12276 42.271 14.026 42.7964 19.3128C43.3217 24.5996 41.8648 29.8931 38.7081 34.1664C35.5513 38.4398 30.9199 41.3883 25.7122 42.4401C20.5046 43.4919 15.0918 42.572 10.5241 39.8587C5.95626 37.1455 2.55904 32.8324 0.991375 27.7562C-0.576284 22.6799 -0.202623 17.2022 2.03987 12.3859C4.28237 7.56949 8.23384 3.7577 13.1278 1.68992C15.7747 0.569513 18.6205 -0.0052525 21.4948 3.6168e-05ZM21.4948 40.2545C26.1299 40.2481 30.5974 38.5205 34.0307 35.4066C37.4641 32.2927 39.6186 28.0147 40.0762 23.4022C40.5338 18.7898 39.262 14.1717 36.5075 10.4439C33.753 6.7161 29.712 4.14422 25.1686 3.22717C20.6251 2.31012 15.903 3.11325 11.9181 5.4808C7.93331 7.84834 4.96985 11.6115 3.60259 16.0404C2.23534 20.4692 2.56175 25.248 4.51851 29.4498C6.47527 33.6516 9.9229 36.9769 14.1926 38.7806C16.5027 39.7583 18.9863 40.2596 21.4948 40.2545Z" fill="url(#paint1_linear_213_682)"/>
<path d="M21.4953 37.2883C21.4637 37.2883 21.4317 37.2883 21.3996 37.2852C21.1146 37.2653 20.843 37.1567 20.623 36.9745C20.4029 36.7923 20.2454 36.5458 20.1727 36.2695L17.3671 25.624L6.63562 22.8173C6.35887 22.7449 6.11179 22.5876 5.92916 22.3674C5.74653 22.1472 5.63756 21.8753 5.61759 21.59C5.59762 21.3046 5.66766 21.0202 5.81784 20.7767C5.96802 20.5333 6.19078 20.343 6.45475 20.2328L16.6925 15.9573C16.8582 15.8881 17.0358 15.8522 17.2154 15.8516C17.395 15.851 17.5729 15.8858 17.739 15.954C17.9051 16.0221 18.0562 16.1224 18.1836 16.2489C18.3109 16.3755 18.4121 16.5259 18.4814 16.6915C18.5507 16.8572 18.5866 17.0349 18.5872 17.2145C18.5878 17.394 18.553 17.5719 18.4848 17.7381C18.4166 17.9042 18.3164 18.0552 18.1898 18.1826C18.0633 18.31 17.9129 18.4112 17.7472 18.4805L11.2451 21.1961L18.832 23.181C19.0665 23.2422 19.2806 23.3647 19.4522 23.5359C19.6238 23.7071 19.7468 23.9208 19.8086 24.1552L21.7922 31.6784L24.4962 25.2267C24.5656 25.0611 24.6669 24.9108 24.7944 24.7844C24.9219 24.658 25.0731 24.5579 25.2392 24.4899C25.4054 24.4219 25.5834 24.3872 25.7629 24.388C25.9425 24.3887 26.1201 24.4249 26.2857 24.4943C26.4513 24.5637 26.6016 24.665 26.728 24.7925C26.8544 24.92 26.9545 25.0712 27.0225 25.2373C27.0905 25.4035 27.1252 25.5814 27.1244 25.761C27.1236 25.9405 27.0875 26.1182 27.0181 26.2838L22.7555 36.4496C22.6514 36.698 22.4763 36.9101 22.2521 37.0593C22.0279 37.2085 21.7646 37.2882 21.4953 37.2883Z" fill="url(#paint2_linear_213_682)"/>
<path d="M21.4953 37.2883C21.4637 37.2883 21.4317 37.2883 21.3996 37.2852C21.1146 37.2653 20.843 37.1567 20.623 36.9745C20.4029 36.7923 20.2454 36.5458 20.1727 36.2695L17.3671 25.624L6.63562 22.8173C6.35887 22.7449 6.11179 22.5876 5.92916 22.3674C5.74653 22.1472 5.63756 21.8753 5.61759 21.59C5.59762 21.3046 5.66766 21.0202 5.81784 20.7767C5.96802 20.5333 6.19078 20.343 6.45475 20.2328L16.6925 15.9573C16.8582 15.8881 17.0358 15.8522 17.2154 15.8516C17.395 15.851 17.5729 15.8858 17.739 15.954C17.9051 16.0221 18.0562 16.1224 18.1836 16.2489C18.3109 16.3755 18.4121 16.5259 18.4814 16.6915C18.5507 16.8572 18.5866 17.0349 18.5872 17.2145C18.5878 17.394 18.553 17.5719 18.4848 17.7381C18.4166 17.9042 18.3164 18.0552 18.1898 18.1826C18.0633 18.31 17.9129 18.4112 17.7472 18.4805L11.2451 21.1961L18.832 23.181C19.0665 23.2422 19.2806 23.3647 19.4522 23.5359C19.6238 23.7071 19.7468 23.9208 19.8086 24.1552L21.7922 31.6784L24.4962 25.2267C24.5656 25.0611 24.6669 24.9108 24.7944 24.7844C24.9219 24.658 25.0731 24.5579 25.2392 24.4899C25.4054 24.4219 25.5834 24.3872 25.7629 24.388C25.9425 24.3887 26.1201 24.4249 26.2857 24.4943C26.4513 24.5637 26.6016 24.665 26.728 24.7925C26.8544 24.92 26.9545 25.0712 27.0225 25.2373C27.0905 25.4035 27.1252 25.5814 27.1244 25.761C27.1236 25.9405 27.0875 26.1182 27.0181 26.2838L22.7555 36.4496C22.6514 36.698 22.4763 36.9101 22.2521 37.0593C22.0279 37.2085 21.7646 37.2882 21.4953 37.2883Z" fill="url(#paint3_linear_213_682)"/>
<path d="M27.5405 22.8623C27.3151 22.8623 27.0932 22.8065 26.8946 22.7C26.6959 22.5935 26.5267 22.4396 26.4019 22.2519C26.2771 22.0641 26.2007 21.8485 26.1794 21.6241C26.1582 21.3997 26.1927 21.1735 26.28 20.9657L29.3535 13.6324L22.0217 16.6949C21.856 16.7642 21.6783 16.8001 21.4987 16.8007C21.3192 16.8013 21.1413 16.7665 20.9751 16.6983C20.809 16.6301 20.658 16.5299 20.5306 16.4034C20.4032 16.2768 20.302 16.1264 20.2327 15.9607C20.1635 15.7951 20.1275 15.6174 20.127 15.4378C20.1264 15.2582 20.1612 15.0803 20.2293 14.9142C20.2975 14.7481 20.3977 14.597 20.5243 14.4697C20.6509 14.3423 20.8013 14.2411 20.9669 14.1718L31.3762 9.82484C31.6264 9.72032 31.9021 9.6926 32.1682 9.74519C32.4343 9.79779 32.6787 9.92833 32.8704 10.1202C33.062 10.3121 33.1923 10.5567 33.2446 10.8228C33.2969 11.0889 33.2689 11.3646 33.1641 11.6147L28.8019 22.0228C28.6978 22.2715 28.5226 22.4839 28.2981 22.6332C28.0737 22.7826 27.8101 22.8623 27.5405 22.8623Z" fill="url(#paint4_linear_213_682)"/>
</g>
<path d="M62.9707 36.3002C62.4761 36.3002 62.0776 36.1766 61.7754 35.9293C61.4731 35.6545 61.2258 35.256 61.0334 34.7339L51.9242 8.72514C51.7318 8.14808 51.773 7.6672 52.0478 7.2825C52.3501 6.87032 52.8172 6.66422 53.4492 6.66422C53.9164 6.66422 54.2874 6.78788 54.5621 7.03519C54.8369 7.25502 55.0705 7.61224 55.2629 8.10687L63.7951 33.1264H62.3524L71.0495 8.23052C71.2419 7.70842 71.4754 7.32372 71.7502 7.07641C72.025 6.80162 72.396 6.66422 72.8631 6.66422C73.3028 6.66422 73.6463 6.80162 73.8936 7.07641C74.1684 7.32372 74.4019 7.70842 74.5943 8.23052L83.1677 33.1264H81.8899L90.5046 8.10687C90.642 7.63973 90.8481 7.2825 91.1229 7.03519C91.4251 6.78788 91.8098 6.66422 92.277 6.66422C92.854 6.66422 93.28 6.85658 93.5547 7.24128C93.8295 7.62599 93.857 8.12061 93.6372 8.72514L84.4867 34.7339C84.2943 35.256 84.047 35.6545 83.7448 35.9293C83.47 36.1766 83.0715 36.3002 82.5494 36.3002C82.0548 36.3002 81.6564 36.1766 81.3541 35.9293C81.0793 35.6545 80.832 35.256 80.6122 34.7339L72.3273 10.8685H73.2341L64.8667 34.7339C64.6744 35.256 64.4408 35.6545 64.166 35.9293C63.8912 36.1766 63.4928 36.3002 62.9707 36.3002ZM105.178 36.3827C103.062 36.3827 101.235 35.9705 99.696 35.1461C98.1846 34.2943 97.003 33.099 96.1512 31.5601C95.3268 30.0213 94.9146 28.1802 94.9146 26.0369C94.9146 23.9485 95.3268 22.1349 96.1512 20.596C96.9755 19.0297 98.1022 17.8069 99.5311 16.9276C100.987 16.0483 102.664 15.6086 104.56 15.6086C105.906 15.6086 107.115 15.8422 108.187 16.3093C109.259 16.749 110.165 17.3947 110.907 18.2466C111.677 19.0984 112.254 20.1289 112.639 21.338C113.051 22.547 113.257 23.9073 113.257 25.4186C113.257 25.8583 113.133 26.188 112.886 26.4078C112.639 26.6002 112.281 26.6964 111.814 26.6964H97.4702V24.5118H111.031L110.372 25.0476C110.372 23.5638 110.152 22.3135 109.712 21.2968C109.272 20.2526 108.627 19.4557 107.775 18.9061C106.95 18.3565 105.906 18.0817 104.642 18.0817C103.241 18.0817 102.045 18.4115 101.056 19.071C100.094 19.703 99.3662 20.596 98.8716 21.7502C98.377 22.8768 98.1297 24.1958 98.1297 25.7071V25.9544C98.1297 28.4825 98.7342 30.406 99.9433 31.725C101.18 33.044 102.925 33.7035 105.178 33.7035C106.112 33.7035 107.033 33.5798 107.94 33.3325C108.874 33.0852 109.781 32.673 110.66 32.096C111.045 31.8487 111.388 31.7387 111.691 31.7662C112.02 31.7662 112.281 31.8624 112.474 32.0548C112.666 32.2196 112.79 32.4395 112.845 32.7142C112.927 32.9616 112.9 33.2363 112.762 33.5386C112.652 33.8409 112.419 34.1019 112.061 34.3218C111.155 34.9813 110.083 35.4896 108.846 35.8468C107.61 36.2041 106.387 36.3827 105.178 36.3827ZM137.989 36.3002C137.467 36.3002 137.055 36.1491 136.753 35.8468C136.451 35.5171 136.3 35.0774 136.3 34.5279V9.87926H127.025C126.531 9.87926 126.146 9.74186 125.871 9.46707C125.596 9.19228 125.459 8.83506 125.459 8.3954C125.459 7.92825 125.596 7.57103 125.871 7.32372C126.146 7.07641 126.531 6.95275 127.025 6.95275H148.995C149.489 6.95275 149.874 7.07641 150.149 7.32372C150.424 7.57103 150.561 7.92825 150.561 8.3954C150.561 8.86254 150.424 9.2335 150.149 9.50829C149.874 9.7556 149.489 9.87926 148.995 9.87926H139.721V34.5279C139.721 35.0774 139.569 35.5171 139.267 35.8468C138.992 36.1491 138.567 36.3002 137.989 36.3002ZM152.061 36.3002C151.511 36.3002 151.086 36.1491 150.783 35.8468C150.508 35.5446 150.371 35.1187 150.371 34.5691V17.381C150.371 16.8314 150.508 16.4192 150.783 16.1445C151.058 15.8422 151.456 15.6911 151.979 15.6911C152.501 15.6911 152.899 15.8422 153.174 16.1445C153.476 16.4192 153.627 16.8314 153.627 17.381V20.7197H153.215C153.655 19.0984 154.493 17.8481 155.729 16.9688C156.966 16.0895 158.491 15.6224 160.305 15.5674C160.717 15.5399 161.047 15.6361 161.294 15.8559C161.541 16.0483 161.679 16.3918 161.706 16.8864C161.734 17.3535 161.624 17.7245 161.376 17.9993C161.129 18.2741 160.744 18.4389 160.222 18.4939L159.563 18.5763C157.694 18.7412 156.252 19.3457 155.235 20.3899C154.246 21.4067 153.751 22.8081 153.751 24.5942V34.5691C153.751 35.1187 153.6 35.5446 153.298 35.8468C153.023 36.1491 152.611 36.3002 152.061 36.3002ZM171.249 36.3827C169.875 36.3827 168.638 36.1216 167.539 35.5995C166.467 35.05 165.616 34.308 164.984 33.3737C164.352 32.4395 164.036 31.3953 164.036 30.2411C164.036 28.7573 164.407 27.5894 165.149 26.7376C165.918 25.8857 167.168 25.2812 168.899 24.924C170.658 24.5667 173.049 24.3881 176.071 24.3881H177.926V26.5727H176.113C173.887 26.5727 172.128 26.6826 170.837 26.9025C169.573 27.0948 168.68 27.4383 168.157 27.9329C167.663 28.4275 167.416 29.1282 167.416 30.0351C167.416 31.1617 167.8 32.0822 168.57 32.7967C169.367 33.5111 170.438 33.8684 171.785 33.8684C172.884 33.8684 173.846 33.6073 174.67 33.0852C175.522 32.5631 176.181 31.8487 176.648 30.9419C177.143 30.0351 177.39 28.9909 177.39 27.8093V23.1104C177.39 21.4067 177.047 20.1839 176.36 19.4419C175.673 18.6725 174.546 18.2878 172.98 18.2878C172.018 18.2878 171.056 18.4115 170.095 18.6588C169.133 18.9061 168.116 19.3045 167.045 19.8541C166.66 20.0465 166.33 20.1152 166.055 20.0602C165.781 19.9778 165.561 19.8266 165.396 19.6068C165.231 19.387 165.135 19.1397 165.107 18.8649C165.08 18.5626 165.135 18.2741 165.272 17.9993C165.437 17.7245 165.684 17.5047 166.014 17.3398C167.223 16.7353 168.418 16.2956 169.6 16.0208C170.782 15.746 171.908 15.6086 172.98 15.6086C174.711 15.6086 176.14 15.8971 177.267 16.4742C178.393 17.0238 179.231 17.8756 179.781 19.0297C180.331 20.1564 180.605 21.6128 180.605 23.3989V34.5691C180.605 35.1187 180.468 35.5446 180.193 35.8468C179.946 36.1491 179.575 36.3002 179.08 36.3002C178.558 36.3002 178.16 36.1491 177.885 35.8468C177.61 35.5446 177.473 35.1187 177.473 34.5691V31.354H177.844C177.624 32.3982 177.198 33.2913 176.566 34.0332C175.961 34.7752 175.206 35.3522 174.299 35.7644C173.392 36.1766 172.375 36.3827 171.249 36.3827ZM194.059 36.3002C193.592 36.3002 193.179 36.1766 192.822 35.9293C192.465 35.6545 192.163 35.2423 191.915 34.6927L184.785 18.0405C184.592 17.6283 184.524 17.2436 184.578 16.8864C184.633 16.5292 184.798 16.2406 185.073 16.0208C185.348 15.801 185.733 15.6911 186.227 15.6911C186.667 15.6911 187.01 15.7872 187.258 15.9796C187.505 16.1719 187.725 16.5154 187.917 17.01L194.677 33.5386H193.564L200.448 17.01C200.64 16.5154 200.86 16.1719 201.107 15.9796C201.354 15.7872 201.712 15.6911 202.179 15.6911C202.618 15.6911 202.948 15.801 203.168 16.0208C203.415 16.2406 203.553 16.5292 203.58 16.8864C203.635 17.2161 203.58 17.5871 203.415 17.9993L196.202 34.6927C196.01 35.2423 195.721 35.6545 195.336 35.9293C194.979 36.1766 194.553 36.3002 194.059 36.3002ZM216.556 36.3827C214.44 36.3827 212.613 35.9705 211.074 35.1461C209.563 34.2943 208.381 33.099 207.529 31.5601C206.705 30.0213 206.293 28.1802 206.293 26.0369C206.293 23.9485 206.705 22.1349 207.529 20.596C208.354 19.0297 209.48 17.8069 210.909 16.9276C212.366 16.0483 214.042 15.6086 215.938 15.6086C217.284 15.6086 218.493 15.8422 219.565 16.3093C220.637 16.749 221.544 17.3947 222.286 18.2466C223.055 19.0984 223.632 20.1289 224.017 21.338C224.429 22.547 224.635 23.9073 224.635 25.4186C224.635 25.8583 224.511 26.188 224.264 26.4078C224.017 26.6002 223.66 26.6964 223.192 26.6964H208.848V24.5118H222.409L221.75 25.0476C221.75 23.5638 221.53 22.3135 221.09 21.2968C220.651 20.2526 220.005 19.4557 219.153 18.9061C218.329 18.3565 217.284 18.0817 216.02 18.0817C214.619 18.0817 213.424 18.4115 212.434 19.071C211.473 19.703 210.744 20.596 210.25 21.7502C209.755 22.8768 209.508 24.1958 209.508 25.7071V25.9544C209.508 28.4825 210.112 30.406 211.321 31.725C212.558 33.044 214.303 33.7035 216.556 33.7035C217.49 33.7035 218.411 33.5798 219.318 33.3325C220.252 33.0852 221.159 32.673 222.038 32.096C222.423 31.8487 222.766 31.7387 223.069 31.7662C223.398 31.7662 223.66 31.8624 223.852 32.0548C224.044 32.2196 224.168 32.4395 224.223 32.7142C224.305 32.9616 224.278 33.2363 224.14 33.5386C224.03 33.8409 223.797 34.1019 223.44 34.3218C222.533 34.9813 221.461 35.4896 220.225 35.8468C218.988 36.2041 217.765 36.3827 216.556 36.3827ZM235.567 36.3827C233.589 36.3827 232.077 35.7781 231.033 34.5691C229.989 33.36 229.467 31.6288 229.467 29.3756V8.35418C229.467 7.8046 229.604 7.39241 229.879 7.11762C230.154 6.81536 230.566 6.66422 231.116 6.66422C231.638 6.66422 232.05 6.81536 232.352 7.11762C232.654 7.39241 232.806 7.8046 232.806 8.35418V29.1282C232.806 30.6121 233.094 31.725 233.671 32.4669C234.276 33.1814 235.155 33.5386 236.309 33.5386C236.556 33.5386 236.776 33.5249 236.969 33.4974C237.161 33.4699 237.353 33.4562 237.546 33.4562C237.848 33.4287 238.054 33.4974 238.164 33.6623C238.301 33.8271 238.37 34.1569 238.37 34.6515C238.37 35.1461 238.26 35.5171 238.04 35.7644C237.821 36.0117 237.463 36.1766 236.969 36.259C236.749 36.2865 236.515 36.314 236.268 36.3415C236.021 36.3689 235.787 36.3827 235.567 36.3827ZM250.489 36.3827C248.373 36.3827 246.546 35.9705 245.007 35.1461C243.496 34.2943 242.314 33.099 241.462 31.5601C240.638 30.0213 240.226 28.1802 240.226 26.0369C240.226 23.9485 240.638 22.1349 241.462 20.596C242.286 19.0297 243.413 17.8069 244.842 16.9276C246.298 16.0483 247.975 15.6086 249.871 15.6086C251.217 15.6086 252.426 15.8422 253.498 16.3093C254.57 16.749 255.476 17.3947 256.218 18.2466C256.988 19.0984 257.565 20.1289 257.949 21.338C258.362 22.547 258.568 23.9073 258.568 25.4186C258.568 25.8583 258.444 26.188 258.197 26.4078C257.949 26.6002 257.592 26.6964 257.125 26.6964H242.781V24.5118H256.342L255.682 25.0476C255.682 23.5638 255.463 22.3135 255.023 21.2968C254.583 20.2526 253.938 19.4557 253.086 18.9061C252.261 18.3565 251.217 18.0817 249.953 18.0817C248.552 18.0817 247.356 18.4115 246.367 19.071C245.405 19.703 244.677 20.596 244.183 21.7502C243.688 22.8768 243.441 24.1958 243.441 25.7071V25.9544C243.441 28.4825 244.045 30.406 245.254 31.725C246.491 33.044 248.236 33.7035 250.489 33.7035C251.423 33.7035 252.344 33.5798 253.251 33.3325C254.185 33.0852 255.092 32.673 255.971 32.096C256.356 31.8487 256.699 31.7387 257.001 31.7662C257.331 31.7662 257.592 31.8624 257.785 32.0548C257.977 32.2196 258.101 32.4395 258.156 32.7142C258.238 32.9616 258.211 33.2363 258.073 33.5386C257.963 33.8409 257.73 34.1019 257.372 34.3218C256.466 34.9813 255.394 35.4896 254.157 35.8468C252.921 36.2041 251.698 36.3827 250.489 36.3827ZM265.09 36.3002C264.54 36.3002 264.114 36.1491 263.812 35.8468C263.537 35.5446 263.4 35.1187 263.4 34.5691V17.381C263.4 16.8314 263.537 16.4192 263.812 16.1445C264.087 15.8422 264.485 15.6911 265.007 15.6911C265.529 15.6911 265.928 15.8422 266.202 16.1445C266.505 16.4192 266.656 16.8314 266.656 17.381V20.7197H266.244C266.683 19.0984 267.521 17.8481 268.758 16.9688C269.995 16.0895 271.52 15.6224 273.333 15.5674C273.745 15.5399 274.075 15.6361 274.323 15.8559C274.57 16.0483 274.707 16.3918 274.735 16.8864C274.762 17.3535 274.652 17.7245 274.405 17.9993C274.158 18.2741 273.773 18.4389 273.251 18.4939L272.591 18.5763C270.723 18.7412 269.28 19.3457 268.263 20.3899C267.274 21.4067 266.78 22.8081 266.78 24.5942V34.5691C266.78 35.1187 266.628 35.5446 266.326 35.8468C266.051 36.1491 265.639 36.3002 265.09 36.3002ZM284.731 36.3827C283.494 36.3827 282.244 36.2316 280.98 35.9293C279.743 35.627 278.589 35.1049 277.518 34.363C277.243 34.1706 277.05 33.9508 276.941 33.7035C276.831 33.4287 276.789 33.1676 276.817 32.9203C276.872 32.6456 276.982 32.412 277.147 32.2196C277.339 32.0273 277.559 31.9174 277.806 31.8899C278.081 31.8349 278.383 31.8899 278.713 32.0548C279.785 32.7142 280.815 33.1814 281.804 33.4562C282.821 33.7035 283.824 33.8271 284.813 33.8271C286.38 33.8271 287.561 33.5386 288.358 32.9616C289.155 32.3845 289.553 31.6014 289.553 30.6121C289.553 29.8427 289.292 29.2382 288.77 28.7985C288.248 28.3314 287.424 27.9741 286.297 27.7268L282.546 26.9025C280.815 26.5452 279.524 25.927 278.672 25.0476C277.847 24.1683 277.435 23.0279 277.435 21.6265C277.435 20.3899 277.751 19.332 278.383 18.4527C279.043 17.5459 279.963 16.8452 281.145 16.3505C282.326 15.8559 283.7 15.6086 285.267 15.6086C286.476 15.6086 287.616 15.7735 288.688 16.1032C289.787 16.4055 290.776 16.9001 291.655 17.5871C291.93 17.7794 292.109 18.013 292.191 18.2878C292.301 18.5351 292.315 18.7962 292.233 19.071C292.178 19.3183 292.054 19.5381 291.862 19.7305C291.669 19.8953 291.436 19.9915 291.161 20.019C290.886 20.0465 290.598 19.964 290.295 19.7717C289.471 19.2221 288.633 18.8236 287.781 18.5763C286.929 18.3015 286.091 18.1642 285.267 18.1642C283.728 18.1642 282.56 18.4664 281.763 19.071C280.966 19.6755 280.568 20.4724 280.568 21.4616C280.568 22.231 280.815 22.8631 281.31 23.3577C281.804 23.8523 282.574 24.2095 283.618 24.4294L287.369 25.2125C289.155 25.5972 290.488 26.2155 291.367 27.0673C292.274 27.8917 292.727 29.0183 292.727 30.4472C292.727 32.2608 291.999 33.7035 290.543 34.7752C289.086 35.8468 287.149 36.3827 284.731 36.3827Z" fill="url(#paint5_linear_213_682)"/>
<path d="M62.9707 36.3002C62.4761 36.3002 62.0776 36.1766 61.7754 35.9293C61.4731 35.6545 61.2258 35.256 61.0334 34.7339L51.9242 8.72514C51.7318 8.14808 51.773 7.6672 52.0478 7.2825C52.3501 6.87032 52.8172 6.66422 53.4492 6.66422C53.9164 6.66422 54.2874 6.78788 54.5621 7.03519C54.8369 7.25502 55.0705 7.61224 55.2629 8.10687L63.7951 33.1264H62.3524L71.0495 8.23052C71.2419 7.70842 71.4754 7.32372 71.7502 7.07641C72.025 6.80162 72.396 6.66422 72.8631 6.66422C73.3028 6.66422 73.6463 6.80162 73.8936 7.07641C74.1684 7.32372 74.4019 7.70842 74.5943 8.23052L83.1677 33.1264H81.8899L90.5046 8.10687C90.642 7.63973 90.8481 7.2825 91.1229 7.03519C91.4251 6.78788 91.8098 6.66422 92.277 6.66422C92.854 6.66422 93.28 6.85658 93.5547 7.24128C93.8295 7.62599 93.857 8.12061 93.6372 8.72514L84.4867 34.7339C84.2943 35.256 84.047 35.6545 83.7448 35.9293C83.47 36.1766 83.0715 36.3002 82.5494 36.3002C82.0548 36.3002 81.6564 36.1766 81.3541 35.9293C81.0793 35.6545 80.832 35.256 80.6122 34.7339L72.3273 10.8685H73.2341L64.8667 34.7339C64.6744 35.256 64.4408 35.6545 64.166 35.9293C63.8912 36.1766 63.4928 36.3002 62.9707 36.3002ZM105.178 36.3827C103.062 36.3827 101.235 35.9705 99.696 35.1461C98.1846 34.2943 97.003 33.099 96.1512 31.5601C95.3268 30.0213 94.9146 28.1802 94.9146 26.0369C94.9146 23.9485 95.3268 22.1349 96.1512 20.596C96.9755 19.0297 98.1022 17.8069 99.5311 16.9276C100.987 16.0483 102.664 15.6086 104.56 15.6086C105.906 15.6086 107.115 15.8422 108.187 16.3093C109.259 16.749 110.165 17.3947 110.907 18.2466C111.677 19.0984 112.254 20.1289 112.639 21.338C113.051 22.547 113.257 23.9073 113.257 25.4186C113.257 25.8583 113.133 26.188 112.886 26.4078C112.639 26.6002 112.281 26.6964 111.814 26.6964H97.4702V24.5118H111.031L110.372 25.0476C110.372 23.5638 110.152 22.3135 109.712 21.2968C109.272 20.2526 108.627 19.4557 107.775 18.9061C106.95 18.3565 105.906 18.0817 104.642 18.0817C103.241 18.0817 102.045 18.4115 101.056 19.071C100.094 19.703 99.3662 20.596 98.8716 21.7502C98.377 22.8768 98.1297 24.1958 98.1297 25.7071V25.9544C98.1297 28.4825 98.7342 30.406 99.9433 31.725C101.18 33.044 102.925 33.7035 105.178 33.7035C106.112 33.7035 107.033 33.5798 107.94 33.3325C108.874 33.0852 109.781 32.673 110.66 32.096C111.045 31.8487 111.388 31.7387 111.691 31.7662C112.02 31.7662 112.281 31.8624 112.474 32.0548C112.666 32.2196 112.79 32.4395 112.845 32.7142C112.927 32.9616 112.9 33.2363 112.762 33.5386C112.652 33.8409 112.419 34.1019 112.061 34.3218C111.155 34.9813 110.083 35.4896 108.846 35.8468C107.61 36.2041 106.387 36.3827 105.178 36.3827ZM137.989 36.3002C137.467 36.3002 137.055 36.1491 136.753 35.8468C136.451 35.5171 136.3 35.0774 136.3 34.5279V9.87926H127.025C126.531 9.87926 126.146 9.74186 125.871 9.46707C125.596 9.19228 125.459 8.83506 125.459 8.3954C125.459 7.92825 125.596 7.57103 125.871 7.32372C126.146 7.07641 126.531 6.95275 127.025 6.95275H148.995C149.489 6.95275 149.874 7.07641 150.149 7.32372C150.424 7.57103 150.561 7.92825 150.561 8.3954C150.561 8.86254 150.424 9.2335 150.149 9.50829C149.874 9.7556 149.489 9.87926 148.995 9.87926H139.721V34.5279C139.721 35.0774 139.569 35.5171 139.267 35.8468C138.992 36.1491 138.567 36.3002 137.989 36.3002ZM152.061 36.3002C151.511 36.3002 151.086 36.1491 150.783 35.8468C150.508 35.5446 150.371 35.1187 150.371 34.5691V17.381C150.371 16.8314 150.508 16.4192 150.783 16.1445C151.058 15.8422 151.456 15.6911 151.979 15.6911C152.501 15.6911 152.899 15.8422 153.174 16.1445C153.476 16.4192 153.627 16.8314 153.627 17.381V20.7197H153.215C153.655 19.0984 154.493 17.8481 155.729 16.9688C156.966 16.0895 158.491 15.6224 160.305 15.5674C160.717 15.5399 161.047 15.6361 161.294 15.8559C161.541 16.0483 161.679 16.3918 161.706 16.8864C161.734 17.3535 161.624 17.7245 161.376 17.9993C161.129 18.2741 160.744 18.4389 160.222 18.4939L159.563 18.5763C157.694 18.7412 156.252 19.3457 155.235 20.3899C154.246 21.4067 153.751 22.8081 153.751 24.5942V34.5691C153.751 35.1187 153.6 35.5446 153.298 35.8468C153.023 36.1491 152.611 36.3002 152.061 36.3002ZM171.249 36.3827C169.875 36.3827 168.638 36.1216 167.539 35.5995C166.467 35.05 165.616 34.308 164.984 33.3737C164.352 32.4395 164.036 31.3953 164.036 30.2411C164.036 28.7573 164.407 27.5894 165.149 26.7376C165.918 25.8857 167.168 25.2812 168.899 24.924C170.658 24.5667 173.049 24.3881 176.071 24.3881H177.926V26.5727H176.113C173.887 26.5727 172.128 26.6826 170.837 26.9025C169.573 27.0948 168.68 27.4383 168.157 27.9329C167.663 28.4275 167.416 29.1282 167.416 30.0351C167.416 31.1617 167.8 32.0822 168.57 32.7967C169.367 33.5111 170.438 33.8684 171.785 33.8684C172.884 33.8684 173.846 33.6073 174.67 33.0852C175.522 32.5631 176.181 31.8487 176.648 30.9419C177.143 30.0351 177.39 28.9909 177.39 27.8093V23.1104C177.39 21.4067 177.047 20.1839 176.36 19.4419C175.673 18.6725 174.546 18.2878 172.98 18.2878C172.018 18.2878 171.056 18.4115 170.095 18.6588C169.133 18.9061 168.116 19.3045 167.045 19.8541C166.66 20.0465 166.33 20.1152 166.055 20.0602C165.781 19.9778 165.561 19.8266 165.396 19.6068C165.231 19.387 165.135 19.1397 165.107 18.8649C165.08 18.5626 165.135 18.2741 165.272 17.9993C165.437 17.7245 165.684 17.5047 166.014 17.3398C167.223 16.7353 168.418 16.2956 169.6 16.0208C170.782 15.746 171.908 15.6086 172.98 15.6086C174.711 15.6086 176.14 15.8971 177.267 16.4742C178.393 17.0238 179.231 17.8756 179.781 19.0297C180.331 20.1564 180.605 21.6128 180.605 23.3989V34.5691C180.605 35.1187 180.468 35.5446 180.193 35.8468C179.946 36.1491 179.575 36.3002 179.08 36.3002C178.558 36.3002 178.16 36.1491 177.885 35.8468C177.61 35.5446 177.473 35.1187 177.473 34.5691V31.354H177.844C177.624 32.3982 177.198 33.2913 176.566 34.0332C175.961 34.7752 175.206 35.3522 174.299 35.7644C173.392 36.1766 172.375 36.3827 171.249 36.3827ZM194.059 36.3002C193.592 36.3002 193.179 36.1766 192.822 35.9293C192.465 35.6545 192.163 35.2423 191.915 34.6927L184.785 18.0405C184.592 17.6283 184.524 17.2436 184.578 16.8864C184.633 16.5292 184.798 16.2406 185.073 16.0208C185.348 15.801 185.733 15.6911 186.227 15.6911C186.667 15.6911 187.01 15.7872 187.258 15.9796C187.505 16.1719 187.725 16.5154 187.917 17.01L194.677 33.5386H193.564L200.448 17.01C200.64 16.5154 200.86 16.1719 201.107 15.9796C201.354 15.7872 201.712 15.6911 202.179 15.6911C202.618 15.6911 202.948 15.801 203.168 16.0208C203.415 16.2406 203.553 16.5292 203.58 16.8864C203.635 17.2161 203.58 17.5871 203.415 17.9993L196.202 34.6927C196.01 35.2423 195.721 35.6545 195.336 35.9293C194.979 36.1766 194.553 36.3002 194.059 36.3002ZM216.556 36.3827C214.44 36.3827 212.613 35.9705 211.074 35.1461C209.563 34.2943 208.381 33.099 207.529 31.5601C206.705 30.0213 206.293 28.1802 206.293 26.0369C206.293 23.9485 206.705 22.1349 207.529 20.596C208.354 19.0297 209.48 17.8069 210.909 16.9276C212.366 16.0483 214.042 15.6086 215.938 15.6086C217.284 15.6086 218.493 15.8422 219.565 16.3093C220.637 16.749 221.544 17.3947 222.286 18.2466C223.055 19.0984 223.632 20.1289 224.017 21.338C224.429 22.547 224.635 23.9073 224.635 25.4186C224.635 25.8583 224.511 26.188 224.264 26.4078C224.017 26.6002 223.66 26.6964 223.192 26.6964H208.848V24.5118H222.409L221.75 25.0476C221.75 23.5638 221.53 22.3135 221.09 21.2968C220.651 20.2526 220.005 19.4557 219.153 18.9061C218.329 18.3565 217.284 18.0817 216.02 18.0817C214.619 18.0817 213.424 18.4115 212.434 19.071C211.473 19.703 210.744 20.596 210.25 21.7502C209.755 22.8768 209.508 24.1958 209.508 25.7071V25.9544C209.508 28.4825 210.112 30.406 211.321 31.725C212.558 33.044 214.303 33.7035 216.556 33.7035C217.49 33.7035 218.411 33.5798 219.318 33.3325C220.252 33.0852 221.159 32.673 222.038 32.096C222.423 31.8487 222.766 31.7387 223.069 31.7662C223.398 31.7662 223.66 31.8624 223.852 32.0548C224.044 32.2196 224.168 32.4395 224.223 32.7142C224.305 32.9616 224.278 33.2363 224.14 33.5386C224.03 33.8409 223.797 34.1019 223.44 34.3218C222.533 34.9813 221.461 35.4896 220.225 35.8468C218.988 36.2041 217.765 36.3827 216.556 36.3827ZM235.567 36.3827C233.589 36.3827 232.077 35.7781 231.033 34.5691C229.989 33.36 229.467 31.6288 229.467 29.3756V8.35418C229.467 7.8046 229.604 7.39241 229.879 7.11762C230.154 6.81536 230.566 6.66422 231.116 6.66422C231.638 6.66422 232.05 6.81536 232.352 7.11762C232.654 7.39241 232.806 7.8046 232.806 8.35418V29.1282C232.806 30.6121 233.094 31.725 233.671 32.4669C234.276 33.1814 235.155 33.5386 236.309 33.5386C236.556 33.5386 236.776 33.5249 236.969 33.4974C237.161 33.4699 237.353 33.4562 237.546 33.4562C237.848 33.4287 238.054 33.4974 238.164 33.6623C238.301 33.8271 238.37 34.1569 238.37 34.6515C238.37 35.1461 238.26 35.5171 238.04 35.7644C237.821 36.0117 237.463 36.1766 236.969 36.259C236.749 36.2865 236.515 36.314 236.268 36.3415C236.021 36.3689 235.787 36.3827 235.567 36.3827ZM250.489 36.3827C248.373 36.3827 246.546 35.9705 245.007 35.1461C243.496 34.2943 242.314 33.099 241.462 31.5601C240.638 30.0213 240.226 28.1802 240.226 26.0369C240.226 23.9485 240.638 22.1349 241.462 20.596C242.286 19.0297 243.413 17.8069 244.842 16.9276C246.298 16.0483 247.975 15.6086 249.871 15.6086C251.217 15.6086 252.426 15.8422 253.498 16.3093C254.57 16.749 255.476 17.3947 256.218 18.2466C256.988 19.0984 257.565 20.1289 257.949 21.338C258.362 22.547 258.568 23.9073 258.568 25.4186C258.568 25.8583 258.444 26.188 258.197 26.4078C257.949 26.6002 257.592 26.6964 257.125 26.6964H242.781V24.5118H256.342L255.682 25.0476C255.682 23.5638 255.463 22.3135 255.023 21.2968C254.583 20.2526 253.938 19.4557 253.086 18.9061C252.261 18.3565 251.217 18.0817 249.953 18.0817C248.552 18.0817 247.356 18.4115 246.367 19.071C245.405 19.703 244.677 20.596 244.183 21.7502C243.688 22.8768 243.441 24.1958 243.441 25.7071V25.9544C243.441 28.4825 244.045 30.406 245.254 31.725C246.491 33.044 248.236 33.7035 250.489 33.7035C251.423 33.7035 252.344 33.5798 253.251 33.3325C254.185 33.0852 255.092 32.673 255.971 32.096C256.356 31.8487 256.699 31.7387 257.001 31.7662C257.331 31.7662 257.592 31.8624 257.785 32.0548C257.977 32.2196 258.101 32.4395 258.156 32.7142C258.238 32.9616 258.211 33.2363 258.073 33.5386C257.963 33.8409 257.73 34.1019 257.372 34.3218C256.466 34.9813 255.394 35.4896 254.157 35.8468C252.921 36.2041 251.698 36.3827 250.489 36.3827ZM265.09 36.3002C264.54 36.3002 264.114 36.1491 263.812 35.8468C263.537 35.5446 263.4 35.1187 263.4 34.5691V17.381C263.4 16.8314 263.537 16.4192 263.812 16.1445C264.087 15.8422 264.485 15.6911 265.007 15.6911C265.529 15.6911 265.928 15.8422 266.202 16.1445C266.505 16.4192 266.656 16.8314 266.656 17.381V20.7197H266.244C266.683 19.0984 267.521 17.8481 268.758 16.9688C269.995 16.0895 271.52 15.6224 273.333 15.5674C273.745 15.5399 274.075 15.6361 274.323 15.8559C274.57 16.0483 274.707 16.3918 274.735 16.8864C274.762 17.3535 274.652 17.7245 274.405 17.9993C274.158 18.2741 273.773 18.4389 273.251 18.4939L272.591 18.5763C270.723 18.7412 269.28 19.3457 268.263 20.3899C267.274 21.4067 266.78 22.8081 266.78 24.5942V34.5691C266.78 35.1187 266.628 35.5446 266.326 35.8468C266.051 36.1491 265.639 36.3002 265.09 36.3002ZM284.731 36.3827C283.494 36.3827 282.244 36.2316 280.98 35.9293C279.743 35.627 278.589 35.1049 277.518 34.363C277.243 34.1706 277.05 33.9508 276.941 33.7035C276.831 33.4287 276.789 33.1676 276.817 32.9203C276.872 32.6456 276.982 32.412 277.147 32.2196C277.339 32.0273 277.559 31.9174 277.806 31.8899C278.081 31.8349 278.383 31.8899 278.713 32.0548C279.785 32.7142 280.815 33.1814 281.804 33.4562C282.821 33.7035 283.824 33.8271 284.813 33.8271C286.38 33.8271 287.561 33.5386 288.358 32.9616C289.155 32.3845 289.553 31.6014 289.553 30.6121C289.553 29.8427 289.292 29.2382 288.77 28.7985C288.248 28.3314 287.424 27.9741 286.297 27.7268L282.546 26.9025C280.815 26.5452 279.524 25.927 278.672 25.0476C277.847 24.1683 277.435 23.0279 277.435 21.6265C277.435 20.3899 277.751 19.332 278.383 18.4527C279.043 17.5459 279.963 16.8452 281.145 16.3505C282.326 15.8559 283.7 15.6086 285.267 15.6086C286.476 15.6086 287.616 15.7735 288.688 16.1032C289.787 16.4055 290.776 16.9001 291.655 17.5871C291.93 17.7794 292.109 18.013 292.191 18.2878C292.301 18.5351 292.315 18.7962 292.233 19.071C292.178 19.3183 292.054 19.5381 291.862 19.7305C291.669 19.8953 291.436 19.9915 291.161 20.019C290.886 20.0465 290.598 19.964 290.295 19.7717C289.471 19.2221 288.633 18.8236 287.781 18.5763C286.929 18.3015 286.091 18.1642 285.267 18.1642C283.728 18.1642 282.56 18.4664 281.763 19.071C280.966 19.6755 280.568 20.4724 280.568 21.4616C280.568 22.231 280.815 22.8631 281.31 23.3577C281.804 23.8523 282.574 24.2095 283.618 24.4294L287.369 25.2125C289.155 25.5972 290.488 26.2155 291.367 27.0673C292.274 27.8917 292.727 29.0183 292.727 30.4472C292.727 32.2608 291.999 33.7035 290.543 34.7752C289.086 35.8468 287.149 36.3827 284.731 36.3827Z" fill="url(#paint6_linear_213_682)"/>
<defs>
<linearGradient id="paint0_linear_213_682" x1="21.4693" y1="0" x2="21.4693" y2="42.8644" gradientUnits="userSpaceOnUse">
<stop stop-color="#836FFF"/>
<stop offset="0.463542" stop-color="#8792F8"/>
<stop offset="1" stop-color="#8CBFEF"/>
</linearGradient>
<linearGradient id="paint1_linear_213_682" x1="21.4693" y1="0" x2="21.4693" y2="42.8644" gradientUnits="userSpaceOnUse">
<stop stop-color="#836FFF"/>
<stop offset="0.463542" stop-color="#8792F8"/>
<stop offset="1" stop-color="#8CBFEF"/>
</linearGradient>
<linearGradient id="paint2_linear_213_682" x1="16.3693" y1="15.8516" x2="16.3693" y2="37.2883" gradientUnits="userSpaceOnUse">
<stop stop-color="#836FFF"/>
<stop offset="0.463542" stop-color="#8792F8"/>
<stop offset="1" stop-color="#8CBFEF"/>
</linearGradient>
<linearGradient id="paint3_linear_213_682" x1="16.3693" y1="15.8516" x2="16.3693" y2="37.2883" gradientUnits="userSpaceOnUse">
<stop stop-color="#836FFF"/>
<stop offset="0.463542" stop-color="#8792F8"/>
<stop offset="1" stop-color="#8CBFEF"/>
</linearGradient>
<linearGradient id="paint4_linear_213_682" x1="26.6986" y1="9.71924" x2="26.6986" y2="22.8623" gradientUnits="userSpaceOnUse">
<stop stop-color="#FF7E07"/>
<stop offset="1" stop-color="#FFD28F"/>
</linearGradient>
<linearGradient id="paint5_linear_213_682" x1="190.667" y1="1.01172" x2="190.667" y2="44.0002" gradientUnits="userSpaceOnUse">
<stop stop-color="#836FFF"/>
<stop offset="0.463542" stop-color="#8792F8"/>
<stop offset="1" stop-color="#8CBFEF"/>
</linearGradient>
<linearGradient id="paint6_linear_213_682" x1="190.667" y1="1.01172" x2="190.667" y2="44.0002" gradientUnits="userSpaceOnUse">
<stop stop-color="#836FFF"/>
<stop offset="0.463542" stop-color="#8792F8"/>
<stop offset="1" stop-color="#8CBFEF"/>
</linearGradient>
<clipPath id="clip0_213_682">
<rect width="42.9885" height="42.9885" fill="white"/>
</clipPath>
</defs>
</svg>
