<svg width="431" height="353" viewBox="0 0 431 353" fill="none" xmlns="http://www.w3.org/2000/svg">
<path d="M409.95 331.911C407.093 328.92 403.834 325.828 400.271 322.823C391.452 315.861 375.45 310.74 363.801 306.55C358.755 304.806 361.433 305.262 357.951 304.054C352.159 302.057 346.607 300.442 340.897 298.572C339.892 298.242 338.88 297.914 337.858 297.583C335.664 296.878 338.598 297.071 336.284 296.352C323.568 292.461 310.951 290.532 297.335 288.502C293.719 287.967 290.09 287.462 286.449 286.975C253.494 282.705 219.762 278.87 187.59 278.747C185.759 278.894 183.744 278.875 182.071 278.677C181.68 278.641 181.427 278.621 180.918 278.53C180.715 278.492 180.494 278.447 180.17 278.346C180.007 278.293 179.816 278.227 179.565 278.111C179.439 278.053 179.298 277.982 179.136 277.886C178.819 277.669 177.782 277.163 177.109 275.465C176.353 273.674 177.283 271.446 177.963 270.812C178.294 270.428 178.633 270.171 178.801 270.052C178.877 269.998 178.949 269.95 179.016 269.907C179.285 269.738 179.488 269.641 179.66 269.563C180 269.414 180.224 269.346 180.428 269.285C180.677 269.215 180.682 269.217 180.796 269.189C180.89 269.167 180.98 269.147 181.07 269.128C181.245 269.091 181.439 269.055 181.598 269.027C181.849 268.984 182.112 268.943 182.395 268.903C182.948 268.825 183.353 268.776 183.908 268.712C184.347 268.662 184.821 268.611 185.332 268.56C187.18 268.374 189.065 268.217 190.911 268.072C194.641 267.782 198.317 267.537 201.996 267.306C209.344 266.849 216.732 266.454 224.142 266.092C238.912 265.375 253.769 264.793 268.72 264.348C270.182 264.305 271.667 264.264 273.171 264.226C295.327 263.654 321.097 265.382 343.117 266.09C345.859 266.173 344.249 265.554 344.772 265.53C351.765 265.209 350.775 265.885 353.629 266.292C354.141 266.361 354.744 266.42 355.524 266.462C362.402 266.723 371.82 267.578 376.234 266.223C376.65 266.017 376.918 265.732 376.948 265.678C376.968 265.653 376.927 265.714 376.921 265.89C376.91 266.062 376.983 266.334 377.082 266.477C371.262 258.228 356.938 255.601 346.107 253.032C337.646 251.251 345.891 254.178 337.487 251.737C336.9 251.57 339.183 251.455 336.86 250.897C331.602 249.651 321.466 247.567 317.344 246.439C316.195 246.135 315.172 245.857 314.267 245.604C309.139 244.226 307.268 243.845 300.928 242.689C292.636 241.22 282.939 239.753 273.608 238.658C271.467 238.407 269.393 238.181 267.314 237.977C264.939 237.747 268.016 238.686 264.222 238.379C260.431 238.061 250.394 237.037 247.024 236.615C243.663 236.181 245.138 235.836 244.547 235.676C239.679 234.322 227.943 234.767 226.459 234.724C207.71 233.935 190.77 233.176 173.801 233.401C165.89 233.531 158.021 233.57 149.869 233.48C140.084 233.347 129.514 233.083 119.782 231.654C119.756 231.652 119.734 231.651 119.713 231.649C119.702 231.648 119.692 231.647 119.681 231.646C119.679 231.646 119.654 231.644 119.63 231.642C119.584 231.636 119.633 231.649 119.357 231.605C119.312 231.597 119.256 231.587 119.148 231.56C119.023 231.52 118.919 231.532 118.398 231.271C118.149 231.085 117.612 230.997 116.962 229.707C116.655 229.066 116.601 227.984 116.923 227.244C117.229 226.487 117.669 226.096 117.963 225.865C118.571 225.426 118.837 225.396 119.035 225.325C119.227 225.271 119.335 225.254 119.42 225.24C119.733 225.195 119.773 225.206 119.842 225.201C119.899 225.2 119.927 225.2 119.951 225.2C120.035 225.201 120.047 225.202 120.07 225.203C120.12 225.205 120.104 225.204 120.121 225.205C120.142 225.206 120.163 225.206 120.188 225.208C120.259 225.211 120.356 225.215 120.417 225.217C120.571 225.224 120.708 225.229 120.876 225.235C121.165 225.246 121.477 225.257 121.787 225.266C122.415 225.286 122.994 225.301 123.628 225.316C124.849 225.344 126.081 225.365 127.316 225.382C129.758 225.415 132.221 225.43 134.641 225.437C139.488 225.45 144.295 225.43 148.908 225.407C152.267 225.39 155.548 225.368 158.79 225.343C176.82 225.192 193.137 225.089 211.404 224.68C213.677 224.63 210.998 223.976 213.776 223.912C235.543 223.419 257.196 222.978 278.867 222.839C286.623 222.792 294.295 222.781 302.013 222.808C304.945 222.819 301.184 223.488 304.102 223.536C314.035 223.596 327.626 224.384 338.708 223.45C338.871 223.404 338.806 223.434 338.896 223.321C338.974 223.208 339.088 222.895 339.137 222.518C339.245 221.748 339.175 220.779 339.032 219.846C338.736 217.96 338.171 216.106 337.556 214.415C336.342 211.147 333.912 209.389 331.914 208.65C323.419 202.437 307.834 200.53 297.411 197.964C290.523 196.406 297.406 196.926 288.81 195.709C286.873 195.43 289.274 196.461 286.38 195.995C282.888 195.43 279.303 194.791 275.684 194.087C266.951 192.424 257.661 191.443 249.04 190.885C246.574 190.733 247.202 191.323 246.499 191.359C240.594 191.625 230.917 189.696 228.783 189.473C216.68 188.184 206.934 187.734 196.457 187.083C192.93 186.86 189.321 186.664 185.502 186.472C181.994 186.299 186.103 187.207 182.733 187.072C165.23 186.373 147.078 186.243 129.854 186.074C126.028 186.033 129.546 185.397 127.711 185.347C119.637 185.134 117.857 186.311 110.098 186.113C108.453 186.072 109.378 185.546 109.077 185.491C106.794 185.063 104.635 185.149 102.915 185.348C101.128 185.554 99.7941 185.906 99.1896 185.927C84.7809 186.652 74.8891 185.702 61.9264 188.724C61.7243 188.782 61.538 188.861 61.5875 188.842C61.604 188.83 61.6514 188.828 61.8583 188.649C61.9634 188.544 62.073 188.463 62.2535 188.122C62.5182 187.695 62.5054 186.742 62.1785 186.29C62.0056 186.021 61.9629 186.001 61.8738 185.908C61.7945 185.832 61.7243 185.778 61.6644 185.736C61.5445 185.653 61.4654 185.616 61.4138 185.593C61.337 185.559 61.3303 185.56 61.3283 185.558C61.4479 185.582 61.6217 185.559 61.5737 185.486C61.5442 185.416 61.4537 185.312 61.4538 185.224C61.5044 185.03 61.2249 184.946 63.6289 185.064C78.4298 185.307 94.1065 184.755 109.59 184.705C127.796 184.593 145.997 184.764 163.54 185.001C168.596 185.07 164.988 185.573 165.306 185.633C170.495 186.573 173.835 185.289 175.49 185.236C188.489 184.856 200.62 185.877 209.446 184.267C209.75 184.267 210.051 184.267 210.348 184.266C219.719 184.104 231.796 184.647 238.07 183.023C238.422 182.737 238.734 182.326 238.861 182.029C238.927 181.885 238.936 181.778 238.932 181.825C238.924 181.859 238.972 182.13 239.13 182.311C228.522 178.901 210.055 178.764 195.453 176.762C168.027 173.803 140.483 171.574 113.06 168.756C112.368 168.688 113.658 168.156 112.278 168.022C95.6757 166.408 98.7941 167.628 87.7081 168.003C84.9264 168.098 76.5899 166.041 75.8456 165.881C73.1534 165.294 76.0406 164.568 75.136 164.426C70.6044 163.735 69.151 164.628 66.5146 165.278C64.7399 165.695 62.4889 166.012 58.5046 165.738C58.1816 165.71 59.5781 165.236 58.7145 165.12C56.0556 164.759 53.4599 164.812 50.8512 164.447C44.9699 163.619 42.913 161.977 33.8145 162.346C32.6783 162.4 34.298 164.233 25.2509 163.679C22.1678 163.437 10.0743 163.097 3.54303 161.985C3.12495 161.907 2.71179 161.85 2.02713 161.51C1.69988 161.331 1.21735 161.056 0.780362 160.377C0.317955 159.698 0.258052 158.643 0.432672 158.09C0.776426 156.981 1.16835 156.733 1.42484 156.435C1.69479 156.168 1.91274 156 2.11161 155.853C4.61669 154.254 4.9453 154.574 4.85973 154.725C4.74974 154.944 4.12396 155.417 4.2902 155.349C4.83681 155.111 5.34502 154.923 5.83007 154.761C16.2698 152.26 12.3324 154.051 18.2481 153.91C24.3914 154.011 22.3417 151.701 24.7424 151.029C26.24 150.616 30.1689 150.204 33.5229 149.938C35.5571 149.778 37.4009 149.666 38.2264 149.635C40.4134 149.551 37.761 150.277 39.7104 150.133C52.5453 149.203 45.1247 148.089 49.2798 147.116C59.0505 144.844 67.0479 145.822 76.1367 144.937C78.5951 144.699 76.5373 144.494 78.7281 144.195C87.3762 143.03 92.6608 143.046 102.476 141.446C104.08 141.183 111.953 139.192 117.214 139.553C117.958 139.607 115.923 140.289 119.637 140.043C122.134 139.88 125.532 139.626 129.051 139.346C133.352 139.003 137.842 138.623 141.11 138.273C145.494 137.806 140.397 137.402 145.948 137.22C148.42 137.143 143.896 137.957 148.527 137.776C153.142 137.589 164.886 136.759 169.368 136.462C173.832 136.159 171.351 135.71 171.708 135.646C173.877 135.269 182.435 134.451 183.194 134.408C195.429 133.641 207.361 133.082 219.118 132.363C231.474 131.339 244.653 131.411 255.454 127.182C256.073 126.832 256.556 126.387 256.688 126.052C256.823 125.755 256.776 125.364 256.437 124.801C255.748 123.694 254.431 122.637 253.126 121.68C245.914 117.348 236.658 115.304 227.923 113.024C225.07 112.329 226.81 113.43 226.373 113.33C216.659 111.225 224.652 111.411 218.005 109.251C218.679 110.747 214.756 109.566 207.832 108.202C204.477 107.545 206.201 108.435 205.88 108.418C200.783 108.101 197.578 106.436 196.742 106.056C193.589 104.647 189.871 104.793 187.765 103.868C185.631 102.943 190.902 103.24 184.261 101.938C182.319 102.03 186.996 104.187 181.927 103.394C177.127 102.647 171.274 101.609 164.965 100.449C146.353 96.9963 123.328 94.1918 111.731 93.1267C96.2756 91.7315 91.2295 91.5485 82.2265 90.8395C65.8898 89.6656 71.8481 90.8848 61.6915 90.889C51.5128 90.9777 56.5522 88.929 55.0773 88.4048C53.9386 87.9989 52.6791 88.2022 51.3828 88.1637C51.0074 88.1531 50.6365 88.1269 50.2705 88.07C48.5211 87.8047 52.3541 87.4752 48.1566 87.3909C47.0494 87.395 45.5606 87.4129 43.7737 87.7658C43.6406 87.7943 43.5149 87.8249 43.3958 87.8584C43.2768 87.8927 43.1706 87.9242 42.9971 87.99C42.9189 88.0204 42.8427 88.0538 42.7667 88.0926C42.7287 88.112 42.6907 88.1329 42.6525 88.1557C42.6009 88.1857 42.5302 88.2311 42.4676 88.2805C42.3391 88.3845 42.205 88.5083 42.0937 88.7524C41.95 89.049 41.9951 89.4643 42.125 89.6906C42.2852 89.9994 42.5574 90.1782 42.6561 90.2406C42.7859 90.3226 42.9313 90.3965 43.0702 90.4583C43.2766 90.5482 43.5776 90.6565 43.7791 90.7159C44.7191 91.0006 45.6105 91.167 46.5152 91.3237C50.0803 91.9084 53.3803 92.0922 54.1179 91.9739C57.4045 91.4253 52.4581 89.6043 63.3361 91.5903C63.9568 91.6993 61.8482 91.9978 64.2375 92.386C68.6054 93.0827 72.9676 93.686 77.4167 94.2333C92.4865 96.0734 107.902 97.2325 122.851 98.2948C125.509 98.4815 123.096 99.013 124.646 99.128C140.784 100.255 135.062 98.8964 143.941 97.965C141.909 99.5074 146.776 100.73 159.07 100.847C165.479 100.879 165.38 100.325 168.335 99.8336C168.796 99.7568 169.327 99.6798 169.958 99.6028C171.344 99.4423 176.635 99.7588 177.537 99.3722C180.598 98.0894 175.67 97.3318 188.191 96.8272C188.736 96.7993 187.065 97.5536 188.94 97.4129C201.174 96.2006 202.643 95.1428 215.045 91.3279C217.706 90.3926 220.998 89.1722 224.07 87.3471C224.144 87.3086 224.043 87.3557 223.957 87.5651C223.87 87.7755 223.919 87.958 223.916 87.9008C223.922 87.792 223.639 87.2569 223.243 86.7965C222.434 85.828 221.268 84.8559 220.04 83.9605C214.195 79.7231 207.201 76.5753 201.664 74.4379C202.569 72.7562 191.729 69.456 186.98 69.479C179.574 67.2727 171.45 65.3367 164.191 63.5073C161.696 62.8813 163.459 62.7409 163.156 62.6137C160.269 61.3977 157.818 61.128 155.952 61.0217C154.793 60.9554 153.884 60.9598 153.255 60.8483C135.464 57.7132 120.876 54.624 103.637 54.8029C103.001 54.8243 102.009 56.003 97.4442 55.0684C97.1655 55.0138 102.832 54.3996 94.7383 54.4171C92.3262 54.4603 89.2379 54.5073 85.8415 54.8439C84.1686 55.0154 82.397 55.254 80.6785 55.6959C79.0443 56.0396 76.8715 57.2201 77.6877 57.5803C80.6601 61.4803 85.1034 64.1439 89.1693 65.8125C91.6665 66.9156 98.3253 68.3441 103.399 70.6202C104.07 70.9301 103.195 71.0527 104.162 71.5436C107.304 73.1102 109.447 72.3598 113.11 74.4012C116.789 76.4498 124.859 79.1782 136.194 80.8325C136.543 80.8852 139.396 80.462 142.918 81.224C142.99 81.2395 143.063 81.2552 143.135 81.271C148.698 82.5298 156.644 83.6559 162.552 83.8709C165.417 83.9814 163.605 83.2796 164.103 83.2876C183.28 83.3835 196.951 81.9901 217.378 79.1035C219.111 78.8539 222.337 78.1638 226.019 77.4567C230.265 76.6535 235.035 75.5597 238.87 74.7944C242.805 73.981 243.059 74.8189 244.539 75.1078C245.911 75.2169 249.096 75.5234 257.014 69.4463C257.189 69.3018 257.361 69.154 257.53 69.0034C260.309 66.527 262.385 62.3706 261.746 57.7982C260.708 51.7339 255.927 47.5229 250.596 42.1496C233.242 30.803 214.517 24.9026 195.199 19.6486C189.935 18.3199 184.492 17.8899 178.993 17.8164C177.806 17.7936 174.092 18.81 171.361 18.8741C167.938 18.9454 165.779 18.727 163.458 18.8554C163.017 18.8833 162.593 18.9286 162.147 19.011C161.342 19.1641 160.534 19.3691 159.861 19.7986C159.16 20.1999 158.855 21.0579 159.152 21.8058C159.722 23.3027 160.955 24.439 162.08 25.551C168.307 31.4839 175.744 35.4072 183.696 38.5165C187.875 40.0667 186.22 40.0941 191.338 41.6698C196.506 43.1363 200.099 43.2694 207.181 44.7467C212.521 45.8223 217.842 47.8471 225.143 48.4448C225.503 47.0467 230.485 47.4482 239.346 47.129C241.046 47.0634 239.225 46.5692 240.029 46.5127C243.299 46.2693 246.328 46.634 249.428 46.2837C250.181 46.1989 250.204 45.7191 250.818 45.6211C251.124 45.5709 251.443 45.5261 251.771 45.4863C257.022 44.8724 264.808 45.3424 266.193 45.4029C271.945 45.6834 274.523 44.7976 278.904 44.6029C283.278 44.3845 276.799 45.4866 281.92 45.0598C292.489 44.1801 305.905 41.7771 316.393 39.2858C320.571 38.2912 317.57 38.3526 318.165 38.1961C326.747 35.9672 335.514 33.9825 339.749 31.1663C344.724 31.9387 345.153 30.5217 349.36 28.141C350.961 27.1712 353.141 25.9935 355.493 23.4835C355.815 23.1329 356.452 22.8927 356.79 23.1484C357.114 23.3839 357.182 24.3324 355.75 25.921C354.418 27.3687 352.378 28.7166 349.996 29.6581C347.397 30.6873 344.547 31.6987 341.917 32.8239C340.767 33.3522 334.278 36.9868 333.344 37.3317C326.033 40.2271 324.351 38.1653 323.915 38.1697C319.114 38.0531 310.831 41.5334 308.569 42.082C298.19 44.723 289.177 45.741 280.322 47.1246C274.558 47.9958 274.11 49.5535 269.516 49.901C262.017 50.4298 256.883 50.105 251.909 49.9436C246.749 49.757 241.791 49.7689 234.403 50.5638C231.295 50.8438 234.32 52.7583 223.215 50.8356C222.508 50.7311 214.359 48.8992 209.514 48.9513C208.902 48.9635 208.851 49.4471 208.052 49.3734C202.696 48.8376 199.231 47.8196 193.457 46.5715C187.694 45.3051 180.719 43.2999 174.582 40.0435C170.841 38.1285 166.802 34.4158 165.372 33.0336C163.506 31.3065 161.482 29.6673 159.682 28.0226C158.57 26.987 157.471 25.9978 156.5 24.3968C156.046 23.5797 155.483 22.5146 155.6 20.8281C155.715 19.083 156.994 17.7209 157.807 17.2953C159.215 16.5598 159.538 16.8159 159.66 16.9593C159.772 17.1414 159.594 17.4485 159.57 17.6957C159.503 18.2766 160.089 18.0544 163.346 17.9076C163.797 17.8937 164.33 17.8743 164.92 17.8549C165.126 16.5694 165.786 15.2165 166.238 13.9146C176.27 13.3833 185.974 13.6136 196.114 16.1766C205.224 18.6838 214.276 21.4952 223.31 24.7763C225.577 25.6085 223.503 24.1092 225.931 24.9956C236.176 28.909 244.886 33.0009 254.624 40.152C259.139 43.7996 265.339 48.6382 265.981 57.7678C266.089 63.2269 263.494 67.5252 260.201 70.5904C259.897 70.7731 259.575 70.965 259.233 71.1617C253.381 74.8135 240.797 80.2265 231.285 81.6599C228.516 82.1487 228.074 81.9454 226.735 81.9969C226.412 82.0057 226.035 82.0289 225.551 82.0797C216.5 83.0439 220.898 83.6373 218.468 84.224C207.967 86.6951 206.637 84.0808 194.027 85.6285C193.374 85.7318 185.271 88.036 184.114 88.1801C176.87 89.272 182.876 87.7443 178.317 87.8755C169.976 87.9956 164.196 87.7033 154.326 87.22C151.993 87.0979 146.885 87.1234 142.147 85.9421C141.092 85.6815 140.072 85.3842 139.121 85.0405C138.448 84.7981 138.946 84.3841 138.381 84.2333C128.291 81.5645 127.692 83.0564 121.738 82.2691C115.756 81.492 106.992 78.1305 105.243 77.2827C100.675 75.159 109.01 77.9598 109.289 77.9155C112.574 77.7572 105.971 76.2991 101.01 74.7026C100.738 73.0352 93.8453 70.8083 95.8726 72.9678C96.1015 73.2245 100.035 74.3508 101.01 74.7026C96.2897 74.7857 88.0119 72.7874 80.7393 66.2055C78.1118 63.4097 80.0231 64.8035 75.2668 59.4802C75.0591 59.2142 74.8629 58.9049 74.7114 58.5335C74.5513 58.1517 74.4282 57.5994 74.4667 57.0666C74.5401 55.9351 75.1706 55.1211 75.6905 54.637C76.7759 53.6773 77.7068 53.3278 78.805 52.9063C84.7172 51.2138 82.2484 50.7581 87.4145 49.8133C99.2005 48.0754 114.032 50.1953 125.75 51.5011C129.969 51.9823 125.925 50.8643 128.842 51.1873C136.586 52.0732 143.225 53.6475 150.916 54.9309C151.617 55.0489 150.033 54.1017 152.43 54.5733C153.993 54.882 155.557 55.2042 157.124 55.5397C173.089 59.0391 187.455 62.6137 204.142 68.7267C209.364 70.7102 217.061 73.7005 223.931 78.3242C225.5 79.4022 227.026 80.518 228.577 82.2557C229.331 83.1803 230.218 84.1208 230.802 86.3031C231.072 87.3698 231.108 89.0405 230.413 90.5117C229.729 91.993 228.665 92.8675 227.849 93.3817C226.19 94.4234 224.627 95.2023 223.203 95.8423C206.532 102.98 185.767 103.123 171.568 103.758C170.335 103.805 169.282 103.849 168.384 103.894C162.763 104.168 163.815 104.661 160.383 105.021C152.725 105.839 139.267 103.985 137.472 103.68C137.409 103.677 145.34 103.772 141.123 103.328C138.69 102.591 137.561 103.679 137.472 103.68C136.284 103.524 120.49 102.696 117.35 102.605C115.643 102.574 116.563 103.212 115.673 103.185C102.721 102.762 89.7476 101.978 76.7301 100.617C68.4543 99.7339 60.2395 98.6686 51.8732 97.093C51.4896 97.0121 52.1788 96.4711 51.2882 96.2898C49.4762 95.9149 47.7636 95.5565 46.0578 95.1548C45.2103 94.953 44.3853 94.7508 43.4479 94.4705C43.2468 94.4104 42.9701 94.3231 42.7254 94.2391C42.6011 94.1966 42.4785 94.1531 42.3566 94.108C42.2231 94.0585 42.0544 93.9924 41.9024 93.9284C41.7469 93.8631 41.59 93.7929 41.427 93.7134C41.2046 93.6037 40.9681 93.4768 40.7017 93.3043C40.635 93.2609 40.5663 93.2145 40.4951 93.1639C40.4244 93.1132 40.3543 93.0632 40.2219 92.9567C39.9829 92.7618 39.712 92.5165 39.4166 92.1452C39.2697 91.9591 39.1173 91.74 38.9713 91.4755C38.9324 91.4043 38.9071 91.3573 38.8564 91.2535C38.8043 91.1461 38.754 91.0322 38.7068 90.9116C38.6125 90.6705 38.5302 90.402 38.4723 90.1109C38.1769 88.9782 38.6461 87.3105 39.0886 86.7139C39.9277 85.3902 40.9797 84.9701 41.1688 84.8571C41.533 84.6789 41.8321 84.5732 42.1074 84.4869C42.532 84.3563 42.8296 84.2914 43.1713 84.2247C43.6717 84.1256 44.2373 84.0529 44.6191 84.0073C44.8334 83.9822 45.0541 83.9591 45.2823 83.9375C45.4885 83.9176 45.6692 83.9007 45.8707 83.8837C46.2692 83.85 46.6929 83.8207 47.0455 83.7964C48.6185 83.6964 49.961 83.6364 51.4518 83.5849C55.4192 83.4371 59.4237 83.3017 63.703 83.2613C73.9511 83.1752 82.1132 83.806 88.071 85.3016C95.8123 85.6303 106.814 86.9604 113.149 87.8289C119.475 88.6913 120.483 87.5258 121.046 87.5507C138.45 88.5053 148.464 90.3216 166.237 93.6126C166.377 93.6395 166.517 93.6665 166.657 93.6935C175.155 95.3171 191.953 98.388 201.132 100.19C208.406 101.604 212.663 102.839 219.378 104.196C220.294 104.383 219.503 103.616 219.786 103.659C227.393 104.759 223.473 105.266 224.944 105.871C230.327 108.154 233.567 109.332 243.172 111.848C245.435 112.547 252.125 112.262 257.298 115.522C257.359 115.563 257.419 115.604 257.478 115.645C259.93 117.347 260.792 118.433 261.622 119.619C262.039 120.267 262.526 120.878 263.202 122.525C263.511 123.361 263.936 124.609 263.783 126.449C263.66 128.289 262.59 130.337 261.387 131.524C260.844 132.042 260.818 132.468 259.241 133.596C258.509 134.1 257.483 134.656 256.109 135.151C243.199 138.962 231.807 138.997 219.671 140.015C214.763 140.343 209.845 140.641 205.045 140.947C202.787 141.089 205.713 141.614 202.467 141.829C187.172 142.826 170.507 143.761 155.669 144.498C152.026 144.676 154.27 144.023 153.469 143.935C148.541 143.403 141.757 145.222 140.628 145.34C136.869 145.729 133.231 146.088 129.678 146.429C107.723 148.562 88.9926 149.81 65.3594 153.185C63.862 153.396 52.5165 156.212 47.2347 155.733C46.8732 155.702 41.6466 155.179 37.2589 156.623C36.9887 156.713 40.2197 156.886 34.7213 157.593C34.6831 157.598 34.6448 157.603 34.6065 157.608C29.092 158.35 20.2534 159.952 13.1624 160.761C12.0722 160.907 10.4029 160.903 8.52387 161.447C7.9369 161.602 7.25127 161.875 6.92818 162.055C6.85744 162.092 6.81537 162.123 6.88715 162.058C6.92343 162.024 6.99309 161.963 7.12595 161.813C7.26189 161.645 7.47284 161.438 7.78364 160.77C8.0726 160.184 8.51625 158.533 7.79725 156.89C7.07636 155.302 6.15361 154.832 5.75079 154.578C5.29697 154.331 5.09567 154.283 4.95592 154.236C4.8292 154.197 4.77968 154.186 4.76498 154.178C5.88961 154.306 7.10981 154.352 8.41379 154.301C8.78608 154.359 19.8395 152.868 23.817 154.542C24.4317 154.822 23.7037 156.36 32.3858 156.01C34.0482 155.943 31.0723 155.426 35.4412 155.445C42.1536 155.475 51.0186 156.443 59.2616 156.307C60.2754 156.29 63.5712 155.964 67.1761 156.182C68.6492 156.271 70.2931 156.465 71.6942 156.812C72.4501 156.995 70.9457 157.415 73.54 157.664C85.7469 158.837 98.6433 159.434 111.041 160.745C115.434 161.209 113.123 161.888 117.695 162.469C122.272 163.049 131.509 163.993 136.347 163.991C141.189 163.989 136.042 162.207 143.259 162.683C161.073 163.88 178.723 165.503 196.463 167.628C209.973 169.372 222.712 170.332 237.176 172.38C239.565 172.835 240.315 173.041 240.929 173.13C241.248 173.19 241.576 173.238 242.288 173.507C242.983 173.831 244.391 174.221 246.335 176.445C248.322 178.666 248.612 182.504 247.807 184.669C246.947 187.251 245.672 188.775 244.05 190.184C243.12 191.041 241.214 191.976 240.25 192.22C239.172 192.542 238.383 192.67 237.651 192.785C236.211 192.999 234.942 193.101 233.691 193.192C231.18 193.366 228.727 193.459 226.18 193.543C221.109 193.703 215.858 193.794 210.45 193.868C189.081 194.129 166.146 194.07 152.106 193.453C134.552 192.672 156.635 191.979 143.228 191.68C136.743 191.538 129.771 193.152 128.197 193.21C121.326 193.473 115.351 193.497 109.69 193.493C102.756 193.489 96.1734 193.428 88.6393 193.652C85.8096 193.736 88.5952 194.339 86.1776 194.403C77.6874 194.538 69.9794 194.738 60.3326 194.044C59.8697 193.965 59.5536 193.951 58.5767 193.642C58.4609 193.603 58.3377 193.558 58.2047 193.506C58.0722 193.454 57.7618 193.322 57.4818 193.172C56.8719 192.797 56.1941 192.562 55.0407 190.983C54.2835 189.929 53.7053 188.039 53.9649 186.391C54.0738 185.576 54.3264 184.864 54.6075 184.303C54.6716 184.173 54.7711 183.994 54.8047 183.937C54.8478 183.863 54.8912 183.791 54.9346 183.722C55.0215 183.584 55.1087 183.457 55.1948 183.339C55.8942 182.405 56.4589 182.01 56.8828 181.708C57.3784 181.379 57.4522 181.355 57.6518 181.244C57.8255 181.151 57.9775 181.078 58.1164 181.014C58.3959 180.886 58.6229 180.797 58.7454 180.747C59.033 180.633 59.2742 180.545 59.4998 180.466C61.1901 179.844 61.4293 179.499 64.081 179.003C72.4118 177.591 79.3718 177.28 87.1846 177.293C87.889 177.299 83.1634 178.153 89.0418 177.877C93.3057 177.696 98.0274 177.679 102.922 177.747C108.789 177.83 114.942 177.794 120.856 177.482C124.044 177.312 124.141 176.187 131.011 176.906C132.447 177.06 130.624 178.406 138.604 177.207C139.939 176.998 153.408 175.427 160.017 176.562C161.757 176.852 166.194 178.031 170.044 177.965C170.566 177.952 168.492 177.292 171.683 177.323C179.943 177.419 188.499 177.802 197.043 178.307C200.079 178.485 203.142 178.636 206.194 178.764C209.247 178.89 204.736 178.006 209.292 178.212C221.836 178.767 237.573 179.818 249.95 181.122C254.515 181.608 251.308 181.835 251.635 181.921C256.888 183.32 260.182 182.46 261.976 182.596C267.612 183.041 272.605 183.791 277.524 184.837C282.004 185.801 286.416 186.715 291.304 187.501C294.027 187.939 292.203 187.022 292.752 187.065C298.489 187.548 294.093 187.851 297.662 188.591C307.672 190.778 318.973 192.181 329.928 196.413C333.968 198.166 329.696 195.46 333.368 197.189C338.443 199.604 344.579 204.677 346.495 211.819C347.136 214.055 347.731 216.335 348.045 219.149C348.174 220.59 348.323 222.098 347.894 224.413C347.642 225.572 347.266 227.047 345.955 228.791C344.701 230.55 342.111 232.009 340.131 232.246C326.751 233.293 316.629 232.73 305.396 232.787C301.679 232.762 304.016 232.208 303.244 232.098C297.956 231.326 290.13 232.579 288.394 232.713C284.446 233.012 281.711 233.069 279.026 233.072C276.276 233.074 273.601 233.017 269.92 233.126C235.074 234.171 192.014 234.881 158.918 235.146C158.712 235.147 158.508 235.149 158.306 235.15C151.507 235.198 144.917 235.201 138.474 235.141C135.266 235.11 132.09 235.064 128.941 234.992C127.369 234.956 125.792 234.914 124.232 234.861C123.436 234.834 122.668 234.805 121.878 234.772C121.464 234.754 121.09 234.737 120.681 234.717C120.493 234.708 120.282 234.697 120.081 234.686C119.979 234.681 119.876 234.675 119.783 234.67C119.764 234.668 119.636 234.662 119.715 234.665C119.732 234.666 119.755 234.667 119.816 234.668C119.849 234.668 119.889 234.669 119.969 234.669C120.063 234.666 120.131 234.675 120.537 234.639C120.647 234.627 120.785 234.613 121.016 234.573C121.258 234.523 121.551 234.492 122.27 234.212C122.637 234.054 123.135 233.856 123.896 233.243C124.606 232.662 125.845 231.353 126.12 229.189C126.411 226.999 125.366 225.145 124.682 224.387C123.959 223.559 123.445 223.268 123.078 223.041C122.351 222.631 122.056 222.565 121.813 222.479C121.581 222.406 121.444 222.374 121.334 222.348C121.121 222.299 121.022 222.284 120.94 222.27C120.654 222.225 120.636 222.228 120.582 222.222C120.443 222.208 120.508 222.215 120.497 222.214C120.504 222.214 120.528 222.217 120.559 222.219C138.546 224.87 155.429 224.557 173.555 224.245C181.995 224.046 190.602 224.104 199.527 224.303C202.167 224.366 199.519 223.596 201.807 223.645C226.364 224.241 250.449 226.334 274.727 229.109C279.525 229.661 284.342 230.239 289.183 230.872C291.584 231.192 288.211 230.049 292.083 230.55C299.593 231.538 309.035 233.084 316.999 235.408C317.407 235.529 317.812 235.647 318.215 235.764C321.835 236.796 316.8 236.101 320.457 237.118C329.024 239.47 338.567 241.35 347.869 243.339C351.837 244.2 346.009 242.162 351.165 243.35C362.461 246.757 375.151 246.95 386.11 260.995C388.21 264.213 387.569 268.718 386.134 270.938C384.728 273.329 382.963 274.623 381.301 275.546C377.023 277.649 374.583 277.316 372.277 277.549C369.999 277.655 367.88 277.657 365.771 277.645C361.555 277.611 357.457 277.487 353.319 277.342C339.584 276.812 326.07 275.873 312.375 275.104C309.949 274.968 307.854 273.521 302.684 273.664C302.287 274.037 302.299 274.486 302.12 274.889C292.528 274.723 282.969 274.684 273.512 274.98C258.029 275.472 242.569 276.073 227.118 276.81C219.393 277.18 211.698 277.582 203.961 278.056C200.107 278.293 196.245 278.548 192.446 278.839C190.48 278.992 188.677 279.14 186.769 279.327C185.832 279.42 184.879 279.524 184.117 279.627C183.887 279.659 183.697 279.687 183.558 279.71C183.43 279.729 183.247 279.77 183.374 279.739C183.391 279.733 183.509 279.706 183.734 279.625C183.99 279.512 184.26 279.485 185.184 278.839C185.756 278.357 187.247 277.368 187.65 274.514C187.815 273.149 187.407 271.671 186.847 270.746C186.288 269.796 185.694 269.277 185.249 268.932C185.032 268.765 184.795 268.614 184.676 268.544C184.621 268.511 184.568 268.481 184.518 268.453C184.417 268.397 184.324 268.349 184.238 268.307C184.067 268.224 183.924 268.163 183.8 268.115C183.312 267.929 183.101 267.895 182.962 267.863C182.816 267.834 182.819 267.838 182.797 267.834C182.781 267.832 182.78 267.832 182.789 267.833C182.809 267.836 182.871 267.843 182.962 267.851C184.406 268.019 185.438 268.004 186.686 267.916C196.769 267.573 205.169 268.192 214.322 268.666C216.525 268.797 212.792 267.847 217.003 268.099C240.835 269.586 263.862 271.701 287.899 275.343C288.567 275.444 289.23 275.546 289.887 275.649C292.352 276.04 290.909 277.123 298.201 277.911C299.475 278.025 310.459 279.468 313.345 279.714C313.739 279.739 311.831 278.803 315.378 279.396C325.049 281.036 335.012 283.244 344.73 286.373C355.34 289.783 365.96 293.213 376.317 297.001C379.456 298.161 375.87 297.58 378.119 298.422C387.947 302.31 398.602 305.524 408.369 313.238C413.496 317.59 418.159 322.304 422.088 327.233C428.827 336.146 425.328 333.656 427.741 339.063C428.13 339.78 431.452 345.807 430.924 346.439C429.847 347.86 426.945 345.825 425.976 347.701C425.878 347.903 426.787 349.777 427.144 351.053C427.331 351.686 427.392 352.132 427.315 352.21C427.233 352.29 427.071 352.075 426.526 351.159C426.532 350.945 423.802 345.89 422.688 344.803C421.99 344.047 422.383 345.922 421.089 344.316C419.78 342.728 418.956 340.517 416.581 337.946C414.146 335.427 414.657 336.985 409.95 331.911ZM141.579 92.1821C147.359 93.5474 148.53 91.4438 142.103 91.1458C141.792 91.1351 141.281 92.1141 141.579 92.1821ZM204.321 20.424C211.463 23.5364 216.923 23.8774 211.949 21.453C206.93 19.0628 202.131 19.4878 204.321 20.424ZM185.318 41.2096C177.113 37.2398 174.395 39.4645 183.976 42.5974C184.538 42.7624 185.81 41.4296 185.318 41.2096ZM410.052 318.956C410.103 319.012 413.586 322.372 413.668 322.445C416.037 323.727 409.065 316.971 410.052 318.956ZM264.267 47.179C261.412 46.9667 253.383 47.819 256.88 48.1971C259.746 48.5252 267.795 47.4771 264.267 47.179ZM76.5093 145.996C76.4223 145.972 73.018 146.346 73.1164 146.525C73.4114 147.101 78.1072 146.373 76.5093 145.996ZM329.403 0.859972C339.068 3.69019 345.832 8.3709 347.787 10.3765C349.671 12.5338 347.765 11.0902 338.2 6.60131C334.71 4.94709 346.078 9.36084 341.744 7.04029C336.603 4.26538 332.036 3.31066 327.223 2.22165L327.272 2.23354C324.565 1.76849 321.735 1.28312 318.515 0.646536C317.184 0.350342 324.141 0.0890608 327.645 0.536118C327.651 0.537429 327.668 0.541621 327.674 0.543199C328.557 0.673944 329.209 0.798018 329.438 0.866376C329.426 0.864238 329.414 0.862105 329.403 0.859972ZM144.601 95.2906C144.709 95.3298 149.391 96.0019 149.5 95.9932C152.135 95.6383 142.713 94.2795 144.601 95.2906ZM125.698 169.119C125.954 169.2 136.866 170.124 137.227 170.097C143.016 169.388 120.948 167.513 125.698 169.119ZM201.508 74.3279C196.493 73.2133 190.664 71.4784 187.002 69.4864C191.873 70.9517 196.748 72.5113 201.508 74.3279Z" fill="black"/>
</svg>
