<svg width="65" height="24" viewBox="0 0 65 24" fill="none"
    xmlns="http://www.w3.org/2000/svg">
    <path d="M0.719971 14.7275C0.719971 9.4775 4.05747 6.0125 8.95497 6.0125C13.8525 6.0125 17.19 9.4775 17.19 14.7275C17.19 19.9775 13.845 23.45 8.95497 23.45C4.05747 23.45 0.719971 19.9775 0.719971 14.7275ZM4.49997 14.7275C4.49997 18.1025 6.17997 20.12 8.96247 20.12C11.7375 20.12 13.41 18.11 13.41 14.7275C13.41 11.345 11.7375 9.3425 8.96247 9.3425C6.17997 9.3425 4.49997 11.3525 4.49997 14.7275Z" fill="black"/>
    <path d="M22.1454 0.800003V23H18.3804V0.800003H22.1454Z" fill="black"/>
    <path d="M36.0283 0.800003H39.7933V23H36.0283V17.945C35.2333 21.3725 33.1033 23.45 30.1783 23.45C26.1733 23.45 23.3383 19.835 23.3383 14.7275C23.3383 9.62 26.1733 6.0125 30.1783 6.0125C33.1108 6.0125 35.2333 8.0825 36.0283 11.5175V0.800003ZM36.0283 14.7275C36.0283 11.2925 34.3633 9.2825 31.5358 9.2825C28.6558 9.2825 27.1183 11.1725 27.1183 14.7275C27.1183 18.2825 28.6558 20.18 31.5358 20.18C34.3633 20.18 36.0283 18.1625 36.0283 14.7275Z" fill="black"/>
    <path d="M64.4217 18.56V23H60.1917V18.56H64.4217Z" fill="black"/>
    <path d="M56.8825 17.6275C56.8825 21.535 53.9125 23.9875 49.1425 23.9875C44.17 23.9875 41.2 21.3175 41.2 16.81V7L44.965 7V11.335C45.7375 8.365 48.1825 6.55 51.5425 6.55C55.0375 6.55 57.37 8.5225 57.37 11.485C57.37 14.56 54.8575 16.4275 50.71 16.4275L44.965 16.4275V16.81C44.965 19.3075 46.5775 20.845 49.2175 20.845C51.9025 20.845 53.125 19.5925 53.125 17.6275H56.8825ZM44.965 13.7875L50.5 13.7875C52.54 13.7875 53.62 13.0825 53.62 11.74C53.62 10.33 52.4125 9.5425 50.2525 9.5425C47.1775 9.5425 44.965 11.125 44.965 13.315V13.7875Z" fill="black"/>
</svg>
